<mxfile host="65bd71144e">
    <diagram id="nNPmW9wDI6X7ZIC3Mu8N" name="Page-1">
        <mxGraphModel dx="760" dy="390" grid="1" gridSize="10" guides="1" tooltips="1" connect="1" arrows="1" fold="1" page="1" pageScale="1" pageWidth="827" pageHeight="1169" math="0" shadow="0">
            <root>
                <mxCell id="0"/>
                <mxCell id="1" parent="0"/>
                <mxCell id="2" value="" style="shape=image;verticalLabelPosition=bottom;labelBackgroundColor=default;verticalAlign=top;aspect=fixed;imageAspect=0;image=data:image/png,iVBORw0KGgoAAAANSUhEUgAAAggAAAEyCAYAAACf9Sg1AAAAAXNSR0IArs4c6QAAIABJREFUeF7snQd8HMX593+7e/106l2WbEu23HsDbAw2YFONDTZgiiEkhAChhkBC6AESSKOEP4GE0EJIIBCqg021jauMe5O7Lcnq/Xrb933m7qS70510d7o76aTdz8cgaWenPDO7853neeYZbsltL4tIwKuj0glZe0DOW5AhawSH+DVAqZDDarNDFMMok+NgleegUS+ENUo4DlDaq/HRm89ArVZh1qxZKC8vhyAIWLt2LTiOw9GjR9HW1oYXnn8BNpstrPx7SrxixQoUlxSzfN9//33U1tTiq6+/QnFxMZKTk1kdcnJy8MYbb+DbtWtgt9sBcD1lG7X7U6dMxkUXXsTk4X2RXKh/jh8/jptuusldr6gVK2UkSaBbCdDY8/yjdyIlSQub1QKrxZIQkqP3p6erpzT+94On59gno7PEQGVzrvve9epIRj9wcPo85snQ/UcOEGmW8KTx5NPxf0Ckb4a7DO907Ge65yrGdVF+Xs96GuB5juNEgP6503KJCgiBBoGzUwYk1X598ZwDmfJ6CHDErZ7JOjXa9eawAIEGp5nPRItZEVY9EwUQnn/+eaw/sgsTZkyBEMLHJSwhdJO4KD0XM0rGS4AQLYEO8HzCgfqeJsDuROUpxx8S4HTAbDbD4Yjf9yqSLg2l7T2lGdyAQBDhnkmJVQYSIAQbUNRcDxRFMuhi9UyGrAEKPn5knpySgsoWGTinHYwUAfBwuLUYImQcraLd8Mg5GXRSKhOXBr1FGZYYQgUEvV6Pf7z1j6hrEBYvWYzCwsIeNQgECPubK6EZmYuqtoaw2uidmOcFCDwPG9NE9Eyn03JH4NKxcyRAiFjig+vBeAECSdUfEggK7DYbMtJSoVGrYDKZYLPa4HDY4SRtpJfWoa97JdzJP1B9owcIrmV7+BoEL5VCmBoE1n8+moNwNQiDEBC61Tb0/C2P2ZhXCUakCi1xMzNodCk41Z4EkzVYkzqFQRO8Z5jSX8UO3VXo4uBsTfjfP56ARq0MamKg3JxOj+4n9Lx7SkkvOf3rycRAgFDeXAlZSRaONtf0lG3A+1TO/OLJGJM9FG9uX402s7HHfE7LH41lE86SAKFHSUkJvCftUKTR0yQZSh7+kEDvKIEC/VPKBFgtZlc23t/POGrgQmmD1/TcmdzPCtDFKOAzNwczV3Sq//3r4YKBjv903O5Q63f8xds20VlOhzg7ZNlpcuj8BPvYNVxmgw5bR1dzRIeJwas5HpMEeF/LaqeJgkwNg0SD0NNg8nSK5//x0jYInA0Z8sa4mRmUKjVa7Olo6Xn+6klkId23Woz46p8PQ6uWdwsIIWUWYaJYAgLPcchNSsf8kqkYk12EJKUaR5uqsavmCDae2AuzPbhfhQQIEXboIH0snhoEbxF7yiVAoH/0O2kT0pN1aG1tgejswxWWd0WDuh4EuOG7QPedIX3m/i4J3Yumrn/3LKc67/iW22V95Q0AXlDhkqYfPLiz8kCGNwx0+hZ4wKATEHx9DZi6uNMfwV2+v3+Cp3iRE13sMBhMDOF+UwIO+Ri8B6TmT5M1QsnFx8wgyGSwCNmobw/6NoUrqm7ThwIIFosFW8u2wuGMrm1zwoQJSEtLi5kGgVZpozMLcfWUc2GxW9mHM12tw/HmGhSm5mBvzTH8Z+9aGKzulZafpCRAiOpQG/CZ9RUgeLQX/qBAkEAOjBaTiTnSxuDzGF6fBuWAMAHBq1S3e6HrL4GYIIC2IGQNgo+2xQUEbOL3XF00CJ3Ohf6A0KEN8JgWPGYGD2h4KuUNCKzu3toGtwMj9STLx91sCRBCH4ex2DmhE9qgFfRxMTPwPA+oc3CqhSezYcyvUAChr3cxRGpiyNAk49bTLoXRamZmheL0PIxIL8Cn5ZswPmcYlow7E58d2IQ1x3bBKXY1oUiAEPPhN6AK6EtA8AjSYwqkutDPdrsNSRoNW2k6bDb2NzbWmVtCHD4wHZNp4K72meCDpO1ihghmYgj0dx/28MopgImBTcZenOFrcvAHhK4ahE4o8DUnuMDCvUvCXW7HrgiPndj9d9FjTvD87gUCrt0NDAclQIjml4PZ53vhBCnnrUiXNYCPA4PTqtchz0CdQSkBgnubYySAQM6IpxWNxeIxs/HCxg9Q0doA+hgJHA+b0w6FTI6bZlyENHUSXtjwX7SaDV2GXK8BIT5KoGi+Kv0rrzjOX9FoeDgTbjR8EILV2ds3wWNyIL8EclxM0WqYNkEQaCYCou9Z5LeUd1fSVVo4V/CXJ5gbBU2eneUEet5rNe5TFb+0AaAikM8Cy6JLZXy3QLpAoKs/ApvmvU0I7jQukPDd8uiqKvlreQtT7NhWKZkYwhlXIab1QAMTfQ8fIo5zIk1ocu0gcCfuOvw6M+kNSNCHwyqkotGk6TeAQLsYXvv7a1Hf73/55ZejaGhRTEwM542YivNGTodKrkR1ayNeKfsU+boMjM8djv/u+w5nD5uE+SVToFYo2c6IF9Z/AIPN14zUa0AYZodzkrFzf3SIY1NK5pKAsF0DnJAljDj6CyCwycetHfCOmUCQQOZCjVwGi9uBMR4M5vut7N6c4OnsYKaDTvzomk/PzwR2TvSf5L01AZ16fC/w8dI+BHQ89HJG9JglfGIkeGsHOkwNbvMB7wUTHRoDdywHd5NdPgnuGUxyUoz996HD8dGLqP2hgSmfiFA7AMG1xbBzQHtYnBxHOrlc4Bwd2xUpnkJn/AvX1kX65x1ngXweTKIW7fbkfgMI9JGJxd5qCkAUq10ME3OLsaB0OvJ0GdhcsR8rD2yGTqlGYUo2tp06jPE5RVgwcibyktOx8eQ+fLR3PSwOX4fFXgPCRDOs57RhlGos5FziTHSxf+O6L8EqWnHAug+qL1LB7VbF5T2IRpv7EyB42uMNCB3vsShCKfAwGuPjCd2jIi0gM/jYC/zW+4HvBQYEPyNGENOCdwFdAKGjOPcPXlqDTjNEpwOie8HvpTnwCrTkNil4Oyd6ynOZFzxleMwSbj8Ezy1PXbwgQdIgROPtjSAPjz2qI7hTFHHbNzqjl/aBExk2ONloif0Vig9CrGsRi10MtHthcv4ILJ84H29uW4W9dScg8ALkvACTzQKNQolbZl0Kh+jEK1s+gcHa1Qm114AwyQzdAiXuzPwVNJw21mIcMPkbnHo83/Qk2j+3SoAQpV71+CRQdgT7HEGCQgbR7oDFaonJAqBz8eTdiGhoEGILCJ5J2ne3gneZnT8HBARvoHBP+MzU4BdZ0QUSXjsaPIDgoylwaS6Y+aTL311mBgkQovSSRCObWDhBRqNekeYxUAGB5EFbGm+cdgEyNcl4Z+fXKErNZnEQ3tu9BjOHjMbsYePxzx1fYXv14YAOW9EAhOQFKvws8xFo+KRIu2jQPUeA8MfGR9H2uUUChCj2vkebQFmyrZB2O7PZKxUKCAIHp7MzhHM42pCQqhhUjdB5o3tNg+tuT9oIQebSSnZBkkCagwA5+m517FzNBy3Z40dAJh1POGVPvj7V8NuN0LEFAbBzSphVmV4A0ZmWgwMp6jrIFe6ZhwMUghI6ZRprp1xQSoAQ0gCMUyLy7eF5epEoHr9LDeTw9J2/hsHv9ygqIKLW2oEMCCSk3KQ0XD91ITK0qcycQ86JtK1Rxgv49sh2rD78PexBtm9KgBC1YRZWRhIghCWusBL7+yZ4YMGTSdTBIKza9S4xTZg6na5LYLNIcvUEcQv12d4EkmtQDMWeouVwyLqGyldCj0XFf0NOnrVDASHwcmhkSVDLknDp2B9JgBBqJ8U6HcFiRpIdGRo6TMllAmCuIl4zv80BOJwuA4LN0emuSGksdtd+F7pnpp/dl3cERE9elCYGwQu7iGigAwI1WC1TYFJeCc4dMQ2Z2hRsPrkXa4/vRnV7c8DtjR4hSYAQ6zcqcP4SIMRW7v4QkMhQ4KMp4DgkJSVBLpf3WoDhAkJvfLTqFcOxffi1cPJdASEJelw64mXkFJi6aEaSFCm4btL9EiD0urejlAEBQrbOjnRN53kI4WTto0Hw+sUV6MwFFR6thN3Bo6JZDkds9iF1VDsQIFBFXn/9dRgMBmzesjmcJkaUluj75PGTaGlpwXcbvutymmMk2xz9K0Iv/OTcEpSk5+Gzg5thsgWNZd3xqAQIEXVnrx+SAKHXIgwrg4EECHQKrEzWe4fgcAHBs500LMG7E9cri1E27Ho4ha5n6SShFUtLX0JuAEAgU8P5I6+TACESocfiGRcg2JCm7goI3i6FXWN6h18bclI80iCHzUvTEH4uPT8RCBCIhp/+7dPsmOf169f3nEkvU9AHymQ0oV3fjq3fb40JIFAVeY4HOS8GMyn4NyNegOBwOOFwunbF8LzbFkzb/Hie7VdnMfadTlZ/GoNkK6a/+9taKR8KtOW/Ndtlb6YdNK6zLzx74P3bS89TWVQH/yOuKS3dC/fDGcnQkAAhEqlJz9DYTEhAUJSgrDgYILRhaemLAQGBelzGyyVA6C9Dnz7gyQo9dIKBOZR4PtBs5wrnQgTmrErREN1faZqQPBf93fuj7rnHUtAzXhfHCahsUaDNFNvWBwIEAgOtVuuOxBaZtiTcWnscqMhxqqSkhL3oa3sIlJSkVEHgBBYhkXwKtp86zACALtqdMDQ1h21tpB0MtNmJ7lkdZB7q2RuE+un0/NG4fPzcyA9rmmRGKE6K+w6cwKmaJsjlAtQqJfQGIyszOUmD8WOHofxwJaprmtgpfSkpGhj0JkyaUAKFQs4mc5r8DUYzyg9VYtzoItZ+lUrZAQI1dU3Ye+AklAo5sjNTMGxoLhuncrnMBR8EBqKIo8eqQWlVaiUmjhkOjUbJwIQ0SpRmX/lJ5OdmID0tidWPyjaZrag61QC7ww67zYn0dB1L05tLAoTeSG/wPpuogNCgLMHm4hvg5ANoELh2XFH6AnILzF1jMrm7WtrF0I/GvIyzgo6A9t2mGLyCpE0ItmExUDQ1mrpo5SiTyWHk0lDX5lVSz/Na2JLyB4Sqqqq47Y8OVtnc3FyoVKqggEBgkJeUjqkFpdAqVMjWpsFoM+PVspU4a/gk5CVn4Osj2zA1vxQlGQVsG+OUvBEYkzMMXx7+nh3WJON5dlCTR6tAEyZtMLWzFTSPKbklGJdRhEn5I2IKCMQq6zftwcnKOjZh06mabe1GyGUypKYm4bQZo0EAQZO/Wq2AVqOGxWpDakoSCvMzUViYjd37juHYiRo2iedkpTKv9AnjhiFJq4bNZse6DbuRnqbDgUOVDI7yctOgVCowbdJIHDlWjRMVtVCpFGhtM8BotLC0OTlpGDE8H/v2n0C7wcTO4aipbUFaShJSUrQYPbIQ2VmprC7VtU1oampnbZg1bTTyctPDHofeD0iA0CvxDdqHJUAYtF3ffxrOwYkMeR1kiO7BRf4t5GmFpslGZVNgvIhWbAabxYgv3ac5zpw5s4vauq8kT7ERgmkQ6IyFC0fNRL4uk+0DrmlvQlnFAVS01eOCEdNR2d6Eww0VOK1oHPJ06Xhzxxe4sHQWmo1t2FN3HCMzCjAxrwSvlv0P0wtKMXXISMgFAUarFW/v+AJGmxWjMofgslGzkaFNiTkgbCrbj8amVigUCja5VlbVQ6GQgbZszZw6CuVHqrBn71GmQTAYTCgsyGKT+bwzJ7PJuqVVjy+/3c4m9qGFOWyFT7BAvx88Uol1G/ZgSEEW0060G4w4bdoYBhuU346dh1jIV9Iq1NY1MW2ATqtG6chCpKUmwWqzo66+BXv2HUOb3sSApTA/q8PUQIBTUVmHLdsOYPL4EcjLS4dWo+rVsJEAoVfiG7QPS4AwaLu+fzU8RWiCmo+t7p8Gu1qXiWNNipAjyUUCDR5AcNhMzAO4v1y00iVTx5AhQ+DvpKhTqHHXnKVoNLbCaLNgSHIWXi37DHXGVgxLzcG4nOGo0zdjYelMvLfrWxxoOIkhqVkYnzUMdYYWLCidgY/3rsfeuuPMDDG1YCR0Sg2ytGn4a9knaDUbmUlizpAxWDzuzJgDwtYdB9HY2Aq9wdxh5y/IzYDIc5gweiiOnqxBZVUDhhXmwGiyoKmljan958+dzCbqb9ftZCYF0kCUHzqJ0aVFGDmiAKnJWpyqbcLmsv2YOa2UeXeXbTuIqRNHQK1WMi3E5u8PQC4TYLbYYDJZYDBaIJdzOGfuVKZVIPPFl2u2Y3hRDrbtOoJZ00aheFgeGyZkntix5yj2d5gedDh+shajSwtRWlIQMWxKgNBf3sLEqocECInVXwO2tgrezM5mCNXMEIkgaLArtSmoaE2CI4Lz3EMJH031sllNWPv+07AFOKyoG8MJ6HyKWF/Uhrz8Avzxd0+jvLkSspIsHGupxfT8Upw9YgqONlaxKmjlKgYKH+3bgHxdOmYVjcWw9Fx8d2wXNlceYPb1ocnZDASGpuViS+UBFn6ZnBWztSksgFKqSocJucX4+/crobeYMTa7COSkODp7aFwAoaWFTgsFqmoakZeTBp1OA+r2yeOLsWPXEVTXNrIJd+qkkdi19yib3OeeMZEZRkiDcPR4NRqb2plfwGnTxyApSc1kY7M78L8vtmDemZNgtdrwxbfbkZ+bjrQ0HcaMLMI363aiID/DZdaQy7B333HMmDYaRUMyoVFTHiLzfzh6ooZpF06fOQZFQ7JdedvsOHaiFvUNLcxXgTQblE9FVR0uPG8WS+Pyz6HIoCLzASEHS8/fgo0fCRBi/WYNzPwHKiAsK30BeZIPQuIMWp5zIF1WH3Mzg0ypRY0pDXZPJKYoiKiLG4MowmY1+wZz6KEcgXcgTdboc4ZEFKrWJQuTUwM7p8LVC0d1AkJzLbK0KVDK5MjRprHAR0eaTrFYB6QdmFU4hsU2OFB/EvWGNvazXJDh9MIxzLejvKGSmSRowqJrbPZQDEnJgpyXIV2twwf71sFit2FawUiMSi2Iiw/C1u0HodcbIVfImN9AfWMLdOQkKjoxffJIVFTVY8u2cuafkJOVhuZWPZtox48ZyiZr+rls2wG0680MDDRqBTIzUpizIJkaPlu9GfPmTGKwULa9HGeePoGF2aV7X6/bicz0ZLS1m2Cz26FWKZiWQiGX4aw5EyETBKbZ2LXnGKw2K06bMQYqZed+bdIwrNu4Gzabg5k96N7kiSUoyMtA+aEqJCWpkJqixbHjNSgdMYT5PKSlJXXryCgBQizepoGf50AEhGSuDUuK/4yCoZKTYgKNYBHJQivkvMVHiyCEfHhq5zTdXehQkVegwZYV01gIwWIzdNcZMt6BDFk9+Bj6YdB5FHpnMhwijyvmD+sAhKPNNR1VI2dCHr7bFukjEWiXQtC/u5e51A90VgNpFTzPx2ObI5XlcTAk50GNRg293oQ9+48xGMjNSceR49XIy06FyWxDW5sBJcX5MBktqGtswcjiAqbhoNU8aRBoN4OWzAepScxEQCv77TsPM7U/gQRpGmhnBE38Vqud7VrIzU7Dycp6JOs0yEhPRm1dM7RaFZJ1WrbaJ3ghUwWZOGjnhP9ltlhR39DK8s/MSGa+DfScxWplDp8EZuTLQLsoyKmR6ktmjYGmQaD2hLJDxjXkegoanECfw35S1YEICHLYcF76Gxg35iTkPnGUXIcHsm3HS257OQb+6/2kVxO0GnTqIqlfgx26JOM8Toyi+5hoT0NFL82D52f3sSBeanuXV70MzfYMpmqO99WdP4NCcGlQODF2jpok2VZnKrO1BwOEWMskHoAQ6zYkYv6JqkFIRFkPpDrTZNldJMVwoSyc9KGCYccs4LXVurttjpQ+nW/FZN1K6BT1bE5wzTtWKOROFBa2SIAwkAZx921x2Wddl4sKPCGd+5MMZIIdGUJDzAGhyZ4JgbNLgNCfOj8OdZEAIQ5C7qdFhDvRejeDJnQ6iyFQJMV4BPgKR6Te7ewJEJjGyT0feJehggWzUldKgBCO4KW0sZeAjLMxDULnSRPRL9MJHvX2bCg5iwQI0Rdvv85RAoR+3T0xrZwECOGJV8lZJUAIT2T9OzWd6a2QubQDdgpS52U+6DxK2s9w0Qcmhu6kGA9AsIpKNDsyoORMEiD07yEd9dpJgBB1kSZMhhIghN9V3JKfevkg9LPJIvzmDO4nNAonCtNsLiG4T3b0SMQFDC44sDtdtgb6va5dgM0RulOTXBBBPmAEHx7/BTr0yfvUSE+ZgYZTT5GI4wEIJlGNVnsaVLwLEHbXHUOryoGT9Z1OirEeSfPGTscP5i2O6TbHWLchEfP3AELr51Zwu5Uea1siNkWqc5gSkAAhTIGR+eEyb0Dwet57JzrzmZOufi8BrcKJovSeTxLsbAiHk81yGCzBAjb7Npl8GHKT7UhW2d0fVtdzPlELRDqKuhMebE4vY4EIWL1gxHNEtXcevGiHFg0xNTG0O5JhcOqg4o248pzheOndN1Db0gi7zQ1XcejppRcswv233NUrQFCdx+Ga1B9BxWniUOOBUYRJNODttldh/JwDv0sZ03gjA0NiA6cVEiCE35dBAaG7rCKJqhd+1aQnwpWAWuFAUaqly/kM3idAsgOfWNgcV6CZWoMSDe2haRAofX6KGxDCrVxP6d0aD9o6p29tCXlLV0/Z+t8nH902RyooDgIBwm1XzkBDQwOL3BfPKz8/H5MmTYocEMZbYD67mW31GywXhb6OxiWKDsi/yYa4V8VAl2OnXVKwpfiOgWi0RcojdAlIgBC6rDwpIwKEYMVI4BB+B0TziQ71PO97iJP/lhrP7zS52GTpqGkTQgq5TICQk2RGijrwhzTQ1p1wj6qm46DbW1tjCgjkf2B1KjsAoaWlJe6AkJeXh/Hjx0cMCJxKBJcUvQmtJ9NPb8ZpJNvyqWUuk5jASDYax5z7tEHPQTR3JQ4GCxy5sUpq0970eX98VgKE8HslqoDgXXyo4XjDr7L0RDAJ0AooQ1aLUIMq0YSuSMpERbMi5HgIOqEVSXQktfuifibQ8HxqvSGB/eyeHZjmgv3ewaYdq1/vo6qddjtMpvDOoiCtgP8VLFQ1rRWb7Fmwi3IGCFedW4zVr3yMopwhLJRwvK6xsydh/lXnRwwIsahnbz6gweoTzn7vzjFFx5bxbiiIX5/4tIHCN4sO8JJ9NRZDrU/y7M34HsjbHLvrjJgBQrBCI4mu1yejKSELFdlx0XIudD+EpOR0nGhVw+6OS9TTSlIrtCOJbwswJYcvsGCTRzgvsgMC2pwpzHBCH3TPatUVidEdJIogxq0+plVpuyOFhQMhQCAnxaZvTmC8aiQszebwGxHhExmzC1B8ZS9MDBGW291j4cg91OLDAQTqE9favRMsQy0nJulEMsZRjRySr0JMBBzfTHszviVAiG9fdSlNAofodIBW0EPHt4acmVqbBBs0oJU1meE7djgAsNo7V2+0Y4HggSZVhaOtY/INuaAYJbSJcqYRCKRF8C7SAw7eAOQBhJY1FSiqzUTjtuqwasnLePAKAQ6zHYJKAGlC7CYbODkPnnP9HOwqWj4Wk+4/W9IguAVE/Uew5xXNK6y+iHVipk0IOdx5rGsj5R+JBCRACF9qcdcghF/FTi95Nl1JpsFuRchzdmTJ6kJe8dAxvcnJyT1++jwTK30oW1paOw4kiqQ/o/mMyalGmyOtR0AIVGZvAIHjORQuHIkxt56GjT/7DFPuOwvaolRs//VXyJ8/ArphqVj3kw/hsAQOGd0fASGa/RJOXk6Rh5MPfn5COHnFMi0nerQJsSxFyrs/SiDaoZZj2cZwIyl2V5eEAIRgDZC2YnaVDJ0GSYcdCSEedkT+A6mpqUxFz/irB5MvfSRdTn39g9T0YhL0djIxhH/1FhCKl43H5Afno37jSaRPzoNMq0Dj9lPQDkmB02zHqsVvMe1CoEsCBJdU6MAsMQHgoKMPRRFcT3a48Idi2E+QySyWR8KHXaEB/kBPhzX1RjsRS9HVK0uwpfgGOHllRMUkNCB4t9h/uqLfB6vGIU3WwMIIh3pRfHGPrdjfkZBOy/Ncni11RqMxZrsMQq2zJ127UweDIzncx1j6XgGCwGH45eMx7fHzXLYXtw2DPhRkudYfa8Lqy/4hAUIPPeMQZRDj6Bwa0UDpjw+JzpgfCd8fm91XdUpYQFAUo2z4CjhkkcVKGTCAEGzgBF3n9o8FcEzGO+000PD6qDgS0sTnr1ToT7Tc4kiD2RnZ4O8NIJBQ0ifkYPaLi6HK0vr0o9PqQPkrW7D3L5shUgjLAJekQXBrECCL/hbGmLxV/SxTERBgl7QIceqWRAUEC5+MXVmXoCF1FBxc+DFTBjwgdDd+Os8niNMoi1MxCt6MNKFpUHw8GtiWRZ/DzEOWcq8AgTRUAo/ipWMx5eFzoT/RDFONHlmzCtF+pAlfXfUO7MbEclIMWXBRTOiIGyD00XbJDllFeUUiUoQIaXdFFIdit1klKiBQoyy8DrWqkbBzsrAdbQc1IAQbER0BnyhBlN/reAxo8kPIlNWFPRjiUbdol9GngMBzKF42jgHCnj99h4atlTjzb0thqmnDF0vfhsMc2EGRZBA9DUKwia83Azd+k6md7VwIdWUTfptkAg+lTOjziJNOUYTVZoeNDi6JwiU6nZBJfghRkGRoWSQyIITWwsCpJEAIQ3r0eeoIABX+tyqMknqXlONEpAiNUIXhh9C7EvvmafIpb7RngezYkVy91yBwGHfLLIy+9XSc/O8etB5uxNg7ZsNcb8CXS/8BW1vweBTRAAQHp0CLogA2XuUyA3EudwiZ04pUayVkYuh+KPS4kxOgF7Jgkqe5xBljTnC9T67g38EuFqdIFKFytkJra2BxCUK9KNeMFG2fw4GnvuTY29SmDzkoWXftlAAh1FEQnXSDFhCW3N55mqMUNCyywdQfwYGCJXmCAwkc2SpdcEN7uUnD4H1573iQeQUYYnNEt4Oik5LIozrG80mXzqF98wQITjGyLXK9BQSKg3DG8xcjb14JRFdsYHAyHuZ6Pb684p8wVeuDDqjeAoIIHk3HkwC7AAAgAElEQVSaEbCmloDjvQCJDUYHYKhDevt+KJydUS+7G91OTo5m1VBYU4rBCcqYw0FYbxqdHGo3QdO8H0m2upAfFXgO6cnaDgfckB+MUULy3WlqNcARYBcEBUcXBA4Kpu3gmBOw3e6E1eEI6BAsAUKMOilItoMWEC6//ZUgpnjRR7suwUPoA9JbudAfNQ4eWPC0yHe7lK9qhELNdkZH9t1a5Yow51ls+t3zUX+KEPyghEDF86zrZ6+Voddg6w46HKKAJgcBQqgqat8+7C0gKHRKnPfRCmjydT4Z09bGb655B81762MGCE6OR41uCvjkgsBliE5w+mqktZdD4QwOKvSwk5OhRTUM1pQSQBbZdqjQ347IUoqiE0JjOdItx0POoF8CQpsBDr8twjT5aJRyyAQBdFgZ/SNIkPOE7iKMZhsczDTR+W5KgBDyMIhKQgkQehCjDy70Y/V6VEZDjDIZbNEiOw/pCTRggg8i5nzVQQak8eiEB54mPjdA0ELMLGrZoT6RXL0BBEElQ/qkXIy5aSYEtdy3eBE49p+dqF53ApbGwOdK9FqDwABhGrjkvOBNJ1m1VyPZcAQKpzFgOoKDNmUBbCnFIcCBxyDQGcKaMqVvA2k0fP8aSY908wwFKWo86AYEVz08W5mDjaREAAQXHCggEzjoTTY4RadbY8AxSFArCBx4tJssPgeKSYAQ5fHVQ3YSIEQob5d63UvVLMFD2JJMdKfIsBvcTx7oDSCkjsnEtEfOhcwfDrzadugf23Hsg70QHV1fimgAQm3yNEDXDSCw2VsErHrAFsDUIIoQBQWgSgXXbbAiESpBxPAsLQqzdMhM1YHnOMjlApul9SYzLFY7apv1KK9qQ6vFGX2DkxsQsmwnoJDJmDqebPoEClaHEzZ714BUoQACnR5Kq3OFwg/yYjBGmYnBT4MglwlIUinRajR3AABpEuj4cXJsZBH81EpWR6OFdsW4xpIECDHooG6ylAAhBvKmz4T3JZkpwhNyf/RtCK8F/Tu1mjdi2fxhiOQsBvI/kCUru7Fvi7AbbDELlCRyPEIChF52AekFClME3H/DQsyeXAqtOrgJwmaz49ipevz+jVVYs6/adbZCD5cg8NAoXIG6LDYHrHZ74KPHCRCaDiLHXsHU8fScze6AXMbDanMwWDDb7D6r7GCA4NE8UNWsVhssFguSkiL3VfDOr7vm+gMCRRjRqAhMOBjMLodStVLBgMBis6HdaGHaBIIIrUqBVoO5wx9BAoSeRlZ070uAEF159pibBA89iihoAgkcIped95PdAQKdtSDTyiE6RVc8AxHg1TKQCzoFQqIPBrtPhwwZrexnclCkdE73+Qt0DoPocIJX8JBpFOQhCqfJDofVgaHXjMOEe+ZGfFhTPACBfFPOKM3Er29ZjMLc9JCd/fQGE177aB1e+mQbrEH8Q2jr4dTSAlx+9gQMzUml4zbRqjfhy7LDWLnpANqMfjswOgDhJLQqJQMET8Aus9XOVPSeCdXTx4EAwWgyw+kgMxUHlUrBVuYmk7mjH9RqFdOImk0W9n+5TAalUgGLxcZU/jKZALPFApVSCbvdwQCD1BgKuZxpIex2O8wWKxsHCqWc/d1zdQEEjoOOwYCDAYELDhTMR4HKstkcaDOaWV1TtComH9IqSBqE6Lz/4eTSEyB4osyGk2cipOW8nRT7ssK+jn2SySKcvujvTpHhtCWeaYMBAidwKLlqIgoXlsJhsuHQP3egrqwSMx4/D+YGA/Y8vxH584pRctUkEEgc+dcOZE0vRNqEXDgMVtSsP84Oayp/YztaDjSg8MJSjL5pBiy1BlSvOQJBrUDeopFIGprWrwEhTyvitUeux4ii3LC7xWiy4MH/+wCflp1gByZ7XyqFHCsWTMa0UUOwcuMBHKxsgN3pRE6aDufPLIVCLuAP/1qL2hYvs4gbEPKdlczTnyZbstwoZC7fB4IEC03WXpc/INAzer2RyZwmfYIMmuAJELRaNUxmCxRyBewOl7mCIMBgMEKjUcFqtbNJmyDAYDBBo1HDarWCTBQqlQqCjMwtIgxGEwu1TT40BB86XWeUzUCAQBoZOzNziEhNUsFidUBvtkApl0GrVrB2mcxW6DQqtBpMMdMghBodNZzju8MeNP34ge4Age4NVLn0G0AINjZ891IkZuCivhr3g80pMlw5BwMERaoKZ7++FCc+3u86stkuonF3Nc76+zLYzTasv/1jDF88FtmzClG38SQad1SjYWc1pj16Dhq3VaHiiyOY9duF2PnMWjR8fwojV0zByOumYP9Lm1i6CXfOQcrMXAgKsqX7quHpQ0Mf6+PHj+Omm25iK9JAVyANQm66DkW0GvfbRkeTTHlFPVupKuUC5ILQ4QRqstjZ5Ox/0Q6VJ34wH0vPmxEwjgBNrGaaUBVyqFSBzQ4V1Y246qHXUKv3zf/i00djwYxSvPjfjQwOvCenjGQ1rlswlcUvePLNr5nZwL1kZk6KuWIFs9nTd4G2AZLHPwEHra7p5+4Age7RhE51p9U/1ZvK9pgYaHInjQGZSmjCVyoU0BuMLJ3d5gIEOrfEaDRBq9WwScFqs8Fus7G/E3QQgNBqkp4nPw1v34auPghuJ0QZD6PZCqVCBrOFHBVdvhVUPjvbgzQUMoE5KnpkFW0TgwQI3X89JEAI9+vaD9JL8BB5JwTZ2xp5hgn4ZDBAUGaoMffly3Dgb2VoKa+DoJRhyIKRGHHtFNjaLDj8zx1o2luLkismImNiLsr/vhUn/3cQM59agIaySpxcfRhnPHsRdv1uHeq/r2JwMObHM1H1xWEc+3AvVBkaDFsxEekT86IGCDSJTB1RgB9cNB1qL7U2BSncf6IOr3y8GW0mCy48bTRmjS1CdooWSRoFHnl1NY5UN3fpvUy1Ex88/WPkZ6d3uUeT4Ov/+AhGo5mp22/50ZXIynIHV/JKTSvou373Nj7fcarDaZG88l+4axHeWrUN3+0+3nXlJQI56Ul4+pYL8fBfV+FojbtubifFTOtxtpqm1b/HtEATMcGP2WrzgY1AGgTSMrD0VhubkMk+YLFakaTVsNU/mQRosiSIkMllDNC0bm0BQQUz74kitBoNgw262N9FJ4MG0kKQCUMmF5gmoXtAAOgwNGqP0WKF1UaA43NGrfu+AgRyFgZLbhODKLLDmqJ1oqMECBIgBJJAv9cgRDrvePs4SM6RoUuxY0fFINiNEtTEIOMx+4VFkGvkgMChdV8dcuYOR9UXB6HOTYY6SwtTnR7qnCSoMrSoLzuJ3S9swozHz2XhlkmDMOfPi1DxeTmadtcibUw2hi+bgF1/+g7WJiNKr5sC9dgMqDO1UQME6uG0JDVevGcxNuw5DqP7mOlxw7Jx9FQj/vLJFpe3vlzAyIIM3LRoFr7ZehifbDoQ8OjuURkCPnz2LtdOBb/r2++2YvUXG3DZpefgL397D2ecNgk3XHtpQE3DC2+vxp8/+b7DYTErRYvf3Xohfv7iZ5gwIg+TR+T75N6sN+G9b3bj5ktm4mRtC95ft8dVP7eJoUCsIncFBgRqpZxNmuSsqFEp2KRv9wplHMgHgfKiyZxWhLTSp4mR/tHPbFcEUxfDtYvAKTIQ8aiPCQhcp51yDDLoOUpHFz3v0f4wPwHyWeF9Vc+BdjEQoJB2gBwTSXtgJo0ROx2Uhp4MWo2c+SIYzeQT4XWJHATYJEAI/dPWq5SSBqFX4kuch6VtmZH11UAEh+6cFGmVnzQ0hTkUGqvb2YmNhpOtEJQCVNlaWJpMSBqSAgrB0HakCXaDFdqCFNgMVqZlSC5OY06L5KRoaTYzqGDR8QxWkPNi0VVjMHLF9KgCQlaqFn+5Zwl2H6thzm40iZHj3oY9J/Dl94fZBDNtRD5+ed08diZAVUMrvtl6BJ+XHfQ9I0AUUZwiYuVLP2fBe/yvN//5CWpqGyCXy9DQ2MpW0E89+tMubaHn3v7sOzzx1lrY4Ir2mJ+ejMdvWoCfv/gpHrr+HFw8e4xP9k1tRiz6xRs4Z+oI6DRKvLqyzBVYqCMOwrGQB3Ao2xxDziwKCQMDAmXMMRDRUrAk8mWgnhI5ZmqgrY02m63rkTASIEShR0LPQgKE0GU1oFJKzpHhd6e/csHze3/W1PjHUiIbLwOEed1sc/QPORm+qII+EYs4CMW5afjlivmobWzDyMJsttImWGhpM+PvK8swuigTP1t+Nr7aegi7j9awlfevVszHE69/hR1Hq71cF0SQBuGj5+52T1i+zXjn3f9hy9bdyMvLQkqyDlWn6vDIAzcHBIS/ffANfv/uZtjdjoqZyRo8d+ci3Pvip8hI1qIwO9Unc1K1bz1YhbuXzcGOg1VYufmgy3M/AkCQcUBaSlK/cSAjQGhsDX4WA8fx4HnCBZfhgHbQUOCkgJcECFF8G3vOSgKEnmU06FL4ToSdHg/9eSLs606K546KQAEUA8VUDBZnUckbcUV3gBBDYcYCEBZMH4mpowoYANx62RlQyWXM1r9lfwWa2skBj8f44bm48aIZzNxQfrIOcyeX4NG/r8aBk/U+q9QhOuCD392K9NSkLlLYsbMcf3n1XVxy4VnYXLYbM6eNx4Xnz2Uqde+LJsRfPPcuPth0vMMHgbzzn7nlQny77TA+3nCgi2MhPU8mkMduXID7XlqJyoZWV5YRAEL/O6zJyc5iCP24qW4GoAQIMXw7u2YtAUJcxZ34hUmhp8Prw17vqAgwy0cWYLmz3gMJEOQCj+XnTkZJQQazaa8uO4TGVgMuP2s86pr1ePPzbWg3W5GmVePGi6djSGYKm9DX7TqOD7/b62O7JwkpOAde/vkSzJkyqssKnDz3v/hyI46fOIXUVB2WXHoONGpVlwHR3GbANQ/9HQdrKcxzZ2/NHjcU1184Da9/thVbD1WxQEd0kUkgPyMZP140C/XNevzl482w2t0Hi0UACJQn7dpQyF2BmHo7XsIb8Z2pPY6N1E6Xo2EULgkQoiDE0LOQACF0WUkpuwN7r8DT7IM0CJz9ejMg/FdTkR27FFkNBhIg0AdMrZAxOCDtAMGAZ4L0ROHzHBJEE7FKIWN+B57JuasERUwp0uHlX12P9JTOvfyedCwOgcPp48TnnQfd++t/vsFzH5bB5hcsicDkolmjsGz+RGw/eArrdh5jIEDajXlTi3GoshEvfbiJbevruCIEhMhGRgI8JQFCXDtJAoS4intwFibtrOhf/T6QACEWkhXgxPXnjsOd1yzoNsSyf9nk/b9p5yH85HfvwegMfMYBfXCLslNYPITpowsg53m224J8DvYcq+3UHHQQieewptCdFGMhk36TpyiCHWoWpRWItM2x+56VAKHfjPzBWREJHuLf7x5AaF5TgdyqZNTvqI5bJYYvH48Zvzw3qrsYYlF5Je/E+dOG4e5rFyA/K62Ln4F3mTTJtOlN+M8XW1gQpDYb6YOCK/bpDmkTeArWwLniC1CwI784T64iJA2CT/dyDBCiZK6IxcAZYHlKoZYHWIcmcnOCOUdSmyQHyej1rAcQNrz8BeoP1qC9rT16mfeQ07nXX4Abnril3wMCNYM0CbnJcpw1eTjGl+RjSG4GBI5jQXzoogOWKJLh3sNV2Lz/JPZVtMDipOk/ilZ/BgjlyDC7NAjsHek8Ezz0fhPJFyEqboKhlxntlBS3gXNGTXsQ7eoNxPx6AoRYtjlU7U7gOnBwcgJMQjIIKcPVOA3YQEmx7LC+zFtyjoye9AkQfrhoAt7717swGciRLn7XmWefhWtXXJsQgNAhFTpZkHdCIXAUPwq0LY+malr125wcrE76Lcpg4ClcdEJoPIAs82E3INA0z4NCTod8UfAi0cEmV+mSJBCOBBIVEOy8Cod1Z6AueSwcvCv8dziXBAjhSKsfp+0SAKpjmdWPK93HVSNAuP2qWa5ANAH12rGrYEZGBkaMGNE7QNBNBZJ9IxHGrsZ9nLPohKzxADLdgOAa3hRMiIfo1mR0W0MJDvq4AxO7+EQFhCbFUGwuuhZ2ZUpEHSABQkRiS7yHJB+Hrn1GgHDtwlI8/tRjsNt9TwKMdQ8vvvQy3Hv3vZEDAnjUJ02AM7Uouqr8WDc80vydNiga9iLdetInBwJjpyh0DwkiB160S5qDSGUvPce2ySYnJ7NDueJ99WbxUq8swZbiG+DkAx+o1lNbJEDoSUID/D6ZLLx9HgaTj4PHB6Hs+BqMnDwUfDRt5j2Mm2EZYzBz5NyIAYGytwg6NKuGAzJ6+cNTHSbUsBadkNvakGo+BkEMDHKkTXCZN7perjvSfuOE6vN+VtlEBYQGZQk2S4DQz0ZTAldnMIWe9gDCjqqNELNbcbhuX0Q9p5SpoJApwXMUg8AGk80Ih+hAQdowpGoycKB6JxxOX4/zeaWX4Nozb+8VILjU7AJzQkrUgBsOOqMhmB8BOeO5gzRzoj3xnQsjGl3SQ/1BAoMXEO54xd9pvj/0h1SHfiaBLkdre9cv0RZn7oWmknOFWt5ZtRH2rGYcrN0dltQJDKYXz8Xs0vNQlDECKrkKTYZG7D65GSt3/huXTLkGM0vOxi/+dQPazL5HKp9Tuhgrzrqz14AQVoX7YWICBDGY45TIQQbSGCTaAOuHgpaq1CsJDFpAWOoHCF1eRend7NXAGgwPu0+o72xqfxkzAcMzd/5RyRuw7OzIAEEj12LJ9BuwcNJSNBsbUdFwBBa7CRm6HAzPGoWqpuMwmNtQnDMG97y1HK3mJp+hIAGCSxwSIAyGL0Tit1EChBD60OUp33kNJnt1COKRkgSQQDSdIwMdzkRFRuo7ECkg8OBx7vglWDH3DhyrO4gXVz+Gen01O3lPq9Th9JJzce2Zt4E0DEarAXe/eZUECEHeDgkQpM9GIkhgIANCd4fWcv4ahN52lv8OYwkieivRgfm8/7ZM/1ZGOumHI61IASFZlYZHL/8/5lfw1Id3odnUyIpN12Th7guehFqhQaYuF2qlFgZLuwQI3XSKBAjhjFgpbV9JYCACgpIDclQC8rUC2q0i9rXTdm9fCUcdELrrQEkD0VfDWyo3kAQiBYSJhTNx1wVP4NNt7+CDra91ZJ2mzsBtCx+FVqVjfyMy15va8Kf//QoGq2+URsnE4BJbt4BAURyZc2J/sVlJ79FglcBAAoQZmQqsmJaKdI0MIzLl+OaQHp/u12NTnQV296s2WidDu01EXAHBf3AFeu0lE8ZgfQXj3+5IAeHM0vNx49k/wytfPY2NR77sqDgF8SWzgu+WQxEWu9lvMykgAUJogMDOYAgQxIrjItu66Dp6OUbRHuM2hCnUsgRNcRM3i+rNQafT9UkchHDb6R03oUE5AltKOuMgkD/wUBWPdKWAgmQZ7pyXiWe+aMD+ZivabU602EVkynk8tSALZpuzbwGhp4ZLDpM9SUi63xsJRAoIU4pOx+3nP46Ptr6Fj7e9GdH6VgKEEAEhWAfTFkgWNjn0iTKkoEq9GVBxfJaj0NNwxLHEwV1UogJCvXIEyrwAIVnG4eYpKchPlSNNLeCc0Un4bE879BYn1hw14H/HjfjJxBQsHJuEnGRZ/waEnoak5O/Qk4Sk+91JIFJASNdm4pHLXoLBqsdvP7wHbRbfLYykSaCru62hEiD0EhDcEuadzpAiJJISgqbUkMIyJ8JrE+XjnhOhyX1Zx4ECCB4ZKjgO141JwjUzU3D521VotrlAm75cap7DlAwFnrgoO7EBobsBI/k79OXrlBhlRwoIAsfjoslX46ozbsb+UzvxwqpH0GKkbYx0mJGcbXN0OB042lAOUQx8MJAECNEABGYvAE9miG4OYCKTAjvYKZQzGxJj6AIiBwE2yT8jTv01kABBI3BYOFSNX5yXhUc/q8XnVeYuzonDNTxeWZo/cAGhp3EjaR96ktDAvx8pIJBkaDvjtWf8FHPHXIDatlM4VncAZpsZQ9KHYWjmCFS3VOKZj+9Fs6khoCAlQIgSIHikKwb3SWAhmMM8xa7fj34JEOLaRQMJEPJVApaP02FHtRlrq81wKw985Jkh53HHzNTBCwj+o8vfkun/eximzrgOXKmwyCXQG0CgUjWKJJw+4hycPe5i5KUUunYtmNuwq6IMn+94F9VtFSw2QqBLAoQoA0LkwyAxn5QAIa79NpAAgb5TSp6DxRncCEppSNPQp7sY4trDvSxMcpjspQD74eO9BQRqEsVrUMk10KlSIRPkaDE1wWozwebs/nRICRAkQOjVKyEBQq/EF+7DAwkQwmm7BAjhSCtIWgkeoiDEPsgiGoAQSrXp4yJwMhZYycPsEiBIgBDK2AmaRgKEXokv3IclQAhXYlL6kCUg+TuELKq4JgwXEJIUOqgVWsjlatS1VsHutAatr1ahc8dEAIakD8eFk6/Efza/iiP1+xkkSIAgAUKvBrsECL0SX7gPS4AQrsSk9FGTgAQQURNlWBmFAwj0gThv3BJMKJqJoowSPPnRnahrOxWwPAWvxKJp16E4ZxQ4jkdB2lB2FPSfVz2O8podEiB4Sa2nSIphdehgSiwBQlx7e9ACwrKeTnOMazdIhXkk4G22kBwmYzMuwgEEnuNx+YwfIi9tCEblTcLTH90Dq5O2mQFzRi2ETFC4KymipqUSmw9/DbvTjixdLu658Cl8sfsjrN7znw6nRUmDIGkQejWqJUDolfjCfXggAoJOcGB8agMmZp9CuqbdHb3FJZlmkxb7GvLB+QNCT4ILPW5ZTzlJ9yOVQI990GOCSEseWM+FAwgKQYX7LvkdjtTsY1sb15evRn76ULy+5k8YmTueOSjSRWFOG9trcKB6J1QKDS6b/gMMyxqJ5z5/GG3mzoBKvQUEQRAwffp0qFQqbNiwASUlJSgsLMS6detgNpvD7igKIztv3jxoNBrWhoqKCmzcuJH9HM4ll8tB/6gOVD+ZTIbNmzfD4Qgc9U/SIIQjXa+0EiBEKLjIHhtogKARHFg6rBy3nf4flGZtg0bR6AMIJls6jjRODB8QAok3vE9IZB0kPRW6BCSnydBkFSogUGTECYUzcPXsW/HO+pdx24Jfob6tFv/a9DJ2V5T5HYLuKjsnuQDLz7gFCkGBf218GRWNRyF67ZWNBiAsW7YMV199NR588EHcdNNNsNlsePTRR5GUlMTixtMkTxNzZmYmGhsbkZaWBqPRCJ7nkZGRAafTiRMnTrA0xcXFeOGFF1BeXo6qqir2/+3bt0Ov17P2qNVqGAwGpKenQ6lUsvyampoYAOTn57M86G+XXnop5s+fj9/+9rc4++yzoVAo8Prrr0Or1SIrKwu1tbVobW1l5VM9OUGByuoamEwmpKaksL/X1tVDr28PG05C6/UBkooAQbSBzqSQrthLoKfDmsIF6djX2FVCg7IEm4s7z2LwlDs5pQlvXvYHjMv9DDxnCVgdEQpwy+58uXOEsUNMon9JQzj6Mo00RynCZKfkwgEE2saoUyWjrq0aeamFaDY2Qm9pDTqJaeRaZOryUN9+CiabsUt39RYQGITk5LBJnSZumqSffvppJCcnY8WKFay8ffv2YeXKlfjpT3+K5557Drfddhu+/fZbZGdn48wzz8SePXvw61//mkEAaSCef/55vPHGG2zF397ejt/85jdYv349m+QnT57MtBPXXXcdm8zp3wMPPIAFCxZg0aJFDBC+++47TJw4kWkyPvroI1YOXfTzPffcA9J62O12PPzwwyyfqVOnwmK1orLyFP7w3PN44tGHkaTVoqa2Fvf/6mEGEtIVRAIUalkkrUzXOBs0mUlXdCUw0ABh2bByvH3lzZALtRQAFmKbHLC5xw0vA6czA3KnHyCEIlMJIkKRUsKmGUwOk6ECQiw6MxqAQJoAmqB/+ctfMnPAH/7wBzzzzDNoaWnBJ598gvvuuw/vvfceFi9ezFb09957L7744gvk5uYiLy+PPdfQ4Ir0SIDw0ksvMVggzcBbb72Fm2++Gd988w3TGJC54Ouvv8YVV1yBZ599FnfddRfTDFx77bVYu3Yt9u7dy7QElJaAgaCEAII0DKQ1GDt2LAOQxx57jOVNcECrrm3bt2P5Vcvx7Asv4t6778CJkxX4+ps1+PCTTxmESFdgCXB0BgU7rKnr8ksChOiPmoEGCDeUbsNrS69xCcokh+HZIbAfdMtNCajm26FYWBsBIPQkewkgepJQQt8fSACR6IBAA6mgoACvvPIK/vznP7MV/osvvshU/QQI999/P95++21ceeWVLM0Pf/hDrFq1igECmQoIIMjk4AEE0jL86U9/YvmQ1oCAYceOHWzlTxM8AcLSpUuZGePxxx9nE/3y5cuxZs0abNu2jQECmTaWLFmCO++8k+VP/gh1dXUYPXo0AwvSWBBYzJgxgwHApk2b8JNbbsEf//Q85sw+nflAjB0zBvfcex8OHjqccO9KrNbuPjHvRArQFRgOSGASIER/2Aw4QBi1Da9d7gYEvRKtd+bDeqDz686n8dBcFIkGIRqylyAiGlLsF3l0F6I6nubRYEOquw+2ijdg6VnDsLNqI+xZzThYuztuMo2GBoEqS2YGmtT/8pe/MGdF0hbQpE3+Bbt27WKT8c9//nOWjibf999/n/kCkK2fVvOeVXpRUREzUdAqn7QRpJ0gLcCcOXOYFqCyspJpCmjyf+qpp5h24K9//StGjRqFhQsXMhMDmTMOHz6MO+64g0EDlUP5/O9//8Mtt9zCQIPKe/LJJ5nmwWq1oqysDDfeeCOrP/2ffB3a2trw8MOPoKamOm79kQgFhWrnlgAh+r054AHhjjxYD/h+zYU0PgYahEj7JgbQIPk+RNoZ0XkuoPx70ylBZvtIV22kQUh0QKAJmJz9aOIlJ0WazFNSUtjKnUwNFoulY2VPaWh3AT1DHzzSHngmHf98aASQuSA1NZVN/vQcTei0a4KeI9jwwAU5P1I+5DNAYELaCfI1oGeoHPo/1ZGeIRMG/SMQoIvSUZ7kR+FJQ/4P9HuoE2J0Rmv/zyVUeUiAEP2+HIyAwLRRPjB5NL4AACAASURBVE6K0ZdrdHOUICK68uzj3AIdY0STfaQTfrjN8QDCDtIgZDTiYO2ecLOIOP05o5bg+rPvZKtq74s+RDQRHD9+nO1MoAlUuiQJkAQkQOi7cSABQt/JPnolSwARPVkOgpw8gLDuwGocqNiJmpqquLV6yTnX4N4bH5IAIW4ST/yCJEDouz4cvIBw18vBz3zsu/6IXckSRMROtgmWMwHC8nNH4pEnH0JTSyNTj8fruuaKa/DQA49KgBAvgQ+AciRA6LtOHHSAwHHgtEngrrjr5S6x0gKZiePpcNZ3w8BdcpQhojdm9z6XxQCuAAHCrctmMjt9qB/faImDgheVlpZKgBAtgQ6CfEIdo5IPQvQHw6AAhHIO8lGjoZhxGjiFEvJJU1yAEIo4o+5wFkqh/SVNlIGB2RP7S9sGcT0IEG68ZCJWf/ll3G3906dNx+JLF/UKEMgRkbQe9PEiJ0OaQOif53dPeGPPvUBp6R5dHu2JJy09S/4RlJf3c/SzpwzPPfrd40vhn5Z+9y4j1LpS+Z72DOIh6tN0CRD6biQMDkAAhNx8aK+4GkJ2DpCSGjoghNI1EkSEIqXQ00gQEbqsIknp8UFYtXsfxkyZAjqQKV5XaW425o4bEzEg0IQ8ZcoUFoSIdgGQRoJ2GZD3P0VTpN8p1DLtIKCfSUtSXV3NfqZdDrTjgCZh2opIF8Uq8HwEaZcC5UsxFmhnAd0jGKH4CbQFkeIs0N9pl0NzczPbzUCRHKlO9DvVh6Io0nO0k4LKIFCg3z33qD60m4HqSv8ovDPVn7Zf0m4MctKktlA66ZIk0NcSiCYgUF7x0vLUyYuxufh6OHmljwhv8I+DQNscywH50GIk3XM/eLUG9mOHowsIoXRiQM/1wTATSlqIUIZHXNN4AKGsshq2vAIcqXdFFYzHde7IYvxg9mk9AgJNlnTF64MSj7ZLZQwuCQwEzUdPgBBOj8YbEDYNXxEaIBwAOLUGsqJCJN18O0SjKf6AEIog/c8LYB9ICSJCEV2XNINBbBEJhvb5u+MgbK2shiE7F/tqaiPNqstzaRo19BYrbEFOMbxg1Ej85KzZEiBETeJSRv1VAhIg+PZM/wUEEUJWNpLvfxj8sGI4yvf2T0AINNADTXT+f5MgIvxPxGAGiEgBQcbzoH902ZxOOLx2PwgcB51KhV9fcj4O1tXjtY1bGCj4XxIghD9WpScSUwISICQIIJSD+R6o5p8H2chRkI0cnTiAEMqrEdJkF1KiUErrx2miaM4YyOKKFBAWjBmFM0cUswFwoqkJ75Rtg8Fqg1oux5LJEzAhPw9j83Mh8Dw+27UXr27YDKufJkEChH78/khVi6oEJEBIEEA4xEM5dQZkxSWwHzsK28H9AwsQQh3VXSa9gTwLklCiCAwsu1AF3c/T0VkMl581DOGaGK6ZMQ2XTBrHtAhqhQL/2rIN/925C4snjscV06fC7nSwv1NEyG0nK/HEytUwun0JPCKRAKGfDw6pelGTgAQICQIIfmcxUK1D3uYYtdGSIBkNpFMLQxJ5FCGirwEi1FDNBAiXRQAIpClQy2VI12pw33nnYG91Dera2nDVzGmoa9Pjua/W4O7zzob+/5+D8LvV36CqpaULVEmAENKolBINAAlIgCABwgAYxuE3YdDtyIgzRIQ60Yffc64nIgUE7/LSNWrMLSnGDbNnoc1sxq8/W40jDY2YPXwYyuvqUK83BNS4SIAQaa9JzyWaBCRAkAAh0cZs3OorQUTcRB24oG48V1WcMSINgqcg8jE4Y9hQ3HnuWTDb7XhrQxmMNis2n6jArXPPwHeHj+H7isqAURolQOjjcSEVHzcJSIAgAULcBttAKGhQ78iIVAsRgy0qSs4YkQ/CiKxMFGdmIEWtwhXTpsApinjp2+8wc3gRphQV4tPde3HxhHEsONCfv12HTcdPdoEECRAGwpsstSEUCUiA0N8BQYHWe/Jh2+ddTxGiU/JBCGV890maQRWVkqAhBgDQU8dFCgg3nj4TiyZPAG1ppN0JL3y9FuuPHsesYUW47ewzoVUpoaAwxQAOVNfigY8+g8Hqu9UxeoDAQQxwQDaHyA6ecuUVa+NOTz0j3U90CXiPPwkQ+h8grBi5A68tux48rICVh+WjAthP0NZtDnBycNYD9hMiuCvvDuEsBnHgeK4n+ovny3hd+6UP5tmEFWmkgDC1cAgmDcln7T5UV4+Nx06wWAgEDFMKh2BaUSHOGzsKPAf87btN+HzfAaZl8L6iAQh2Tol2VQEsgg68Gwhogpc7TEiyVELhNIe158TByWGQZ8OsSE/YPpUq3tcSoDNBnEiy1kJjawCBggQI/Q8Qzs8/jveW340k5QFX5ewCAwN2iRzEFjUcRzQhAkIYY67L0ZBhPCsljY0EBt2OjBDFGCkg9JS9QibDIxcuwLflh/H1ocM+gZQ8z3oDAn1A6RwCirCmUChYEjqL4Kabbgp6iJTI8WjQlMKeUgKOF3yrJDoh6uuR3r4PSqc+JEhwcDK0qIphTR0BTpD11ETpviSBbiQgApZ2pDTthNrRPCAk1VOo5VAhyCOMWIZO965LnaIEZSU3dAm1PFxjwPML3sYFo/8GgW8P3EdOLvqAEPJokLQSIYsqHgkHI0TEChCov1RyOax2exfNgT8g0EmHR44cYYca0UeDDjYqLCzEiRMnugUEJ8ejRjcVfLJLk9H1EsHpa5Havh9KR/eQ4ISAJvUI2NKKwfHyeAw3qYyBLgGnA4qGPUi3nhgQLQ0FEMKBhHgBQr1yREBAkHMizsiowANn/h4Tiw5Dp2gDz9tABksBImS8ERzn7ENACHXYSCARqqSinm4gO1OS24MKkTkpRkPQHg0CHca0e/dudrIifTTo1MQJEyaw0w170iDU6qYByXnBq0NHPxtqodMfhsrRdZVA/UtmhTZlIWypxeAECQ6i0bcBYY30OKRepaOx3aeGOiGyLbDU7653LXzfD46O+Kan/fJ11cGdLxdBvpSrSDk4wYFnNaP6sh9IBc2y7yZfpwOqxt1ItZyMjUjjnOtAAwQSXwbXhqvHPo+Rw9uQJLdD4FzLRIEDRqY2YULGIXBXefkg9HWAm171uQQSvRJfpA+HNGZCShRBDcL/7nUUQo8qEdk2x3SNBoVpqWjUGzAkLQVWhxO7TlVDJZMhRaWCQsZDTmp6UYTeakV1W3vQXQxkWti1axe7Tx8h0ihMmjQJp06d6hkQkqcBum4AgVpLE4jNAM5O/gi+F5sAyDyhTAb8zRQRdIf0SBcJQ8E5MDQrCaePK0KaTgOHww6V0nX0rtlKKzYOdS16rN99AjVtFthFP3NREKHK4EBeqgqnjy1ETnoS2zGjpnw5wMqidnJoNVqwac8JHK/TwyK6HdB66CTyZcnUCJg+ugDF+enMyUmlkLN87XYHgwKT2Yay8gocqGiCycEHdJIFA4RdSLVUDIhhMRABIYlrxxWlLyBviLkLmurkNszKqfMFhEA9Gatve7xGjeQTES9JBy8n4h0ZPQBAL/iAVZY0CEvCjKRIZc4fNRKXThqPRoMRJVmZbHL/eOceNBuMuOa06czmTxM9fVzr2/V4fOWqLgc2eTQIMQeEvu/+QVkDWmPnJHH48aLTcfFZU5CSpIEguA748r9o4m1qNeDNT9bj/XV7UW/obgeKiGS5iOXzJ+Cai85AVnoy5LLAUEGOs+0GEz75djv+vrIMFU0WIsKg/aGRiVg4bRh+fNlcFOVlQklgEOCi8W4wWbBh5yG8+O4a7K/Wwwm/fCVA6Hbc97WJgSrnAYTcAnMXZRB953QKW8+AEM7bndAwIWkgwunqAZE2UkCYU1KMK2dMgVIQoJTLYXc6cai2DusOHsGPzzoDVrsDWnI25MBCL//q488kQBgQIybERogihqXJ8fID16C4MKdbTbx3jrTT5atNe/Do31ahNiAkiEiRO/HMbZfg7BljgwJHFz2GKGLf4Qrc+Yf3cLzZHtA0QHBw52WzcN3Fc6BQhO6kWt/Uhp8/+x6+K6/3hQ8JEBIaEKjybMOzt4khxOEflWQJCxMSSESl//tDJpEAAtV77ohiXD1jKlI0apisdjYBWB12PPW/L/GLBeewEx7H5uVBIROw5fhJ/N/a72C22X2a3J80CDzPwelM2DeyPwwlnzqkKkU8f9cSnDGlNOy6kang359vxq/f/BpW+K7gVbwT9y+fg2sumg3qs3Au0qRu3HkQd/zpA7RYfFf7vOjA0tnFeOzWpUG1Ed2VdeJUPVY88hqqvN1cJEBIeEBgkNBXgBDq4E7Yz5YEEqF2cZ+lixQQlk2diMWTJrITG5sMBnasM63+3ti4BT+cfRqajEamXZAJAtYdOoL3tu+MCyBolHJoVHKITpc/g0zgMXZYDnLTdfjvur2w2R1QyGWQCRzMNgfStCpmax5VlIWXP9oMB3OiAwqzUzBjzBD8+5vdUMllMFltDCDUChmGZCbjaE0zHHEACqVMhnHDsrHvZB3MVl/ACnXQFGalQCEXcKy6OeiOklDzCiUdJzpxxZwReOSWxaDtrv4XydFoNEEul0GpdG1p9b/a9Cb89Lf/wIZDTR2rfTJZnDYiAy89cC2SNKqAzxmNZuawqFGrA2otrDY7fvf6Srz+1T4ygnXkUZSqwFuPr0BBduD4F2aLFXabDRqNJiCYUJs+/OZ73PfKFwDnNndIgCABQigvTDzTJCRMSCARzyHiU1akgHDhuDE4u3QEm2yPNzQiKykJBosV736/A5lJWozLy0FBWip4jkNlcwv+u2M3Go3GmGsQrlswBQtnjkJzuxH1LQaMHJKJQ5UNOF7ThP98uwejCrNw6ZyxGJqbhg/W7Ma8qSMYNOw8fAqryg7iglmjYLU7UVXXgh9ePBP3vbQStyw5HS9/tAl1LQZMGJaDX/94Ia5+7B0YLeQI1/1FkELrXFrtElB4toEJ7tUvTSweW6wrDQXV6cyTYOSv9y3FLX/4AMdrWxjw0H1Kx9bPlD8F4SQPe+bI3/ULcOflZyBVp8Hv/7WGQYYHbKhvqB52B/PNd02o7neR7Spw5yWTuXxJKJ3nctXfVV//SyM48dwdl2DerHFd7tntdnyztgyrvlyP2bOmYNHFZ0MQuvoPUNnvrd6CB1/7psO2L8CJOxdPx61XndslX0q/c/dB/Pfjr6DTaXHHLcs74mn4J9686wh+8Jt3YXU7QxJ4XDpjKJ6++woGut4XieBUdR3+/f4qVNc04IF7b0RaWkrATq+oacTS+19Bo0UChJ7eC9fQDU8DFEqenjTe70GwbY6UtjsfBE9e/V6DEI5gAqVNSGighkjg0Nuu7/H5SAGBwijLeJ695CyColuDYLKRVzrYypGiKtJFmgWLwxGXXQw3nD8VM8YUQm+yQOAEpGiVONXYDovdjufeXc9Wlz+97HRm+nj106144scL0dRmxBNvfoU2oxW3LzkdqToVjp1qxqVzx+GF/6zHtQum4uFXV6G6SY9JxXl45tYLseiXb8DiZzLxFzaVfd70UshlPNNgEIAcqWzEnInDMDw3DbzA4+vvj2BYbhqSNQrkZiTjeG0zvth6CFqVAnMnDkdpYSaWzJ2A65/8N6vXGeOHwmq14/MtB5GbnozRQzMhkwkMxKrq2/D5lvIumo17rzwTI4dkYfuhKhjMVvxnzR6o5AIuPG00stOSsP94HdbuPIaLzxiNbQerYLDYMXP0EFYPKn/+1BJYrHZ8s/0o9p+sw/DcdMybWgK5wGPVloM4VuMbCChL5cRHf7wV2enJXcafzWbHzt3l+PLbzSgeWoDLLj2X1T/QtXn3Ydz4m3dhcbq0EDqZEy/fvwwzJ5R0SU6gtW//EewrP4JDh0/i3juvD6qdqKlvweX3v4xao2t8yjgH7r5sFm5eNj8geFRU1uL4iUr86z+r8PhDP0VmRmBAsFhtuPj2P+JYq3vikzQI3X5/EgcQ7gkh1HIHmvT4zU3oBIkIE9IujciHXKSAEHmJnU/GwgfBAwhNbSbYHQ5MKslDs96Mb7YdxscbDkCrkuPRH5yLZ/65Bqca2nD3lWeidEgm1u85gTc+/x7nTR2BmeOKkJGiwfjiXHy19TDow//6yu9R12rA1JH5ePTGBVj28D8YIKQkqaBTK1FZ39pFJMPz0vHWQ1diw+4ToL36NMGazFb86oZz8NQbX+OHi2bi3S924uI5Y1CUm4a/f1qGW5acgRue/BcuOn00zp5Swlb9T99yER58ZRUeWDEP73+7m03a2Wk6VNW3YubYQjbJHzhRj8xULS6+/7Uupoj7lp+Fi84YjXe+2IFrFk7FXc9+hIWzSjFmWA7e/Won7rlqLh766+d4/Kbz8dy/16Ku1YifXTkXtz/7EX5/28U4Ud2Et7/YjqqGNqZpePX+pdhztAbUvuM1jXjyH9/CanN0tD9b7cTnL9yB5CRNwGFCPgb/98q7yM5K6xYQDhw7hasefB16hwsQMtTA249djxFFOQHzpVXj2g3bsH7DNvzsjuCAQOaLJT/7M060ur52tA3zyZvOw5L5tPsm8FVT24Bf//YVPPbgbUEBgTRRi+96FuUNZAqieP7SNsfuvhMJAwjL73k5+nNMIs60YX71E66JkkaiSw8PNEC48YJpmD1xGNMgbNlfhYtPH4MjVQ34vrwSZQeqkKSW4/EfLcT1T77LVOq/um4e3l+zG5V1bcxH4qeXn4EP1+5Buk6DH10yE7f96UP88KIZ2HW0Bt9uP4pppUPwqxXzsPyxd5jKnYCEJsoHX13dFRBy0/HH2y/CA6+sQkVtC9Os3H3FHAzJTcOjf1uNZ267CO9+uRMLZo7EwYp6fLB2L956aDnufv5j/Pzas7Dm+yP48vsj+PsvlzETx02LTsOKx9/BsLxU5sVftu8k9GYrZowuxKufbsZtl83Ggp/9rQsgkAaBIOL3/1qLdx65Gk+++RVuXzoH63Yew+srt+Lln1+GNduP4PJ5E/Hsu2vR3G7Bncvm4Obff4CCDB0euG4elEoZnnl7DRpbjXjtwStxsroJDocT3x+swv/9d5OPf0mmyonPn78Dqcm9A4Rt+47h+ifegcmtQUiRi/j7r67CpNFDewUI9c1tuPzel3DK4NYgwIn7rzodP1h8Vq8AgSDpwluexnE9aUQGJyCEOYXEJXmwUMtUeEgmBgKEcGsa9gM9FRD1DHsqML73E6150SfG+Mo71NIGEiDQhL9iwVQ2ie85VoN/frUDD143nwXg+WzzAea4WJCRjKduPh/Pvfcd8jJ1OH/maDz418/RYrRAp1HigWvn4bMN+5GiVeHqBVPwwCufY8XCqdi8/yRWlx1mq/ff3HwBHnplFUoK0tmk+tu3vsGBivqAgPC72y7EA3/5HAerGpgZ5rqFU3DVuZOx/UAVzpwyHM+/ux5nThyKPcfq8OnG/fjHQ8txx7Mf4oYLpkGjVkAAj4kj8/GzFz7G/dfOYyr9koIM6NQK1DS2Q+Q4zBxTiL9+vAl3LjszKCCQDwK1mQDhiTe+ZA6YU0oL8NG6vfjxpafjFy99hgdXnIPvD1YybcawnDT84DfvYXRRFtO0kB9GQ4sBL3ywAX++61Js3ncCm/dWsG2Gm/ZX+Pgn6OQO/OW+KzArgCmAVvktLe147a2PkZGRjEUXnYXUlOSA9uhPvt2Ge19aBYfb6Y9MAfdfORs/WDw34PBu1xuwfsN2bNm6Bz/50TJkZKZ18SmgB3ccOPH/2LsO8KiKrv1ub9n0HiCNFEpoofdepQk2UAQEwYp++okKiuJnwd7FrghiAUGRKr0X6TVAQhLSSc/2dv9/JoUku0n27m6WhNz5n//5JDtz5syZufe897TBA0tXVQEPUh/xvn5tsfTxKTb50On0SM/IwQefrsR/F8xEq1aBEIus6yPkFpRg8jOfI0/XMmMQaN0TFo1YktzRbkiicCTS+i6GRgUIbBbmcuXocoJsVtO4fZvb0po7kLidAAJ94KUiWqCJfN3f0SceQxKj8f3G4zh6qbyaHQmu698xAl1iQqmV4eD5NGqeJ+eOKN3n7x+ColINyjQ6Wj2PVMyLjwzCX/svYPepFJoNMKp7LCJDfFCk1uL4pUxcSr9hMzvASy5Bv44ROHQ+DUXq8iqOAV5yatUgqaFkDhLrQFwDBaVqpOYUY2T3tth96hoCfRTolxCBEpWWfo3uOHGVxip0j2tF17bj+FUE+Soh5PMQ5OOB89dy0SkmBBqdEe3CA6pKFpeqdTh9NRsCIR9nruZgVI8Y/HspA2VaA0b2iIGPpwzJmQXYdyYVHcID0S02DEUqLa1jQeISCPhoHegNgYBHLQ6XMwoQHuiFgV0iYTEzuJCWh1PJ2TVSREklwlkjOuK5mWOt6hSQstonTl6CSqOlFhwvTw906RRnFaio0enx3Ae/Y8vpzJvll//fhTC0YzA+fu4+SGtlP5AYhHMXrqCwsITKRy6ToGvneMhkNbMdiNvpy9934YN1/1arWcAgJlCOla/Ngp+XR40XHAE01zNykJqeBb3eCJlUjNiYCAQG1Mx2IP22HTqHBR//DRNaHkCgwbgsgw6bD0B4ppoFwc0ayqXTuZRY4wIBttSb09KaCmgoj3KvX9IEIEwaGIED19KQabQgJSeH7dY43H9ij0Q8PXkCvcWxMUote5AvcB6fBuaRQk6VjbzHSDYAUSrVUxXJ32ViEYxmS5XCI38jAY3kb8THTEVaEf1Pxte+wtoeYdAXKb0/oP5WPZOgsifJdCi/zsD2aJLmKRHdTC0kL2FSbthWo9kPvJr1H0iwI6FdnTqxfJC/VK8TQfqRVtf6Qz2F+OzZu5AQ29oekVgp5X8OnqUZJCpTza9ShcCCt+aPwegBnRs62lbzkjVdTM7EQ/9biRvamg+GiGfBvHFd8MS0kTatDg0tIvtGER5fthqnr5fdLMLUgmIQbieAIBFIEeufCLGgHFzy7qsOEBo6CbV/b+gpZ0uvjv4un8blBF20UCfJNKtl1RMTYY9yd1JUdDgBCHcOjsK73/2ArMJCmBqIzHfFnJU0pk0Yj5efXtBoAMGVvHK02EmApA52a+OJd5++C62C/ez+uiSA48LVTDzz0Rok5xNgU1ORE7rhvmK8v2AqOsa0srtYEsFT6Tn5eOXLDdh/Kc/G3QkMlCIL3nt8IgYmxtWZWWFLCoXFKrzz4yasPZgMS2UNBIqeWk6Q4u0EEAR8EQLlrSDgi8vTf50CCGyeGzdqL5dO5VJibATWuH1v02WxEhoBCHOn9EBBQQG97MadLTQ0FJ06deIAgjuF7sa5SMGkmAAxXn98CjpEh9EKhXWZoYnVQmcwYP/xJLz27RZkq4nNwrb5i/w1QMbg5TljMKBbHORScb10STDlheRMLPnyL5zPUtO7Getqcp4eT97VH1OG94C3UlEPXWI9sSA9Ox9vfrsRu89lw8KvVRSKAwj1njZ3vW+cj0FwxoLQmA+cmzSYS6dxKbHGFC472rfpsqgFgQCEoqIitwOEkJAQeq1zY7kY2O0w17sxJEBUsUxgQbswJYYkxqNzfBsaxyEkN32i/HZEtVaHY+eu4eDZFCRlq6CzlBdhaqiR9MSYYA/07RSJPgnRkBL3Crn/A4DRZILRaMb55AzsPHoB5zPLoDER+0PDdEV8C8J9JTTeY1BiPHy9FBBWVIQkSo0AjqsZudh64CwuZhSjQFsHmOEAQrMHCAqxlxstCA2deGd+d6MGc+lULiXmjABdM7apLqeu1yK97nlwFE5+9xViwkLqvenONRK6SSW8Tz8kTrmbAwiuFmyTpMdAyGMgEgA8hgSLlscW0MqRIPd4kFwC+xR4zeUxEKCcLhhL+RXjlK6ZggGjmYGJllRuGBjUpksiL8T88pACUhSMNGI1ILQMhC7TAL8cQGi2AEHAEyJEGYF+4XeAN42lBaGpKgFW7wU3LcKl07iUGCtpubyzvUth+1pjyygBCCRIUbxvBwZJhLAU5LMl4XB/c//BkN413WGAYOHxkaPsBr5nqMM8cAM5CTSWBBgKEM7BR5/WWFO4lS5xD3l6elZZU6pPfjvFIJB1BShaoVerkUgtusAeINS3K/a++N26s2wmc9MCXDaNywixEdLt07cKIBzYhX55WTCcOGbf4vh8CPz8gQqTbp2DiEn2Rh6xJVt14d3zADyeXeQwQCCX7eQr2sPsHWHj+l5noRV3sOw7CFyvOiVg1EJZcBoKk3WNjOYotZYEEGimEo9cY290LUBgu/HN/jXkpgW4bBqXEWK7002zv6MAge/tA58ffgXP17/ehTHqMpQ98zgMF866HCAQgnq+B0qlbWARKaqsyMS0zONLwEiVQO3AsYa2gYS7G9XgGVQ0FZG1Zboh+tzvLUACPDAWE6S6AngaM0Cukr4dWksCCDWsI9OftVFquQkrkibMWsPPgRuYd9kULiPUsFhuVQ9HAQJP4QGv5xaDH0CK8tTdGI0GZR++DVNGeaGiGg+ekxaESlrEkkAqClZP3rfwhCiWhsPoHQWewPaVwrX5obUFVLnwVl2ExFzz5slbtT9NYV42j4GzdpumsF6X8MDjVQADNtJzycyNRqRFAwRHpGq19U30LDRRthoWuZsYd8k0LiHSsEhc0qPaW5wChAERELN0MfD4fPCDQsCrVpTHJm9mC8x5uWCMhkYDCHXJhICEQlkUjJ5R4AnrBwnl4CAHPmUXIbGoOMOBSw4aR+R2koCrAQIb2ZDskbqKgzVEJ18SjSNRTpRaJhaEhiZx1e81JnLbrOy4b6JsNbwINzDukikcIdJIn2aOAgTqYlixBjz/+i0IUKlQ8vQ8GM83jouhoUNBQEKRNBIGr0igLksCiUxX3ygHB2ZV+T3jDTS2ZWUbosf9zknAHRJgo2Rrn3EOILhjh+qYg7NGNKLwG37fOz25G6ZwmkdCoDbOEDtqQZDL4THnUcDbu36+tDpoVn4Hc3aW2y0IlRNaIIRK5AczX0qiE2rwQZLWiI9YbsyHA2ps8wAAIABJREFUiNGWxx3Y0TiAYIeQuC5NTgIcQKi5JXbd5uhOC4IrTwxnjXClNKvRsk9HODU5mykayXhA+XcYIAiEEMbEgSeR1CsHxmSGKfkKGJ21T9/ZLAb2G1CXJG/uhr0vUA4gsJc+N+LWS8De800/JmpdvsRZEG79/jU6B00dVLBRnI0uLHsnaJZMl5sTiIthYn/2MQh8H1/4/r4RPJ+at9pZiYy4GJ6YC8OZE7fMgmDvNpJ+9r5AOYDARqpc36YiAXvPNwcQbu4Y7/7/fll1fVlzfdc35gFsyqCi2e2Xswy72JzgKEAglgPZqLHgeXjVb0Ew6KHbsQWWoiIOIDTmQ8rR5iRghwQ4gFBTSHa5GChAcKRVjHJssCMTNo8xTRlQ0K/E5iFGt3DpKEAgBZKkfQeCp1TWz6dBD/2BfbCoyjiA4JYd5SbhJFC3BDiA4E6AUN9J5MCDTek0ZfDQEoGDowCBZjH8vA58H7/638fqMpQ8/SgMZ09xAIHTXJwEbrEEOIDQVACCoweBAxZWkqtS3E1Mgzcxdhw6cY4CBGJBkA0eDp6nZ4MuBv3uHbCUljYyQKjte3Fsd26+QOv35ZTHb7nY3+PQDnKD3CsBx86Ve3nkLAjVJeB0HYT7n6vmYmiu+88Bi6oz0ZRTRp09Xq5WSSSLwZEgRVe88FyRxUDu8jPwZTAJpDV8RwLGALFZDT7Ylbkl+2PiyWAQyDkA4IpNvs1okOdPZFFDZNE2y5VxFgRHLAjVAYIz2+7s29+ZuR0Zy4EK26Ciue2jI3tfMcZZgMATScBTyGEprghCFIrAl0gBkRCM2Qwew8Cisl18yHmAwEOJuBV0PnGwkDsXKtOyyP4xJghKrsNPlwwBY7RLQuQOh1JxMDSesYBIZuMCKLvIcJ1uZwkwDPhGDZRF5yA3Fza7lXIAwQGA8ICDAMFlesRlhNx0XjlgYR3o2Jz2sJoZggKEfuzTHMWJPSEdPgr8gCAIwiNhPH0S5pSrMKVcgWz6LAgCA8HcyIM5NQWqld/DnJ8PmGoqamcBAsPjI9ejK+AVZvPgW8wmiEquwUebDCFjXeq5+iACDlSiEKi8SW0HD8564KZXSbOchrGAV3AZQbrLzZJ9R5murw4Cocnn8x0l3eC4W1pq2VGA0OCq6ujgMl3iMkKOroTlOKZlZxA4FKBpw6fgSjcDAQgTHAAIog4d4fXq2+CFtQZjMAB6PfR/rIbx8iUol74DeHpRQMDcyIX53BmULltK72So3lwBEHKUieB5htR5EBmzEcKSVHhrUyCsw5JALnsqEwVA4x0PnqSBrAyWR75ldL95squfTdt/ZSuRciqNQdfWc2Q9mw1+iRWh8DICtUlsF9Os+xOAoFQqIRQKba6DbW0Qe/uzsXrYYuyGJApHIp24i2GGDQvCrdS9LpvbZYTccK5bOHhwg4RtTuEoQJAOGgb5jDkQdOoKlBTDcGA3zJnXAaMRsnkLwIjF4Om09N+6tatR9vmHgMnkcoCQ65kIKOsGCGRCxmwCT5sPoUljFVZISi1b+CJYpH7giUncAdfslQAPDKQCBn4eErQKUELEYyCTSelwo9EEo8WC7EI1cos10Bh5sNgd1MlAwmfgJROiTaAnFGI+JBUVO81mM8wWhtLMLFBBZWBggf1frkKeBQoxDxFBnvD3lENQ7avXbLGgoFSDa7ml0BgYGJk66DYxgGCvArVXIde1/w0BBHvPTWU/Z/mxdz7nAcLCiiBFFyhUF5Cwd91W/Vwyt0uIOLwEdgM5Vwc7edno7ShAEEZGw3PRaxB07Q5YzDCfOo6SF56GsG0cPN//HJDJYdy+CaIBQ6F+8xVo/lprdc+BKywI9gCEqmXXdc8Cl5HA+hyJeBbEByswb8pA9EyIglwqoTEb/Io4EKq0GEBnMCIlIw/Lf9uJA5fzoDM3oMwZC6L9JZg+ujtG9+0MpUJCTddVyqRiDw0mE/IKyvDlmp3YcSoNxfoG7GoMgxClABMHtMe0MX3gpZRBZONL2GgyoUSlxeqNh7Bu/wXklJkAXi2eOYDA+rzYGtD8AIIzy3aBYnUBCYdW4LJ5XUbIoWXYP4gDFlWycgQgkAdbMmQY5A88BH5Ya/AsDCwF+dDv3ApzRjoUzyyiQYo8gxHma8ngicUofXMJjFdq+mzdDhDsPyFcz3okIOZZcN+QeDw1bRSUHjK7ZGUwmrD2n2N495c9KDHYBgk8xoKB7QLxxuNTEOjnaXUXgK2JyFf//uNJWPzlBmSryINtAygwFkT4CPHxs/ciPjqsCsTUx7iFYZCUkoWn3v0FyYXGmiCBAwh27XlDnVoWQGhIGvX97gLF6gISDq3AJfO6hIhD7LMbdBu6QRwBCOQlLGzVGvygYFgyr8NcWgZhRAQFApb8G+B5esFSXAy+nx9M11IgCAikf7eU1ayFwAEEdsevKfQWwIKJvSLwyiOTy60GLJrRZMbqzYfx5qrdMEJUYyRxQHQIluO7V2fD14sEidrfCEjYe/wSnv34T5QYBVYDQxQMvlp0P+IjQ+0CHZUEiBUk6VoW5r6xEtmqasCDAwj2b049PZsNQHiw0sVQsZjmoq8ouy5g1gUkWB8Yl8zpEiKsWWc3oJFBRdVry8HIRTGjwXgHghTZCcF2b3cABGLxFgsFEAoE0OgNVrc5E5O4VCyEh1SMG6Xqqt+FAj4dp9HXyryg0do86gdvqAl4PKqQTBYS6eDeRniUiIQwmS0gitk1jUGkrwQrX5uFIL/67+Coa74SlQZPLluFA5cLa6SRekuAb56/B53jw6uyVdnwTCwU7/ywCSt2XIC5WkwCiTlY9vAIjB/U1aEoe7LPm/aewnNfboGRqQAfHEBgszV19m22AKGh1Tf8amiIght/d5JZJ4c7vFCXzOsSIg4voeGBNsBDDT3voNJveOKbPYgFYXxf9mmObOaoq29jAISOEUFoHxkErd5IFTlR/EG+Sqi0evy07SSkIiHCg33g7SHFtewihPkr0bdjOEL8lXhr5W54e8io8vdVyjB5YAe8/tMuxLcJwMX0G5RmsI8HRveMxeqdp6E31q14CfBIjAlFfHgAVu88QxW1u5pcIsLkAR2QEBWMi2l5WPXPKZeAFD4smDYoFkvmT7b5Ja7V6XDm3BV4KT0QGxNuUyGTr/Ld/17E/Pf+hBmVX/sMBsT44aslM23HBRhNuJiUAoPBiC6d4iEUWlsJiGyvpufi7kXfo9RY6cJgEOUnxtpl8226Qkjq3LW0TGRn5yOxa7uqAMva+1RapsHUhV8ihbgaSOMAgkuOcvMBCM+7LkjRHsk1db1VtQYnGXVyuD2itOrj9JxOE3CI7Vs26HYDCDNHJ6JvQjhK1TqkZhWhXUQgziZnQyQW4odNxxHb2g/TRnRFVIgvvtlwFHPG98LZlGys/uckUnKK8NC4HjCZGVxKzcXsO3ri+S8348UHhuDNn3Yiu1CFzlEhWPbYWEx+4UdoDTWzMqpvIomOnzasM8b0jsNTn26AVm+CSktqMTBQSMTwkIlRrNZBbzRR0GKyMBREyCRC6PQm+hXtpZBCIhaiqEwDncFMAY9SKqYKsliltWnFIOMGdorC/Em98NoP25FTqIJGZ6SGRhLYJ5OIYDCYqEWFgBixWEDnJbwRPCqViOApl0Ct1UOtN9awuCiEFnz81EQM6t7O6ryaTCb8snYLjv17Dp06xmHGtPEQiWynw13PLsCkhV+hxFCu6Inb4uExnfDMg2Otn2eGwd79x7HlnwM0ve6FZ2dDLrcd96DR6nHPwuW4mKeriEVgMCjOF9+8MtemVeLK1XT8tnYL0q7nYOlLjyI4yN/mc0hAzayXvsb+q6QYGI8DCHWkObJ9iTVVgMDj8RHm2RbF2jwYzHrwHqwECGxXaKu/GxSMG6ZwXhJOMunkcNb8Oz2f0wRYs+zYgFpWCRGpg9Dn9rEgzBzdDT3atUZBiYYqwzB/T6h0Rpy+komv/j4GYvZ/55Gx2H0qGVuPXsX/5o6El0KCl77dhqz8Mjw+uQ86RAWhsESDHu1bY9PhS+gcHYqFyzdRZds5OgTL5o/BxBdXUOVeVyMAYfrwLpgzvidK1DqYTGb89/ON9Mv7oycnwMwwSM0uwlsrd+LpewfiwJlr+PdiJj5+eiKe+GA9Ylr54/n7h6BIpcHhs+lY/tcRjOgeg4cn9IRAKMAnv+/H1mNXQILpqrdQf0+8NHMYOkYG48i5dHz912GM7dceDGPBym0n8dV/p2Dpd/9gcLdodI9vBaVCBq3egMffWw+hiI93Hx0HiUSEojItnvt8I4pVRNmWNx8xgzVvPYTwUGtFStjQ6XT4de1W8MDDtHvG1gkQSso0mPzMZ0gvLeddzDNj2bxRGD+4m01x6vV6HD91ETt2H8EzT8yoEyCQWIQpT3+EczmG8owKMLizdwTeeuoem3RJKmbejUK88c43WPz8PIQE2b54jACExZ+swe8Hk8tTKjkLgmPvnlqjmipA8JOH4J4OC6gFzGQxgTfzhZsWhFv+nm9kBhqZvEsODiXiBKNODHWIf6fnq07ADW6FykWSqYgF4Y4+ERDt34nErHRoT59wSAaODBLfNwN+zy6GwWDAmTNnQF7E5KVBHszOnTsjKysLc+fOBfk6tYnFSSXFWnUQKgEC+dIjX8hxbfypkjt/LQc/bz9Fv+SXPjQC//n0b6i1Bjw5tR9VaAwYfLr2ELrGBMNoZhAd6otJAzvijRU70TrACyevZiEjvxTdY8OweOYw3LPkZxC/d6foEMS19sfve85R/isbAQgPjOyK2Xf0wDMfb8BjU/pi08FL6BgdgsggHyz5fhuWPToOWw5fQt+ECOw8cRUHz6Thp5fvxQNLV6Nfpwg8NL4n3vxxB45eyqRyWfnyvbicfgMSkQhKmQhz3/0DulpWDGJxmD2mO3p3aIMPf92Hy5kFePbegbAwFnz111Gsee1+/OfjDRjbNx4JUSHUMvL+k+Ox8PONmDwogcZdvPr9dhjMZuj0RlQPtfASM/j99VmIah1Y53b/9PPfIKb7+gBCUamaAoSMihvARTwz/jd7OKaM6FEn3aPHz2Hb9gP4TwMAYep/PsJZAhAqdnVi99Z499lpddLNLyjGK69/jkUL6wcICz/4BeuPpnEAoZ5CSWzfAU0RIPB5fLT17YoQZThi/DrhasHZagCB7QptvrWc0m3Oc+C0tqqfhUYm7/z6nQAX7l5bffO5CydUAoTLX38G1eXLUJWVuGYP7KDS88GHMOnV110KEB6Z2Avj+7VHWk4xPl93CPMm9MLJK1nUYpBbqAL5wn597ijMfOt3yERCakFYtmoPsgpKIRYJ8ey9A/D7zjM0FoF8/T/2wXrMn9Abp5Ozsf34VXRpG4pXHxqBe5f8TJXpf6cNRHpOMb76+2iNFd90McTjqY//wqtzRmDfqWtIjGtFzfjE/P/+E+Nx4GwqOrcNxeHzqcgpKMPimcNx35JVKNMa0KtdG0we2BEanQHv/7oX3794N7YdvYwLqXnUhbL/XBrIV3Ptds+QThjQORIvLN+CMp0ei2cMpbz+ue88Pnt2Mp54bz11fQgEAny27hBWL7kPr3z3D+4a0om6GxZ/sxV6k5kq+uoGCqnAgmXzRmPcwC5OAYRrGbmY/Px3UJnKXQwktmHG0HgsfniSUwChTKXFXc8vx9X8ysBSBv1jfPHdqw/VGaBoD0AgMp798tc4cLWYczHc5gCBfCyEe7fD2NgH4SXzQ67qOnizXviyrhIqdrzm2Hdx62S12WtkLdjI5NkLuw4Q5yihZrE+FosjAOG+kQnY8Mcf0Gk0zhhuWMxa3rXvgP64Z9p0lwKEAQkRCPFTIjWnGKnZhXhu2iDsPJGMTUfKy+L6eEixZOYIpGQXUBBACvl8suYgtEYT9b2/NmckNf2TzIZeHdrgjz3n6Nc4Ua7EpB/qp8Sy+WNx6Fw6An3kIP7KD3/fjyJVzdv9BHwe7h6UgKHdY/ACiWOYMRR7T6VQ1wexQBy9cB0RIT54c8UujO4dS4EDARXBvh6Y9eZvSIxrTf+bABpPhRSLv96K6SO7oktMCM4m56CwVIP1+y/UyOkn7gYSS3DngA408PKV77dDpTNgYr/2mD6yC0pUenSMCsJj762j7gqegI9v/z6GbxdOxRs/7aTggLg1Dp5NRZlWT4Mbq2dxkFTEyb0i8eaCu2pUICRyJS6UQ4dP4+DR09Sd0adXZ/Tt1cXKzWCxMNi45ySe/XJrjSDF7pFe+OGVhyh4qt6IVeb02cs4eeoiLl9Nw6ABiejXpyuUHgqr83buSgbufXUldKabQYqtPIVY8/Zc+HtbX0t+PSMHJ05fwj87DmHY4F7o3q09WrcKtqJ7o7AUU5//GpmlxJLV9GIQWD94Dg6ovItBJKq5Rw6Sq2Fxc5SGPePYVlIMVkbg7g5PQMgXQ2tSlQMEeyZqqI9LiDQ0Cfm9kVPnGmShERfaiKQbXJZdHRxk0MFh9bLkCisDAQizJvaE0UgC0hqDy7qX4Ofnh5iYGJcChMpKfgIBH3cPTkCrQC/8tvMMruVU3DZZARJIZgJxPaTmFtPsBNJIzAKJ/s/IK0ZxWbnCJ4GBHSKDcTYlB2dScmiwm7+nAhHBPsgvVSOnQAWtwfZtkTKxCBKxAKVqPZQyCQ0SJF/mAV4KmiVBLBpFai1IPwI8yjR6GnhYpNZBLhbCz1MOpUyMtLwSlGr0EIsECPRWQCIUIq9ETUFA7/atq0oDlaj1+HTdQaq8icWAgAUCGkRCPkJ9ldTaoDda6LolIgHVdSSAkYAmYrEwmi3w9ZDC30uOErUBecUqqxiHYA8Bvls8DbERNctbk7OjUmmq+tMMEgUBUDVPKVG2s1/9ARdziXxv/iYTWPD5fyahf7c4qzEajbYqVZOMUHjULJFM9okEKL7wyRpsOpEBcvFWZSMVH5+Y1AMPTx0CkrpavZGsCK1OX/UnmVQCsbim8iOg6bs/duO9P47CXFl6uYnFINj13qroxOYZr7135N/e3t513sXAhg/Sl1io3NHYAoQQZSRGxz4AP1kQclUZrgMIzi7Wna9nN+uCm6Jp5EU2MnnntthVzLkCGVSshNRBmDwoFm+++U75A1vrhe7cgusfPWH8OCxY8IRLAUJj8svRBki1wy6tPfD1klnwVlp/xdcnI6KMP1r1D77fdg7m2uWLAUR68/HV4hmICAtgVdCIAJ8/d57Ai19vhYln/XWrFBqx/Ll70CMh2q4qipVrIODq6JlkPPrObyg1VcvI4ACCSx6FpggQiEUw0qsjOob0RoR3O1wuOAnerBedtCC46sXvArG7k5VbAjIacYGNSNoFO9s4JMSMFuP6hOPsuSzEx3ejX8zuamFhXujSOYIDCO4SuIvm4TFmdI/0xrIn70LrED+7lDkJTPzwp834ZW8SzDaUOGGNhIrGBojx+mN3IiG2tZUbwxb7BHT8suUwPlp7ECobVRQrx4QpeXh5zlgM7BZXZ3ZFdfokw2Hv8SQs/W4zMktrfelyAMElJ6kpAoTyhfEg4AvhKfFFqb4AvNlOAgSXKRaXEXJu/9zFxi0BGEQ0jbTARiLr3GZWG21L9YsqAMLFS3mQSFshPT3fzvl48PaSIayVX52ggrEwyMktQUFBmU33Rc8ekbhzcg8OINgp8abUjVgS2vhKMLJHW0wY3I1WViTma5KBQh+xiodbqzNg0/7T+PvgeVzOVsFoqf+yJgIS/OUCDO0ajklDEhHVqjxj4iZwLfevGkxm7DtxCX/uOYsTKfnQN0CX0PAQWTCgfRgmDumKznFtaC2I2o24FM4kpWP97hPYfyELZQZbdzs03+ueORdDzR334JXh7thPEBymq9N46jRAcNWD6zIF4zJCjq/MXSzcEpDhrsU5Ln67RxILwtg+4SAAQSwOQ2qafQCB5MrPf3gowsJ866wSSF7qKpUOn3+xHYWFKiueeveKxJQ7e3IAwe7danodSZEjuQiQCvkwmIxQymU0AkBnNNIATlJtUmMAjPSv9lunSGaDXAhIhAQyWCCXSOhoWjaax6NFqrQmBgYKDOynSwItyRXVEgEPCqmoVpAnaHEog8kCnZn0bB7XPbM5FRxAcAQgLHJvJUU2G2qrr0v0k0uIOLcSd7DQogGEHe9NscUxgCCXi7H4xcm4cDET+/eXZwjUbm3bBmH4sA5Y/uVOpKbdcDlAsJA6CMpu4HmGOncQudGcBNhIgNTrKLiMIJ3tc8+GlLv7cgDBAYDwUCVAsGO37FJqdnWyY7JG7OISFl1CxLlFuoOFWwIynBOL3aOpBaE3ewuCQi7Biy9Mwv4Dl7B5y2mb87VvF4YH7u+PL79qHIDAEIDg0Rnwam33ermOnASclQBJ4xTmX0KA/qqzpNw+ngMIDgCEOYttBylaKR8XayO7yNnVye3nrGpCl7DnEiKOy6Cxp29UgMFjY2C1lpGIWBCcAAhHjl7F9u1nbAo/Li4Md9/dC182kgWBrFwl9Eepd3vwRQowtSwmPL7tuwAaPCmM2e0pnw3yxHVoEhLgMwwYTSF8y85BbFE3CZ7YMMEBBBcCBDaCr69vnQrIRZrJLjJ2dXLVitnTcZo9pwmw57n6iFs8PSvmq+tRoRMA4aXF5bf6kQp2tRu9+Ecqonnln33+T6O4GMicJOfdyJfBwhPU8ESbeWKUKqIAjyDARkpdnQLTl0FWehUSI6maV/euuqtMLKuN5Tq7RQICxgih5eYdFW6Z1EWTcAChCQIEF+0tJcOBjbql6RIl7RIirtzxxqXlDEBYvGgScvNKkJqajwED4nDxYhb0eiO6donA8eMp9AbFdvFh+GL59kYDCPVJR8/3QIkyHhaPYPtAgr4UiuIkKAw5ICFq9TUOIDTuueSoN44EOIDgAECY+1JNFwOvQkmQ/6lPX1R+iTVFncIBiUYEEk1xwx18nzgDEBa9OAlnzqTj+IlrmPPQYGzfcR5qtQ6TJibi8+XboVBIcf+0fo0Wg2DPkg18DxQp48EoggC+dVpbOeomeXMqKEouwsOQCzANV3jjAII90uf6NEUJ2AsSWmolRStr6NyXvnLwlW/fMHsBR1M8TI1ttbBLgnZ1cr/0nGarIQJ2ZCE4u2qRRYMxvSJYpzmSIEXiYhCJBDAYTBQMEOsBefkIhQJ8+PEWeCgkjRqkaO/aDTwFymRtYJJ4WleKZACeSQ+5NgMKU0GDlgN75+T6cRK43STgyrsY7AUplTJk27+67PMl0TgSNRMWvsRqS+yqgzDvpa/s+GZwx3Y3pDHKeagEHA1/57iDZ3ZzNKZlwy7p2dWJ3Zqc6W2LHTfggiqWhU4ABOJiyMgoRNLlbIwe1RmnTqdBpzOgd6+2+PjTbU0GIFQ8NSBZD7VDOon8SaY9qQ7ItdtLAvYqFc4aZN++VwIEodDB4F/7prHZy969tDXYaYDw8MvsLQiVSrq+Nd96BW6nNiRfUeTyDCc28FYMbSywYafUGq0ioztl6QxAePHFSTh9KhVHjiXj0fnDsXXbWVoYaeqUnlj180EoFBJMGN8VX3y5E2mNUAfBnXLi5mp+ErBXqXAAwb69bcEAwb67GMhd0fYoD9Kr+o1i9onfvhLA9sxv93ysO7KY/VbfOMlybbcUbFRO7oTpwNGhBCCM7snexUCu5Z0/bzhatfKB2cxQV4PZbKHufKGQT6//JU2t1uOTz7aisNA6JczZSoost5jr3sIkwAEE1254iwUI815abp/mY/EWthcgEJL29q2+3Q2xUrWgBlZm38IdOWj2US5ffwOtWtBoQ12bwu+NBTaq1tbQ5rMoPiswOwYQyMvC31+J1mG+4NVxwRMBCyTLITu7CBaLtVQ4gNAUTuvtywMHEFy7txxAcK087aJWu7hLfYPstWCU07BDi9SarCG3SXUXRH3UG1T4dkmmdif7qJI12OMqsQuYOMSn/YPqWxH73bN/3uo9iQVhVA/2FgRCo/ICncpLeogFgTSBgE8BgUDAo/9rCxyQfhxAcGzPuFH2SYADCPbJyd5eHECwV1JNvB8b0FEOJBpPHbEBHe4Vq2sBh3t5d91sjgIEb2854mPDYIEFVy5no3fvWOzcdZ6CgnFjuyEzswDRbYOReu0GUq7lIienhLogqjcOILhuHzlK1hLgAIJrTwUHEFwrz9uOGjvgUf+1rs4Kpz7gYY8Fwdn5bbyO7CJpr4WjNjEiTXbyr4udmmBQaFFjZHd2FgTyoujbJwZjRneiMQd79l5E98QofPv9HkRFBmLC+G6QSIQ03VGjMWDT5lM4dPhKowEEM49EVddcF72Lz8HMBAsEFRkPdm0p16kpSoDGQNn3EUDODq/xvpGaonRq8CRgTPY4emnVVE9PT7S4LAa7YxCa/FY3PwbZKb1GBB0VmRy2JHhrAId79tIRgEA4axXmi5EjEiBXiKFRGxEXH4wDB67g4KEk3DW1NyLC/WE2m8HnC/DX38dx8OAVqwU5b0HgQSP0QakyFoxQfhMjMIDApINUnQKlIY9FbQMe9AIPlMijYJH6gmnJWsM9x4+b5RZLgGcxQaK6Dm9dOnioP9WXAwi3eLO46V0jgXLQweaTgE1fFjzW8wFj/7cNi/kcWIbAzN6CQDiKigrEXVN6USvB6l8OYsqdPfHVNztgNJoxfVp/xMeF0KJJJAB3/fpjOHjoitUFSM4CBFLXIM8jAYxXGxv7zYAxaKAovgSlIdsukKAXeJaXZlYE2leamcXWcF05CTRZCehL4V14AlJzab0scgChye4gx1hjSYCdBYONBmbT19Wrsxd+AEKzBiNYuhgIt+3iQzFmdBeayfDNt7sweXJ3WlI5LMwHkyf1gJenHCWlGljMFly6lIV/dpyFVmussVBnAYKFx0eOshv4nqF1CpDRkxLKBCTk1vOFRCwHCpR4tIOF7eVOrt46jh4nATdLgDHqoCw4Dg9TAQcQbEiAx7kY3HwiW8B07IBHpeuEKHb7lXt9YmwoOLRyrMBCAEIijcvXAAAgAElEQVQk61LLwcHe6NSpDYQCPo4evYouXSKw/0ASfH080KdPDM5fyKA2HIFAgKTLWbQuQu1rr50FCMSCkOuZCChD6j1RBCRIVGmQGotQ20lFsi9NAgnUinDw5AHWpZhbwFltbkskdWYEPAYiPiDglWfNkK9bC6mHy/BgMFtA4mGN9CFkA9QZEn0CIR8QC/m06g2fX35iSICtmQGMZgYmhtbeZCU2PiwQEp6FfDAWM8QiER2vMxgg4AtgMMMhujxS2lzAQExSjRkLRKLyKodGowk8Pp/KwmShETl182vSwzP/X8idBAiNWXDKYmHn6K3Oyw0xKbX8oDOllu2sg8DqSHCdOQk0fQk4ChBcsTJ3AQTKK0OKONUNvnh1XeTkioVyNFwmASFjRnSAFLMm9kHPhLYQCYUV6bZEQTIUhJrMZhw5l4zv/9yPy7laWGgQa/2NlNpu5SnAXcO7YXTfTpDLxBR0VEUvMhaYzBZcTcvDN+v24HhKPgwoV/L1A3ULvMUWjO0Ti3tH94W3p5zyyReUXxxG4nQI1MgtKMG36/Zi79l0qC2EbkMAhIGcZ8DAhDaYPWkQggO86IhKuhZCl8dDUakGv/9zBBsPXkSBjm/bdeYCgEDmakyAQOTEJiuFfJhUtjxRFA5HzuAAQkOHlfudk0BtCbQYgMBtfTOXAAMfCfDonX1x59BEKBWyqjocthZmYRio1FpsPXgOb6/cgSJDHTd5ApALLLhncHvMvXMQ/H2UVVYDW3SJktLqjTh2LgWvfrMR14tNdVoTBDBhUPtQvDB7LNqE+FNLR12NABujyYRL17Kw+NM/cCFXC/Bs88xjLEgIU+DleRPQPioMIqGgXuVMrB/Xcwrw9g+bsetsJoyoRZcDCAgO09WZycK5GJr5q4Nj33EJcADBcdlxI90nAU+RBYtmDMOEIV2p1cDeRpTjjqMX8OIXf6PYYK2gRTwTHh6XiPlTh0AmFdtLFgSAnL2cjmc+Xoe0Ar0VSCAptqO7tcHSRybB21NhN10CQDJyCvDMB7/jZHqpFV3i3Oga7oW3n5yCiLAAu+mSjiq1DkuWr8eGo9dgqQ4+OIBQAyAIeEL0aj0SaUWXoTaWgAMIrI4Z1/l2kkBLAAgiAZ9+vemNJqs4CGIWlYgEkImFKP7/F2ilF0LA59M7JfQGkiN+s1GvNvV3NxwrwqdmV8Bso8y0u88QqXpJ/s9cjy+XrJkoqPrWRs3YfD7191eKgMiDxKKQscQMz6bRapyk+ml97h/GggeHt8ezD46BVNywWb/2/MR//cY3f2HlrkswMdVBAoP+sf746L/3wUspZ8M27UvWu3b7Mbz6/Q5oLTW/ytsGSPDFwvsQ2SrQAbrAiQvX8Nh7a5CvqXnOiLvis2enolentqzpkgHXc/Ix/63VSMrR3hzPAYQqgECekVZesRgRdU+Ve4kDCA4dNW7Q7SCB6gBBKAyxeetiY62zd+8oTJ3SGwaDAWfOnKEvXKJsiALq3LkzsrKyMHfuXJhMNZV0JT+2ghQjg30QEewDvZH4YAG5RIToMD8KEL7f9C8EfB4CfZTwkImRU1iGEF8lBnSKQESoL15fsZP2Jwo9xE+J8X3bYdnqPWgd4IW0vBIYjCb4ecrQr2M4thy9AkPFhVS25EPW0TE8EFGhvth4OAkmlkFWrpZ5t5hQhAV4YevRy5RvougDfTyg0RtRptFTc/09gzvhdEo2LqblWQGpSn78POUY1i0aW49eQYlGR/8cEeSDiQPaU9P7zztOQ6XR283+oE6RtPrm7lPX6gQJXkITVr8+C7Hh1sGo5MwUFBYjOzsfbaPbQCaT2Jw7N78YU174BjllNwGMGCZ8+p9JGNqzvc0xZSo10tKzERzoB39/H9t91Fo8/PpPOJZcVKVQ+IwFz93bB7MnDrDprlCpNUhNy0JQgC/8/X1tmraN/79Hr36xHr8euEJCJcvnZiyY2i8aSx+ZDHFFMGJ1pvQGI66lZkAsFiEyPMym24HI64c/9+GtXw7AXOlq4ABCFUDg8/iI8euGNl4xiPXrgkv5JzgLgt1PM9fxtpNAJUA4fOQKkpOzkJOT67Y1jr9jMJ58coZLAcKs0YnomxCBYpUWV9Lz0TkmBKevZEEgEmDl1pNIiArC9JFdERHki+82HcWM0d1x5moW1uw6g6SMAswe2x1GswUXU3MxZ3xPLPxiM16cMRRvrdyJ7EIVOkeFYNljYzH5xR+h1dsGLkSA5Gt82rDOGN0rDo9+sA46g4mCFtLEQgGkIiHUBiONjicWDjP5crcw1GphNllojJpMLKL/1ugMMJnL4+YlIiEFOxq9waYSL/+SL49FI5iE3qPFAAFeCkors6CUziMVC/HGw6NxIikTq7afgkjAw6Z3HsJ3G4/iz/0XqbXFljUgtnUAXn94FBZ+vglZBWXQG42Up/4d2uDJuwdi3nt/IDu/PJ9eKOBBLhbTtRvM5WsnQISAMJPJQoHK0odGUB/64q+30ku/iGKsbUyI9xdi7ftPQiK2di1kZOTiu5/WUYX78gvzERFuO+WV0H3uw1/x97/Xq8z2oQoGf7z7KI07qN2IEv/mxz+QlHQNk8YNxcgRfetQuMC7P27CV5vPVFXf9BCa8ePiaegcH25FV63R4rsV63D+QjLuGD0IY0f3rzPmYf3Of/Hi1//AwJRbJwQw4805I3Dn8O5WdEmW0Lq/dmDv/n8RFhaEZxc8WGfFw4vJmZix9CcU6SuABwcQargYQpWRmNrhcSgkXihQ53AAwW0agZuoyUmAAIRxfeOwZMlrKCoqtjtS2BULuffeu/HSSy+6FCDMHN0NPdq1RmGpBjKJCME+SpRq9biUloflfx6hCur1OaNw8nIGNhxMwv/mjqTK8qVvtyG3SI0nJvdBbJsA3ChSUaCxbt9Z9OkQgYXLNyGHAIToECybPwYTX1xBlWhdrRwgdMHsO7ojmypSE1759h+q+N+YO5oq6ysZBfhkzX7Mm9QHxy6m4/SVbPzv4dFY9NVmRIb44um7B1AgcOhsOr7fchwDEiIwa2wiBEIhlq87iL1nUmt8dZO1PT9tMEpUOvRo1wpbDidR60lyZgFG94lHek4R3ly5G3qTCRP6tseCu/rhRrEah86lYcWW4/h16f1Q6QzQ6Y1UXm+t2k2Ve/UW1zoA7zw2joIW4kJZsfk4Nh5JQufoYLwyayQe+WAdBQj+njIsnD4ErQK9qZtmyXfbUFCiweNT+iIhOhhanRHv/7oP00Z0gUwixIEzaRjSLRqv/rAd+SWaqilJGt/kPuF444m7IKwWmV7ZQa83IC+/EG+9+x2efWoWIm1YGSr7Lv1yHVbsTKqK5I/y5uGvj5+y6bYgwC2/oAg/rtqAzh1i6gQIhPYvmw/j1R93VQX/hSiAde8+YhN4ELrE4vHjzxvQPjYSY0bVDRDOX83AjKUrUVIROyEXmPD9ovuQ2D7S6tgRy0BRcSn2HDiOy5dT8cyTM+oECKUqDcY++RFyNBVuEQ4g1AAIIcoo3NvpKYh4YmhNag4guOJlz9FonhIgAGH62F5USbu7+fn5ISYmplEAQuUXd3x4AIpVOmpF+GXnaWodWDp7BBYu34xStQ4L7upPv9RLNTp8sf4wesSHQSYRIzzIG6N7x+PjNfvp1/eBs6nILChD95gwLJ41HPcsWUVdDnFtAhAZ4kNdDtXTsAhAeGBkV8yZ0BOLlm/BnPE9sH7fBbSLCETHiGAs/eEfvPbwaPy59zwGdY3CzhNXcfBMGn56+V48sHQ1BnSOxINjuuO1H7bjTHIOvaH0+xemIjW7iH6xE1Dz6AfrrRT4yw8OQ8eoYAT5KlGi1kKt0WPO239Qa0aH6CAs+mobBR1xrQKw9KGRuJSehz/3X0BSeh7WvzkTl9PzsO3YFcwe1wOz3/wd+aU3lTU5H2S9Xz83FSs2H6PK39tDhhe+2oK41v41AMJ9wzrjnmFd8MynG/DOo+Ow//Q1pOeV4K6hnfD8F5tovIdKa8CSmcMwuGs0bhSpsfT77dTFUT0egUTsTx8Ui8XzJtoECISn0jI1XlzyMZ5ZMLNegPAaAQi7kqpM9jG+Aqz78Mk64xoMBiM+Wb4aHeOj6wUIa/85isXf7qgCCKFyC/766El41xHXYDQSur8grm14vQDhcmo2pi/5sepLXyk04ceX70enWFI51LqRWIvN/xzA+QtX8J8n6gYIKo0OIx95D3n6ingODiDUAAhBijbo0WoEIrzjkVx4lgMI7lYM3HxNRwIEIEwZ2hmbN26u09ffWNz27NUTk++c7FKAMG9CT4zpHY/MG6VYseUEZo9NpAp27+lruJ5XTP3ur88dhZlv/g6JUEBN3B+tOYDM/FJqun/mnv74fddZ+HjIqIvhsQ/WY96EXjidnI0dx5PRpW0oXpk9Ave+sgoiPh9P3d0fxWU6fLLuYA0xVboYxvaJx4KP/sKrc0Zg36lr6NmuNS1g8/qPO/DBkxNw+HwaOrUNoQCEfOETC8J9S1ZBrTNiZI9YjOoVh/TcIny94QhWLLoH+8+kIjmrgH6NbzqSZOUGuHdoJ8yd0BtqrR7+XgrsO3MNi77eivtHdEWXmBAs+nob1DoDBRkfL5iA40kZ+GbjMerm2Pj2bPyw8Rgupt3A0jkjMfON33CjRG1lQXhj3mgs/HwjBREkaJDQj2tzEyDk5Jfi4fG9MKxHDOa9vRbvP34H0nKLcD23BMN7tMVj762n8QskdvO1h0aUrzGnGE99/Beu3yipMR+J2u8f64uvXp5NXRG2mj0AgYC3lz5di1/3J1fdsdHGk8GGjxZAIZPapGsvQPhqzS68t+YIzBWxAgEyC1b/76E6swzsBQj7TyThkXf/qAqAFPPM+PTpCRjas4NTACErrwh3Pf8VcjUVtRY4gFAjSNFf0YqCgw5BfXAqew8HEBpLAXB0m74EKmMQkvYmoVuHrlR5uasFRPojrne8ywACCUoc0T0G4YHeuJpZQJX6C9MHY9fJFKpMSfP3lOPV2SNw5OJ1+HvJoZRJ8M7qPdAYTFDKJfS3c8nZ1E8+JDEG3286hmGJbbH5SBL9sm4d6IVl88Ziw4ELCAvwRLCvEstW7cGN0pqKlARDkqC/4T1i8NwXm/DSzGHYczIFZVo9nrt/CLYfuYzE+FZ4Y8VOEBAR29qfKltC88H//YKE6FAoZWK0CfahboL/fr4Rc+7ogfBgHxw+n06tF38dvETXVFlSh3x5J0QG4d3H7sAPm/+l8RXfbDiC1TtPY/rwLpSXHzcfx77T12CyMFQ2rQK8sOdUCgUqnz1zJ1Zs/heXM/Lx8szheOTdddQ9U0mfKNnWQd5455Fx2Hz4EgZ0iqTzbD9xFZ2iQkCAw4+b/8XOE8mU7ov3D8GRC9fpvO/8vBsZN0qxZNZwHLt4HQWlamw/nkyBBLFClGl0CPT1wAvLt6BIVS3CHkCYwoJ17z8OXy8Pq6NZWFRC/fm/rNmCcaMGoFNCLMJCA63iBco0Wsx+ZQVOphdXScxLZMZPr8xA++gwK7o6PQmcTcLmbQcQGhaIvr07o11spFW8AIltWPTpWvxx6FpVkKIIZrz/+FiM6d/Ziq6eBuRexqZtBxAc5It+fbqifXyUFV0i6y9+24EP1/1bVQWR1EP8z509MG/qEKv+xHpw/mIyDh85jeuZeZgwdiA6JcTRgMXabcuBM3jm07+hZypiOjiAYFUHgQQZiwUyGMxaDiC4SyFw8zQ9CVQChJyzOWgtbI2C6/XXY3flCiJ6R6Ln3T1cBhAIbzS1kAR0Cfl4aGwPRIb64JsNx6jSq2wBnnJ0ig5BQakGlzPzodGV3xEhl4rw4OhEpGYVoqBETaPLSVRz17gwHLuUQf+fBP2RuIa2rfyRW1SGjBsl9GvfVlNIxdQVQBSet1wKnbE8UJFkSBCgknmjBPllGpB+4YFe1BVCMiiIWV8hFSHI2wNeCgmuZhVRGiSwMcRfCZlIiKzCMgzt1hZDukZVRcEXlWlpjAEBOoSWt4cEJWo9dUN4SMXwlEuoi4Wsm4AJAoJIxgeRGZGDj0KKMq2BBk56KaTw91Zg/sReVQWJSFDmslW7aQS9h0SEIrUOhWUayjMJvCQZDiQisrBMC6PJQgFYmL8n8orVNH6DpFh6K6Ro7e9JARmRHYkTIfulNZjonIUqMrbmrYJ8mPDx43dgVL8EK8VvMBqhVmmrrnaWSSWQ2bAI7Dp6Hgs++Rsa480KhSTb4MlJiZh/11B66Vj1RngtLVVVuY3I70oPhdX81zLyMO2lH3CjOqZhGIzp2grLFkyFvFZWBVHkJXbQzS9WYe5rK3A2o6xa+W8G8UEyfLfkQQT6etXglwAKknVBghUrnwNPTw8rIEGADynEtP5Y2k1oyQEErlCSK1/sHK3bRwI3AUIuwhCC3OQ8ty2u7cBo9J7Wx6UAoTrzlaVfbZVorQjut1orveGZqXkjhq2/uU1I9UxEKwFXK8lLb/Kwoz4DG94JeKje7Kn/wIa+vX0jvPn4fskstA7xs3dIVb+CEhXmvPoDzmWprQoPBciBj56+Ez06RrMuFUyCOZ9+ZxV2nMuFpVZpZBnPhJdnDcfUET1Y0yVZJu+t2IRvN5+BqVY1RZLJ8OCIjlg4axzNlGHTyNlYv/M4Xvn+H6hN1QCRCwACGz4c6cv2XNe8iyEKR6JmcqWWHRE8N6ZlS8ARgCCUCBHbLxbKQGUNBVWXJPVqHZIPp6D0Rs3rZBsbILTsnb29Vk/uSugV44//PTIR4aEBdildgpUy8wqoC+DwlcKqGIEaIBIM2vpL8Nr88UjsQKwxDd2BUD66pEyNZd9txB+Hk2GqSEOsLfEQTyGemz4EY/p3qjPAsvYYUstgxYb9WP7XMZTUUU7CQ8Rg/vjumDVpICR2Fo4ilottB8/ijRU7kFVaK/vGRQCBrRJ31wnNl5DLmjiA4C55c/PcRhJwBCCEd2mDwfMGgy8SQFuspVc622w8HmSeMmruv7T7Eg6uOljj05wDCLfRQXLDUghIaBukwPRR3TGmXycoZOLyr+haSp24SNRaHXYdvYCVW/7Fhayyem8zJJkSYd5iTB2cgCnDe9DsA1JPogZdWu3RQlNAj52/hpWbj+DgpZx6L4IiUMNLAkzoE4P7RvdGaJBvxb0JRFjlQKRSqRI3EMlaWL35MLaeSIWuVmXG2uKV8s0Y0aUNpo3tg/jIEEhEIlr74mZESvnFVeRWx6wbRTQVc8ORqyjSMtb3xXIAgXMxuOH55aZohhJwBCDED4pD3wf6oiizGMd+OwbPIE+bK9dr9WjTqQ2iekfh2tFr2P3V7hpgggMIzfDA3HKWGUh4FvjI+TSQk6RzktgMoswZcuOihQHJojifmosbZQboLURr2mcVEMIMHxm/InXVl2Z2VN6OaDKaaHzEuZQc5JbooCaxDHZaG8hVzz5S0HiPmNYBEPJ5kErK733QavXQm8y0emVmfhlK9LyqLIuGRE0yPDzFDML8PNAuPIjWk6ikS+pDGC0MrmbkIyW7EMVawFKOIKwbBxA4gNDQYeN+b5kScAQgRCRGoP+D/VCSU4L0U+lInGpd2Y18phSkF6AgJR9tB8Tg0q5LOPLrETDV7iVwCUBQJgKe1iV4W+ZutrBVM+WWq8o4CRqDQT/L6YUZjguDlqJEZYFjSqc89sJ+UGBzckqjvJz4zcyTCobrUt52rYIEzZTzRytnUn4r6dLbQ+qnwgEEDiDYdc64Ti1OAo4ABJLC1/mOLghpH4rMsxnoflcPm3IrSCvAjeQ8SL1k2PfdPujVNZ2qrgAIOcpu4HnaLq/b4jaTWzAnAQckwBi18Cw4DoWpsN7RBNh4enrWWaGRi0FwQPjcEE4CTVkCjgAEiUKMPtP7wMNPiYyz19F9av0AwT8qAHu/2YvCjJovIKcBAngokURA7xtvbT6lNymyi/K+uU8MmFt8uVJTPjMcb7eXBPiqXPiVnYWQqf+SLQ4g3F77zq2Gk0CDEnAEIMT2j0HfB/qhIC0fqf+mofME64IwZOKi60UoyS5G7KA4pBxJwZ5v9rjUxUBNqTwhtAIfmAQSmlFBjKnE8GwSyGFQhIInIcV17Dc3MyYjBOpsSIyF4Ls4ZbDBzeA61CmBKteBvTKiKaBcq08C5DkhgZ9SUwnElpqFvmyN4wACd544CbQwCTgCEOIHxqLvjH5QF2lwZtOZOt29FjOD6D7RCIkLQfLRFOz5cjdIulVlc9aCUH2ryu86rNZ4PKgFflB5tQdkJIiyYXXBmAwQl6TAW5cKPmO7+FELOx5NbLkUJtjZGt5vOwnd1t0qcinsWiMHEOwSE9eJk8DtIwFHAEJgVCCGPDoUMk8pLOR63nrEIRAKYDaaKZA4vem0S9McG94FHspEAVB5tQNPWj9IYMxGiIpT4KNLgYADBw2L9hb0YOPjtreewS1YRrOdkgMIzXbrOMY5CTgmAUcAAnlRSD2lVuVp6+KAVIbTkTLCxpoldF1pQah79TyohAFQecaCkShsWBJIvIEZ4tJ0+GpTQMr6cq1pSoADCLd2XziAcGvlz83OScDtEnAEILiKSfcABMItD2a+2GaxnPLkMAZCiwHkMhyuNV0JcADh1u6NqwECGysPm72vLSWukuKtPTfc7M1YAi0DIDTjDeJYr5IAGyXBRvlwIrZPAg0BBPuolPeitSBY1KogsUts9r86LxxAYLMzXF9OAtUkYAUQUvLgGeCJoOhAaEs0yEvNp9UPA6MCIJZLkHMph8b7eQV74sa1fPrQBrUNQmleKTTFGkiVUoTEBkMoEUFdpIZJb6KVFlUFZchPK6D/Jk0kFaH96PZIGJ3g8GVN3Ea2LAmwURBslE/LkqLjq+UAguOy40ZyEmiWEqgNEG6k5qPTmAS0G9qOZikQpa4pVCG6d1toy3QwqvW4eugquozvis3vbKLXy05+ZTJO/nkCyUdSENYxDL3v642cS9kozipGaIcwyH1kNPcw62I2jq05Rr8cEicnIrJ/JMQyMQcQmuXJcT/THEBwv8yrz8gBhFsrf252TgJul4AtgNDljs5o26cttQAYdSbw+DxqIUj9NxWD5g3C2U1n0G5YB/z9+l8wm8yY+sZUHF97HFcOXkXrTq3R5/6+yLmYhbTT6YgdEEvTIMUyCUpzS7Dn270UFAx9bBjkgTLIPeUcQHD7rjfPCTmAcGv3rSUBBFJkrTJRljfvpeVsEmxv7S5xs3MScKEE6gII8UPbgTFZcGH7BfhF+YMxMUg7nore03vj5J8n0XFUAv5+62/qMpj6xhScWHeSWhbCOoSi68RuOLTqENSFavSb0Rdybzk8/DxoueW0U+kQigUYPG8ofKN8OAuCC/fydifFAYRbu8MtBSCI+FJ0CxkMX0UwhHwROIBwa88dN/stlIAtgNBhaHuEdWyF3Ks5CIoNxtWDV2msALEEJB9OQeH1AvSe1htFmUVQ5auoG4Hcs0D+uySrGFF9oqnFQVeqhcxLTl0NfD4PHgEe2P3lHmp1IAWUOk/qDLmX8xaE8iJJtUrnMeSvjuN+xuEyzbdwM2/zqasDBLq39VS65GIQXH8YWgpA4PME8JUFwVsagPHxszmA4PqjxFFsLhKwlcVAihvxBDwanCgQCKhCF4qFVMkbdEZa7EggFlDAQGoclEckl7+vyRi+gF/1b/JSpzc4kgvyBDyYDCb636RPzKC26HF3T6dcDEa+DCpxCMwiRY0iTHyzDgp9NiQWFautMPNEUImDYRR5VYzjKvKxEqBbOjMQmtTw0GVCUMf9ARxAcP1GtBSA4CcPRUJQH0iEMnQLGcQBBNcfJY5ic5FAc05zJF/5BbJYmLyjgdpf/OQqYE0BvMsuQGouq7wIuN5tMfPEKJRFw+QZDp5A1Fy2sGXyyVggKrwMH+0Vm5YiDiC4/li0FIAg4IsgFcigEHvivk7PcADB9UeJo9hcJNCcAYKFxwe57plf53XPDKDKg3fpRUgt9YMEM0QolLeFySuCAwfN5PBaitMRXHbaZoErDiC4fhNbCkColJyH2Bszuy7mAILrjxJHsblIoDkDBGJByPVMBJQh9YibAaO6Ae+yyxDV4W4gN0IWSiLB+ISDxxc2l61r9nzyGAv4VTdyV7pymHJXVWVcST2rtJRcR3DpKQ4guOkktDSAIOKLMTT6Hg4guOl8cdM0QQnc/gCBCJ0BY9KDZ7a+oZGGMfIE4AklJDCiCe7Q7cYSAznfjDZ+Mozuk4Co1gEQCfjgV1TVMzEMCorKsPt4Es6m5KJAR8BCFYqoIQwOILj3bLQ0gECkyyfpjlyao3sPGjdb05FAywAITUfeLZkTHmNGl3AvPH73EHTvEAWJWEQDX2uHgZLAVqPJjLTsfPy69Qh+2XUOekZsJTqGWBDqcDG0ZDk31toJQFAqlRAKbVvZ2Lp12PRnk+JKPwmqZbhwpZYb60RwdG97CVQChPTj6TDnmZCTnuu2NSeO7o4J88Y7nMVgn4vBbcvhJqpHAgQcDOkYgiXzJiAs0NduWen0Bvyy5TDe/+0gNOZaloSS6wjiAILdsqytOFkNrLg/oS6AwPZuBbZzs+3PAQS2EuP6cxKwIQECEEb1jMYPH36PwrwiGE3uu+54wt13YMGLTzUJgFCZpskdksaRQFygFJ8uvA+RYQGsJzCZzVjy2R9YczAZ5uruBg4gsJYl2y/x6hPUZ0HgAALrreAGcBJo+hIgAGHamJ4oLCwEuTHNnS00NBQJCY5f1mTLgkBeVPxqNmvyb2+FFDKJCFkFpbRuAynSQLowYCASCODnKUegtwLnUnNBfiZNLhHB20NKx5DelgqTpYDHg1gkgM5oqq9OTw0xesgkVLYavXUMRDkfdTfim6+89I70o/xXa4QX8jfCH2GxtgIQCvnwkklRqNI6fBsekYXZYoHeaK6aubacaamLOgoXEevBu/NGYMKQRJs3+NFaGQwD/s2IRSuB5OSX4O4Xv0FWKQGwFRvMAQTWj/ukissAACAASURBVCsHEGqKzINXhrtjP0FwmK7qOastVC4GgfUx4wbcLhKoBAgFBQUOKxBHZRESEoJOnTq51IIwZWBHTBzQAUVlWhJ7iEBPBYpUWuw8fhV/HriIMD9P9E+IQOtgb+w7eQ2Rob7o3DaEKthP/jiAdm0CYTCaoTeY8OCYRCxcvhkT+3fAhgMXUajSIL61P/5732A88fGf0JCiUQ00YhR/btogpGYX4ZddZyAUCmD+/y9ioksDvRQUnFzJzIfJwkBClL2ZgbECqMnEQtw3vDNiWgXASy5BbpEK7/yytwpoSIQCzBnfE52jQ1Cq0WPXiWRsOZoEs4WhIMZPKUfP+Fbo0aE1Vmw6DqGAj6TMApjN5UCQKHkyp0wsoiilRKuzAiA+CilefWgEDp5Jxe97z1HaBLD06xCOcX3bQykXQyEVY9W2E9h+ItmmNAJlFqxZNg+hgT5WvxNZnDh1CTt2H8GD909ASJC/TRqE5yVfrMMv+65SgEcbBxAaOn5Wv3MAgQMIrA8NN6DlSqDSxbB+/XpERkayuqPdWakR68GoUaNcChBmju6GXu3bQKM3QKU2wt9bjsvX8+GhEOOT3w9CLhNj+oguaNcmAB+vOYgXZgxBUvoNfLL2AIpVejwysRdd1sXUPDw4tjte+mYrnps2GK//uB1ZhSp0jgrB24+Nw8QXfoCOVIWsp3nLpRiaGI37hnfBjRI1/tx3Ht3iwrDhwAWcT83D8K5t0atDG7z/2z5oDUZMHdSRAoYftpygtIn1IMzfE9Fhvpg5ujvW7zuPDYcu0a950ggIIHP4eZVbQPKK1LicmU+VuJeHFAMSIjBjVCJ2HL+Cy9cLUFSmwYW0PDr+jj7x6NGuNaQiISxg4CmXIr9Yhfd+218Orng8RAR549l7B+JiWh5+2noCJRp91WqVMjHCArxw15AEagH5ZM0BlKhv/l5dLG19+Vj/wQJIJdbFpzIz87Br31Hs2XccL/x3DqIiwuqU6PLfd+KDtUdgRkW2CQcQWD+CHECoDRBKMbXtpwhtzVkQWB8mbsDtL4HKIMVLly6BfNGXlpa6bdFxcXEYOHCgywECUXw3itXU1RDbKoAqtv1nruG3XWchkwjx+pxRWL39FE5cycKiB4YiItgb32w8hr1nUjFtaGf0TQinX/gdooKw91QKlHIp3lixE3klanRpG4rX547CnYt/gt5ool/lAgGfWhxqN/IFP7JnDCYP7Ii/D1zAkG5tKTgYltgWi7/Zho6RQRjRIwZvr94Dtc6IEB8PLJ0zAt9u/BeHzqdTJR0Z7I0X7h+CEpUOf+6/gNPJWSjTGOgNm+P7xKNPxwjkFZZBozMgoW0olq8/jLPXciAVCzFrTHeM7hWLlKxCCoKIcjh3LRcHz6ehfZtAajXJzC8D8fETK8DXz03Bh7/tw+7T1xAW4IkXpw/BgXOpWLf3PLS11hfo7YHHJ/dBXHgA9p9JxankLBw+lw5jhXWiuiy6tVHgp9fnQSKyjn4nrpfSUjUWvfoJnlnwYL0A4ZfNh/Dqj7th5ACCw88oBxBqik7I6DDe93PEdCiEQFgzn4YYqshzxrkYHD5u3MDmLoFKgJCUlASpVIq0tDTWSxKJRBRc+Pn5gfy3SqVCRkYGysrK6nVb9OjRA5MnT3YpQJg1OpF+lRPlR76EE+PCkFuowoXUXKpgTf9/V8TSh0Zi/rt/0FS6Z+4diOSMAlgYCzYeTsLwxGhcTLuB8CBvPDA6Ec9+uhH9E8JxMf0G/fruHhuGRQ8Ow72v/EzHj+jeFvHhgfh47UGrtZIXzJAuURjZMxZfrj+Ml2ePwKvfbcfssd3x8z8nQewAT93dH5+uOYAgXyX2nk3F89MGQ2cw4pM1BxHTyg+LZw6j/BH+I4J94OetwEtfb4PWaKSuAQGfT4EKmeuzpydh06FLWH/gAnWF3D+yG05fzcbI/wchxHLy/i/7cD411yoWgowN8VXikwUTsWzVbhxLykCgjwcWThuMpPQ8/LLjdA3rAQEHr80dBZ3OiP1nr6G4TIv7R3bFyq0nsP1kipUcYv0EWPfBkzSt0VZTqTR4/uWP8J8nZ9QLEL5euxvv/n74ZqAiZ0Fg/axyAKGmyHgWE/qqVqFdxzMQyxkKCEgjcT0kJkbmyd3myPqQcQNuHwk4AxDIF66vry/GjRuH+Ph4iMVi+lCZTCaUlJRg06ZNOHfuHIxG2776xgAIj0zqTWMGiIvgfz/uwMJpg+jX+Jajl2mGRniQD96YNwaPf7ie+vUXzRiK55dvQe7/m9eVcgmenz4Iv+88Ay+FFLPv6IknP/oL8yf0wsmrmdh27CoSIoPwv4dHY+brv9Hgx4X3D8bfBy7i78OXrA4F+Yp//9Fx+Of4VeQWlmHK4AQs/X4H/WInAX9yqQjvPT4OOfllEItEePHrzTQ+ol1EIH7ccgL+Sjn9kr+UfgMagxG92rXG1MEJeOnbbSitMOcTNwSJI0iICsZjd/bFu6v3UgsCsWqE+SmxeMZwHDyXChLP8NM/J2ncRGXAJQnQJG6EEH8lpo3oims5hRSYVAZT+nrK8N/7BsFislAARGREGnFLtA31xfzJfaibY+uRy+geF0atE6t3nraKYwiWW7D2nUcQ5Fd5AdZNURGFVVKqwqJXPsFTjz+A6Mgwm8GKxNKw9Ms/sXJ30s17NziAwPpFxAGEmiITMXrc4fcpYjsW4//aew84yaoybfyt6urq3D15mATMDAxKmCHnjAgGUAEJgmAgiAncz5VFwfyBq4Cw+Inu/gXTup8fJlgRQVkEXYIgOcqQYQiTU+eu+u/zhnPPPXVvVXXPTE/oW/yG7q6699xz3nvrvM/7vKnBJ7hQzbNMtHpxd8YgDPspy07YYiSwLgAB4ODMM8+krbbaiuXR29vLYKC9vZ3pcQCFG2+8ke66667EDIkNARCgFKG0lq/uZX/+p0/Yn26+9+8MEEy5IWgQ1DgyEuDXv/72R2moXKbOlia64lPvpvbmIgfKT+pqo5ffXEETutroml/dRb+/7xn21V927juoq6OVcrky3fDnJ+jntz/CzET4esvWk+iCUw6lhYuW0e7zptOfHnyO/s9v7nYKFDJaMGcrOmqfefTDm++nN5av1cJBOY4TgPL/4JG70cG7zmbrG7bN92+8h/786ItspcPy32/HbeicY/ehoXKJLvuPO+ipl5Y4AAAA9I1z30XtzY0MMBDo9x9/eIj+/OgLPFVkJ3zknXvQmu5+uuOh5+nlxStpMMhkQSDkeSceyLL8yg//6AIzO1qa6MsfPpKmTGijqePa6dHnXqOvXHcbreqpjEMolAfpqk+/m446YH6FjP7+zAv0yxtuozfeWErjxnXQQQfsTocdvFcFSFiyfBWd8oVr6fllGD8LUhzpBpQBhLjkuvIr6H2zr6Lp24CFq+zcik60mYthpE9bdt5mL4GRAgRUU4N7YN999+UvFiy8X//614RYhrPPPpsmT5Z8d7gbrrvuOnr++ecrZLUhAIJ9xUEVzps5iX3rz7yyhKP87dVYyNP49ha24lf39DmFjXiCOdMm0KruXo0pkBTDiV1ttGxVNy1d1c1DwJeO6H345Xv6BiosZrsOqgTiWLgiMPbAYMkFGNoxki4o8ktKd2zI56hYaKCmYoEDF5FhYQwAK/n/YSGgrJGpgeuEmYZgFxALAUZhTU8fre7u44wJe8FFgRQGBDamvTBGV3sLLVmx1l0bcsacABwAjpat7ub1Jb/K9NapzfSDL36IpgQsAhSWZVXgXMgsTHcE3fut626i6/74GA2WvWJJGYMw7P0nAwhxkbXnVtGJ876TpTkO+0nKThgTEhgpQJgyZQp94hOf4NKrYA2g4H7+85/Tk08+SR//+MeZVWhoaGDw8Kc//YluuummChZhQwCEMXHTNsNF5stD9L795tKFH303jetorXsFg4NDdOMdD9ClP7mdlvcGp2UAoW45ro8D8V0GO4g4o6TXcEonr4/5VBsjq6S4oSWcjT8mJDBSgIAUxdNOO40DDG+44Qbq6elxgYlz5syhlpYWAgDYaaedmFX40Y9+xMf6rwwgjIlHzC2yMTdEB751Gn3ixEPpLXNmMLuSplTAhixZvpp+8Ye/ctrnyv6Ehk0ZQBjVB6hWs6Z1YSc25EKyXgwbUrrZ2Fu0BEYKEHbbbTc6+eSTqbu7m773ve/xT8QgIO6gtRWUdgO97W1vo/3335+effZZuvbaa6mvL+6fzgDCFv1oJVuZ5RJ1Fku011tm0jv234k621rYjWNAQRo1lelvTz5PN9/9JL2+aoCGciktuDOAMKoP0BgGCNdUq3Y6qjchu1gmgdGUQH6oh96+12wabprjtttuy7EGTU1NDA4ADH71q1/xOGeddRZNnTqVPwMd+de//pV+8Ytf8DEZgzCad3cTvhYHS5Q53JDjRjR4xEIhoIzk0yqvDCCM6g0eswBh36P2KBuCLZW03jieX3s+8TuCebheOPyqcl8kkjjnIorlPa2uDlTMf8fvIf+Nz/Qn/ubxvL/d9yVXeb4bzc7B9XKoKm/Xi75Ublh8zvOqnIusBYXU5XOMxLLQefvTt3nGlmTrsbnqh94Q8WLz3lpdVFYwNZaJCcGbB7YM/pP/pydBkCwDXZsJPDaBtO+RrcSviF9jU6qUoveg2Ifubugb6WPaemS6/mJFoM6yspFUOOmbp4xhTXSZ9mPxQHomIxViLkdd7Z30yQ99ctgAAcr/wx/+MM2bN48HRQzCz372M3r88cfp/PPPZ4CAF+IT8P7DDz9cIbl1ZRBKuTy93rE75Tunp93g7P0tWAKlFS/RtDWPoFPGFrzKTWdpYxYgzD9gVtnPcJCNFFuwKk1T4navVJ/4GCJUDbHbmqQUg7HqeQxi11OFnKbaYord1wsGJBygiJSQ6V4Z0xCLAhpvDF/dMaAIkH4olwo5eZOO4zAZy0BTBHqi8uv+HO13UYjyio2n902UpDXoiSTtyw4nOkzh3W8fb6Td4wgORFd3Y/vjJswzvv5gHfhQcKkDmwacQggSPj/VYI7/bIzvmELnn33RsAECNovtt9+ePvjBD1JbWxuDZGQqLF++nOMOUHQJ791///2c3QD3Q/haV4CAZk1LWt9Kg+NQIjrBR13Plyo7ZrOUQLlcosblz9DE7mcygDBKd3DMAoQFB84ysyvSMOHObVrINzp9DZW0Q6cZqN4OzZeJaapKReeGTjguVIr8dxKgSZqrBzLSnjFfmSSKIEQo4QnhSfq3U3op609S/mnvpSlufr/W/JJk4KONNMGk3Av/8CTZ1fwu1zFu0jVigIDHSB/IfywndE6hT581fICAOSDOYOedd6ZjjjmGurq6+G95/sockAjW4Oabb+aiSUmvdQUIGHMg30arWrahwWK71xcxR+VcI1FzJ1E+OeI69T6US1TuW035QQCaUoTYat647IBRk0A5R4X+1dTZ8wI1lntG7bJj/UJjFiDMN4AQWNdJD0RoxTM7H5LMuls761MHSrWsAyUWnpekGJOARV2MRsB+VLPuqykid16oh9zfziEQ8QvetcWtkediMzElnvItTJ1noMztOGYDAoAmfk29YQHbUOvL7yv7JOs8CTdWKu3oKvXKPTavELikyj7hmTS/ViCTcZ1T6PwRAgTGX3BTdHXRnnvuSTNnzuSYA/RzeOSRR2jhwoWpVRRx7voACPzdyOUr/NUlKtCKpq1pYNxcyhWKtW6vfA6XzprXqWvN01Qsra3vnOyojSIBjlAoZ66F0RT+mAUIjkHwFDlvfoH0/b3Vp6NNgTtPginCMgqtyFmIAXDK0MZNQgwxO0j3LaXxIyUVp/WrAQOfiq5YT0A1hPMf7sMXKsk0gGWrYtI/cDfYOdWM+FDxxuI4/Iv6YMgbMHYvEgCekzPuWT4CFG7oFMVcAR59ZJdwX/3npioQ8IWSxNDYwxp8ZiAyNt3gYRkHF8M6AAR/3ihwY0WT6kl5Wl8AIe05LVEDLWueTQPjtqsDJJQpt/o1Grf6KWpicJAm6OF+K7LjMwlsGRLIAEKoXHxF7n3m77GxbUQVCm/IgaXGSikvoWX8UdL+k2IN86UDpZSkjJ3iC9ENdJwClGqWsAtQTJtfkgyqUeL1aPlIGwsT4yJA9WIBu1Iht4TrJwKVxLnokRpoKmLTYD4P3FUAPA8zOLASY0eS3UYxgOE9I9EY+lsY2coTi18gFYyF8grvZSCvWi4G3A8EJMJlABcCFD+yEfC+uRTs59DQEOEfjsdxAAx2PM5Brwa7vzhujz32oPe85z0jbtZUz7brQELXXKKClCsOX/Bn59a8QePXGDioZ+TsmEwCY0sCGUDwLH2jo8USCsPwogeDVb7breWXmNLQDbrCuvRN++A5iyn6Ks9gmpLgjAVlLuz0xI1RNF+MKklfaQqmCRiA6E+ThV7Zn0CVtVcs17f8PczgH1cN9PgawV9q0jlVGRDO1Vbg5x0oQZUu/yDEAPK3nRgGmwQgstp2Exj+lW6tOveqEJeOr+FigPvghBNOoDvuuIOQ2ggw8NBDD9G4ceNo77335poHAAQIQkQVRfw79thjOUgRwYsAAnA33HPPPXTcccdxJTZkPKAmAs6dMWPGBgUIEAvcDT2FLhpsaI9HuypOz5f6qHVgGRXKKOSUMQd1PkrZYWNMAmMFIORzeWpp7KAcIsSxfcdcDNUs4moPRNp5oVHo0iDVTZBk2frMO1v/cc3Ip4Qa39vXQmVSYTElnO6QTcL+aOovDTz4gCbp2snKOAJejlHJVWZEpIm8AnApEPN+pGdRJ4CaWBrESEBZwjkhu2CHxJgaD0BW3Fbv2UkCeGlgyj1S4b0MQRoRASCcl+JiwIaALo0nnXQSK3HEFqC3woMPPsiVEw844ACaPn06K3p8hqZMAArHH388oVeDsQXIbkC5ZfRuwPv4t3jxYv6Jhk8YGyDC0obBPCxYsIAWLVrENRXC+gkj35erSTEDBiOXa3bmWJDAWAEIzYU22nWrg6ip0FYdIKRapr6C8az1FF2v1Lk+Qkr3w8Kv2K4SNnBXv0CPj+YUmeFGi0enW6qgV2QhABD2QCexHYmKJ2X/FOUexVokgRGn+JIENNxvlse0V8wdIYh+vYe0edUDEELAl3SON/dEUFYNbCbcax/c+Pcn7TmseN8bky9dx4nVXAzYEObOnUunnnoqK/Nly5bRSy+9RLfddhvtuOOONH/+fFbuYBaQqQAgAOBw2GGHsVLHOWAclixZwr0Y3vnOdzKYWL16NX+OgEYwEaMHEIb7sGXHZxLIJOD2olyOOjs7+Xud9NqUejH483uzcQ7dO+cMKuWbKqbdnltNJ867uqJZUz4nGVmsu/wshsSFpzwjpows+NDRzaqkLEAxdnqgaMKhU/RGqs5OOr5ScUbMaaqdpEAnxk4kgRlPyQs4MNWoHzjXRsQQVKzf14SuiE+ZuLVm0HIzRp544CBVblWUchKYqSoPfjqCIwyA8HIrQZ4VzrL5VQOZlfUjJLjBAvycLBKRp9V1gNw8aOjPtwoIsY9qAYTtttuOSyrDZQCWAIWPHnvsMbr33nuZQUA3R7AK2DgeeOABWrFiBe23334MBMAmwKWAXgx/+ctfXDokYhFQLwEgYdKkSRlAyHTQJiGBegJreUtIaAu8SSxgA0+iGoOAzzZVuQAg3DP79GEBBBNlQ75RXAxJAX6Bez4Sf6gkDWlUQxcJwfCJSi6kFdI1WORPrcKO8k0zxeqZlBanIB8FPgxvYj7YMN3rV+nzGQ6HuALFZIo5xprAn6+KLRFI8TfRm0ggv1BMAvWSXchJc3Rz9a+TJMcqc6i43Zb1oB9UxBp6lRETQZMPnNwYPi1QCUgqwISdF7uHAb/hPb+1ghTBDpx++unMBEChw9rHzxtvvJEOPfRQmjVrFr+HuIJXXnmFbr31VmYcrB8D5gfGAO8jKBGAAI2c8B5iFAAgMgZhA+/s2fB1SSADCNXFNNYAQmO+SHvNOFJjEAJ61t+rpWx4aCGLMKta8C5jIeXcwDL0Q92cdZlgPfrqvILarsfK1on7bEFFSnGoGJNYEYekQe1HMuLUwCB/0c050Owx2cIidwXxJCIwkbr3n2MfFIQAwV+ggiBjeeT+KsuRZKHHEIRmN6jGr4LH3MwSAUwwpjs4JCmC72k4lo/USwAdoTzSUl4Sro9KimkxCDgcQYpgBxBUCPcBfkKxg0nA+3iBQYCSx99wNQAEADAgQBHvgzHA+/gcQANjILARbgo0dMoAQl36KztoA0sgAwgZQDCtPqVtFr1t7vtpbf+qKEgx3Pgj61n7LaTJr6o2iNP7CTrLq5EvAzmLOlR+dv00S1ffj9HaSQjGz8nXzyvYklCRG42tFHbFkmMLE9dDknJP5yqMEDEwJZP0AyStr0BEiVTGnEf3rHZAupufujkcaAjTGFNkmPo4BBQklHiFDq+x2fkgwC/ulIpAUso1xI4Pyj7jswkdI6+kuK779Yaug7Cu88vOH1sSyABCBhBMAk0NLTSueTIt630jHoMQGpOi9+Jdk3zFIh9LqqP/gFWzMpOVq04t4cSIIo8jhFjWXFrZZKdvPVeDVhNM8sn7CsXwScwwNxDiK70QHHjPWRJ2SgUJaZa8xSkEKCaxXEAVXBDORVJUPYEnTFZ0fTQxdov4fv6wCVYd6aUVX8PKicUOqeX5SP1aJwGbeG0qqsUgbEgVsT4AAuocIIWxlCvEElHy5SFqGVxJeYp3kKy1njLlqa+hgwYTAppqnbupfC7fa6KmcjcVh7KiT/XelwwgZAAhSQLxNMd6nybf6kygnodFMccK9ICutw58opwEn4iaSI1MT6vWYPNULe93DIwxDbZuVYhx3aJz0mN890dMp9fDvWutCYtHqGj2lAQS0oQZLIDT5JReD1NDpRmTdX30BkxAGQacIn4ibG6hELECHOBuRZPio6ohpPBZ89ZeIcqg6mXsdnnjDBdMjOucTOefdfGwmzXV+zWpdty6AgTc7ZVNM6ln3FuIGopxf19pkAqrXqYJ3Qupgesb1H4BHKwubkVrO7enXLHdeRVrn7kJHoFCVT3LaOKKh6hQrmyUtQnOeKNPKQMIGUBIBwiewreDSlrqG5R/yBqo6o7X9vc38aSYhaCAkbPMTUl5yiSuJ6uUL4qdI70GXFR7GIGf0LsoLHVcodBS/ARhYKNjWgTGVHD/qcpSD4/dGGe1y8UZIJXiIIXln6B9+a2wTXai1pRx7cWbQ7hWhwviWj5pI7EnJO8NKgWU5OJJoMpMXov/8FM0peqmXFehYWINH2M4/PiVCpbDOJAKpqe8WbsY0IPhjY7diDpnJO5s5dIQFVY+TxO7F1K+JkjI0cridOrp2oGoCY2ftoDX0AC1LX2IOvpfr+1v2wKWu65LyABCBhDSAYLs4u6VZBnHcuz9kTxFXJU5sHMSDNkEnRpLXxMtk2yiJ17TBzzeYtgfHlq+af3U0wbWddjHkWWu2MBzBcQMdL6uoC5T7lHFShW/unOquSEiYBXdM6fgPRknl7OuXBRjCm7k5L0SqiO6eQesQ+JdYTBY8qpsytg+qLGZlOpkXuT8ykfYT3N0y7cmWMHh4bETOifTeWdfxKmIKFCEOgej9UKKJKo0jjRIEQDh9Y49KNc5LXXK5dIgNa58gcZ1P0sN5YHk43I5WtW4FfWM24GIu0JuIa/SILUueYg6+1/LAEIdtzQDCBlAqA4QUuSTy/umptD9yWDBdw1IgJ1v+1dQ+uFmHztAPnRKJKlxWQpg8M8zpWSBbmbPijbEoGpJcylhCcaMwEqqmo6Xk47R93Eh8nCqUFmxayVJZvsTah7Isd511Yr3awJE7pa4ye+L0473XSp17BGmxRM31KSYh7Qx04BiZVHm9L079tzZhVLAhEkimqN3YCBnB7A0SBEA4Ze//CW9+uqrnJEwWq/3vve99A//8A/rBBDe6NyDqCMdIGAt5aFByvcuo4aBVZRLuIlDDU001DKZco0to7X00blOBhCGJecMIGQAIQUgbK27qSNzY8dVZQWMDfD3+dhofohbVf1TObe66Ag9LQiStMHMQjeg4PSMmq0xJe1rjgS9ZZAlRs371EeMdtE/rHyyxVH4GQJJAMkrnBQz6QN3gFSPjICE+zhwFaV+6ZNk6+YWB4QsO07dDF78VspA7tDovDSigIuMBOMIoEt+AJK8PgyqhvG8MFArE4FBuPiz3+RKh0hjHM0XCiq9//3v3+AAQdZUpRAJy20YwhtNIa3LtTKAMCzpZQAhAwjJAOGgWbrVe0rHmWT1PWPJm3Yd52oqQtzfLBtaWpS+GzWmkNVSD96rvu8lxDZU2SdNqTj/uAKKZJ98+pabyqj7WQp2R1xdhLgso66Lw+HnFaCZb78uV0HKPUxyE+mhcdbIm98wplrtyak2TFXmIjwxlyMUSrrkoqvreFDX/yEoszx79uxRAgjrf/6b/IgZQBjWLcoAwsgBAs6Ei3JTfK1LJUU2HaxZk19dEDrEiupU5qTHd1rWM2wFGoWeEC+QYA2mVhBMkLK7olL0Eg+Jd/WmWH2CECDoWJIZMQxA4NUg8KdTrdujX7VRIY47FUGGia9UQFLtSjKSP6LPICRepw6tagSKm2tqSVWvg2d4McQdpL3SRJByHbgYSkMp46XIjbmIlM/E3RP/EAzCJRdfzX0RRusLjmcRcQcZQNjA22kGEDawgMfW8LWaNbEy3UBlqOsFb0l3ZHERvRg+NKJSyzGAwIN7NHtQ/sCZxOarjxRK5Y5syr/qwkYoTB8D+F6BwEMQl1UKXR3NM1mroLJhbJrmPqnhkE+l0xlEVdIzUIZhH4MIXSgYSLlmkq++krIPHp3hBBRUnJomq/QGXKWhdIRiaw8fbo518fosxD7nGI6UMVW8SRArjJ+Z0DmJLrn4O7Hui6Ox7aES42gABDy7bcVGKhYbafmanlitEqyzIZ+nztYiTWhvoeffWEFW1KrY2ECtUKBPFQAAIABJREFUTY20Yk08RRBwvKEhTwNpwK2G8Ar5POXzOeofHNrwYs4AwoaX8Ri6Qj0AYUOJY10AwpKmuesGEHbZX10MVRQ2sychpW9+zUBf8Mas76VazibJaq7PeqxeDiwM7emUngT+3fN8IolTCFFBjV4SI/bgKqoJRR8xJpVsgeG4eh9GEY83wyrBndXGrLpGf/iEQUpVUxUqqTlz41T7YtT0WFQBhUp6caGkLcnFcPTe8+jIPbenlWv7uGz3xI5W6h8aogeeeoV+eedjNLmrnfZ6y0zaalIH3f/EK7TNVuNo9x1mULHQQFf+4i80e9oEGoDyLhOd9vbd6PP/egu9bc/t6bYHFtLKtb00d9oEOve9+9LF1/6BevpSsiJSHqKGfI7eve9baNftp9P//untNDhCkFHvc08ZQKhbVNmBtSUwZgECujk6BZWw63IugqdULBLfKarh+P2Txk9q4lMRX5DGKSdYrQH4SFMytUn89IfGjZkwLbxVkTboDVUTNLFg09VxdUyVHjySut6q1EsyQEmWTBWVnfSRLsTFU6SKuyYUSD0zcc3u2crR+M7JdNE//DNdf/313IRpNF/oBnnKKaes1xiEDx29O+270za0tqePlq3qoemTOumpFxdTa0sjfffX99DErlY69chdad7MyfR/fn0XffaUQ+jJF96k791wNy1e2U0fO3YfZhGeeuFNOuNde9JF/3oLXXDqYXTJj/9Ii5atoQVzptE3P/Eues+FP6Te/uryQk2M6RM7eA6vLV1Nry9fQ2cctTsdvvtc+tqPbqM1Pf20aOlqAnCYNbmLWpuL9MLry2ht7wBN7Gih7v4B6hsYosldbfTmirXUUizQdtMnUonKtPDVpdTTP0AtTY18bl//IL20eCXFgGgGEEbzcd7irzVmAQJiEOKR+Xqvg33Zt2oT9Veouarqi+QPxYdsmsM7xix4R/FHx/iXrUzr85CG/srFfNK0bHCdpKceU/ALC7n5BnEOob/buTPCCH1W0HUowaQYivX4tUxMQVwP0e31sCuV147OqnisfFmxH8w7Nqn+gSfa0B0zrn0yN2v63e9+R/PmzRu1OATctre+9a102GGHrXeAsNdbZ9GSFWvZFTB3+kRa3dNHdz/2Iv37Hx+m5sYGuuTso+lXdzxK9z7xCl38ocNpxqROuvpXd9Pfnn6VzjhqN9p7x62pf2CQ5m83nf7rgYU0dXw7ffW6P9IbK9bSrnOn0SXnHE3v+8JPqG9gkJU7YjeYdQheMyd30TX/63308DOL6NUlq+intz5IpxyxgD7y7r3ogadfpa0mdvC4u24/jd59wI705rI1POa3/uMO+vzph9Mf7vs7Pfz31+iafzyOPvbNX9KJR8ynBdvNoIcXLqL/+ttCWrhoKX3+g4dTV1szbTN1PH31uj/QPU+9ErlRMoCwHneHbKgxDRD49ift5KluXtOkcpIrhuixxfzJcF0I8fJ+lbV+gmqMNR/bFJrZkQwB3R6r5qefRcDImbxc2RAKPyySFJtPyKwkTNbzdFR+arKoFe+Q0IQoIFFqiqmKCV4du7j7UT0eoPoEkh8S9274INUCU8HxFQwSByvKjBCkeP45F9Ndd91Fa9eupYULF45cVsM88+ijj6Zzzz13vQOEfXbcmhmo3r4B2mXuVrRkRTc99dKbdP3tj7DV/9WPvp0+fsWvqX9giD5z4oH0+tI1VCjk6Wd/fIj233lrevG15TRn2gQ69ag96HPfvYn2mDednnp5CT3z6lLac94M+sIZR9DJX/4ZDQwO0sEL5tCO206ha264tyK+YcbETrrqvGPpqRffpF/c8Sg9+eJi+vA79qDjDt2Zzv3Wr+miMw6nW+59ms48Zl/68S1/o788/Dz92z+dQJf++HY69X+Ayu/ufooefPpV+uHFJ9NpX/kZve+gnemQ3ebQdb+7j+58+AWaN2sSXXnesXTrvU/T/O2m0e0PPEvf/c09kesiAwjDfCKzw6tJIAMI8RI9kayUgva76lUW+YkriDi1K4q0IlSgwvEejWG/xdmB2tnatexwzrlPAS1+v4equMZPR2R0FDxWWgQpCSA53VZzolUiYjXDQgL4/Cj/uC+fGYt6zPcq34p4vYUEDFMDBKKMcq0Am8SCSHopy6RJreJpx1WLq0iQgT0HiEH41Ee/wAABLZmfeOKJUdsljznmGPr0pz+9XgHCJ9+3H514xAJ2G3zhX2+hz51yMN3zxEv0+7/+nVmB2VtNYAbgo9/8BbU3F+kb5xxNF3zv9/TastXU0dpE//SBQ+jntz1MnW3NdOYxe9Mnvn0DfeK9+9JDzy6iW+9bSPPnbEVfP/toOuXLP+Pzv/Tht9Htf3uWrr/z0Qq5NTU2cAzEgbvMprPfuw9d8N2baLd5M+iQXefQZ67+LV1yzlF02/3P0Bnv2JP+87+foDsefI6++9nj6Es/uJVOO2p3uvuxF9jCOOuYfeiEi37CLofp4zvoq2e9nR599jX63d1P0zfOfQddeM3N9ObKblrb20eLV66NAG0GEEbtWR4LFxqzAGH+AVooiYv6eK8aipSPLJPz+zFzn8/zGPI7/8YHcV+HmpawWejmR4hPIIxar+LWtqlV6sc6WJJk3V1LoycHRiJQzEdalaWXQ3CRgDb8EYy18A8L1lRRdjnh21vHampiCwcYq4CQuuI8aoGYlCJYMclWcxvpgUmxH6iDcN7ZwiBsCQBhuxkTWHEvXtFNjQ15Ov/EA+j3f32GAQJeyEy48LTDOBYBgYn//cjz9JNbH6LBUok6W5roW594F39PkWkwa+p4evy512nW1HH0g9/+lW657xka39FC3/rYO9lKLxYb6J7HXqIf3/IA9Q7E4xGwme6+/TQ68917s6uj2FigL3z/Zjp01zm0787b0Jeu/QNdeNqh9If7FvJe8Ynj9md24/6nXqZrfnMvnXLEfHY79PQOUHtrkT55xW/o9KP3oKkTOmjaxA766S0P0s1/fZrOOXYf2n3eDI5nuOHPj9Gtf1sYxSFkAGEs6O1RW+OYBQhWByEm6TQ3vat3UM1rHI3kswbyu8cS6K9s0ddSEmGOaRqj7VIIZUBhC+IH1wIWYbaGW004xzq0LKSEzdZfYMyiTl2HXTU6oJ4c2+Q4Au/O8nC1C3oI+xDyN/HvYj1AJN+QcGODNdfyGFTeQZlHHVgvcfPwzxvXOYXOP+uidQYIuDcdHR1ULBZp6dKlNVkTTGxDMAhad4zjAvbcYQZ1tTdzbMHSVd1OFgj2Q1wBshCWru5xlHxjoYF23W4aLVvVTd296ACZIzy60yd10aKlqziOAOO3NhVpQmcLre3pp1XdfanZCEihRBBhR0uR4yDW9vYT0hwBGBBrUCwUaKhUYlm1tzRRYyFPq9b2cQokwAvOA2jA44KfSL3Ecfg+I/1yaKhEhUIDdbYUeQ5r+wbic8kAwqgpz7FwoTELEOYfOLOS27cd2NvMY/72Sv0Ve0bcabFf1FdRDxrg0bS4UZpirqUh7HMjJDBiWt0dfyx2EcRxha9467KKDdBUAT7coTGpBG4gprzREAp2Skm1AbDGWumLCaWUecjgvEQgkqDFQ9dB4nnB+uV68TfryupIQgQJ4KoOzEZ+kOq4jsl03pnrBhCw7ilTptBnP/tZBglXXHEF/f3vYrFXe20IgFDrmmPq8wwgjKnbvaEXO2YBQiKDYNKO7eVhZIEwAvVsymaNmK5LshrrsUgZNmjgYa1KjHXNy1VmRJxEyiOmbEqar7zuuAJveGFTApeKs4tl5qZMRfGiaBCjgBTTua7VVk2fZHZHLhrNNIHelwJaPv1Tf1lp5lJ8AgMuKu2LUCH9ELjUswOk3EOpzRF9WNZe5uPhYlgHBgH3ZuLEiXTRRRfRggULONbmueeeo69//ev0/PPPV2USMoBQzw1dh2MygLAOwstODSUwZgHC/ANmluuhryOtlfDwhD5xtVadEV/OxRVD0vOnaYKxktZejENdj2yVwEc733d11Fx3qI8T2IzQjRIQFzFlH1uDQxbxi6DqIMAPgJAdIm4K72XxIlXqJbij0zj8IGOkLvnqQVXZA53qEFdPjAMXrKNChOWEQkl+3Q29Jqhp/yWVFusDRmlBjtbueSQxCHh2Jk2aRF/96lc5ZfEvf/kLuxeg+BctWkSf//zn6eWXX04FCRlAGM4TN4JjM4AwAqFlp6RJYAwDhK3Lzho3bp0Vs7e9h22HA2Vl0ephPfvQlx0vn2tpgmq9myvAS2UMmP5E50SSkk9soKRsAfdk4IGTlUvNGAVTe6nO81DhlSoNfzbD46WtZc44Nz0zISb28DLhfEI/CU5OqQiZ6K1xKaKq6FVuNUGVXkeN9Ko7DgrbNDRUHlLzHuiE0wBC6IaRoNnK60zonErnnTX8LAbIYPLkyXTxxRfT/Pnz6fbbb6crr7ySMxJOO+00+sAHPkCvvPIKffGLX2RGIemVAYQNrIxSAEKtrJrYd6weAL6Bl5ENv2lIwOKMCoXCpjGhKrPwn/HFTdvRfXPXZy8GvXCFInBFhMS6jSj+UI3LAGm2Xczdz5xzjmMDZFFwWcgR/ncz5pav4tf3Lxyj8QNAk0AEVIhbpxbrTwGDtUIP82Tl9NjaQqufYyBSQAkrYwRsRdMIYz6Enuf/x67F9fOTwEqcVRfR1Gdw13fz7DlJgG1pHS7FreIzC+lpp4nPf9qNC95PdldVPqcTugAQhh+DgGDE888/n1DL4M9//jN9+9vfphUrVvCU29ra6NRTT6WTTz6ZHn/8cbrggguouzsKErR1rR+AsDtRx/RNfsPaKBPMAMJGEfuWetEMIAR3VpSJaRTPf+u95d5Vlpy3fvc/X9mF6jN8jPzr+Lu9KBPz/5viSQMvSUZztSvFPtP6BRUPOKjsQLG6PxMUbpLRwaAndmwU8xB6Z0SR+0hBOmvGUEHgwpG4gGjmlVUc/XsZrFBPTpqHHQn5x5RuNZCW0gkTq6hwTaTtJilVI5PwTQyHGbOQ6JriouExFDehY2RpjmDKDjroINpll13oxz/+Ma1atSq2kpaWFjrppJM4dfI///M/E8s4rw+A8Gb7Aip3zawvDWhL3blT1lUe6qOOxX+j9sGlMXMlYxDG2IOwnpY7lgBCU6GVBof6qFQuUW7Xg7cuW2S3i6w3oXrGaVop3lCdJ5mpLvvQszYtdT3c9H3QUamsPdDRkKPyUEomgJ9FEFOc8VXwtZzu9VZigYlW4EkvKzZoJWCoFqmZ7O6Q6+IzU/7sn1dtV0L6F9iGHLrnNTg2xa81L7EKUlAJlfDAJOA9o/adfHEPE2Ib/RAIT6pBqofUtUCmgwM+eThCRFbCXih2MeVchSlJ/K6G6EbX5OIgvZN8WfogEc8BTxPdNxGrUDN2RSaLbo4jrYMAkIB/aT0ccN/wGhpK7ly4rgABD8fawiRa3bkDlRtAe3rPb76BcoWW6kGpaRvnUD+VB5HmWC/dtJ524PU5TLlEDX3LadKaJyhfjtdoyADC+hT02BlrrACElsZ2On7Hj9MrK5+lNQMrKYcshjwUjNddzbaaii2imt/AJwGc3sCbIb1g2lZUo1i74nfnQkvKosPtYArZHkPcpIhFEF3mLlvJIMf0Xs1H2SL2k6zXYY6deDjLJGQSas6qolFWUm0HFpoyPhWAy1fAiYGJ5rYoU74iHkDkXeEaSWEQ5H4mQ0kBn/EXXzmJcuFHphpNEYzjVchkkMXZEQBySWAOg8tMkMWwPuog1L6LlUesO0DgbwwN5Qr8z3/YB3LNtLp9DlH7VsnBFykTLveuotZVz1Lr4FLwPanL8p1EI1n7hj4nVy5TAw1QvlwJzjKAsKGlv2WOPxYAAlLq3zppb9ph8u5ULDRTqTREOVRSdAFc9US8I5ROLd0ya2jxI8O6jVHbugk7BVCPAzyH5i/6gCnIYCs7lxMAk6B5E4MUeYikDa5S7UCRoKiLWN5+gKAozqR0ymq2VZJawxo4nS+2jSfv3RBpAwoMObpcr8YARt7E/So0iqCGBkokGQPxkgZ8qJcN4ECflx0R182iUOUlY+NzP6sEytfOwf2IwFm0Nv9+lAb1nlXbM0IGQY+NMQR2Ps89kr4d44MmVl7ebXSxHHyafSD3dkLHJDpPezFsbpUUa23Dg7lmWtqxE5U7ptUFEkp9q6hr+ePUNrhk82YPaggmAwi1npzs8yQJjBWAsNPk/WjPmUfQlPYZ9OrKZym3y/6zAu94mNeuND5vqUY5Gy+vDIHvMg8L9qhGYQsyIYpeKGziqm1sYGsgX45RS7oLIRbFWAV8JNVNAJjB+LGUSl95JwQYMuQIQFBY6CgCE3lCFcEKl41AjqobsK+Eo/hDEZxffiDfEGd93PRZqSekDkI98vwDS94FDqrbgGUjozFlX78hz+ekbcCxVrwGAgBFQMUn3L+Kh9IW6LtLvLmJsWi1HDyUaeR7sA5ckhmEs4cfpDjSLdRnwNYPg1B9Jv35NlrevgOV26dB0CkHl6ncu5o6VjxB7YOLt2hwUO35TFMKI73X2XlblgTGAkDAHZvasQ2d8NZzqbGhhdaKi0F7MSQ5fdUFIAy2ggHdh91+7RjqFLs6QcNE1qGcg0tDp1lgJFuAniIzlebb/75Hg1MXg+cxWVGJdqkIZqymBQOFGvIA4aql02PidiNKN6HiYVVGIil+wGBGnYyPCTntOmnDpOAkd89kQcnZGwJG9GGxn6qs8wVfWaEctSj0wYEhyoElUHBiUkzqshk8huqaMtolkj/eYcZL3VNDgyWN3SBCs6ZPB1kMzc3N1NTURHPmzHGFjwYGBqi3t5daW1tp/PjxtN1229HDDz9MfX193AUSqU877bQTPf3009TT0+MubuvCeGjtjKJKN9xwA5/3rne9a526Oda7/fbnW2l189Y0UOysCGaEnBuG+qi952VqGVxW1a1Q7/U29eMyBmFTv0Ob5vzGCkCY3jmHTtrlfGpuaKHV/QAIB0UAgTe0nAS7yS4tG658qXzL1xHWcQXhKUZjjiVOwKOFPRvaD8xDdTvQ/L716lvNNR8bB1Qqj3QR+DltJsVgxKcz0sxkBTDekLEjE5CAZHGEc5CFJdSiFFYlFVt5oMwNiWDGlBM8N0SFFKovMUW8lWBH5hvMS8duYEUsQzFj4NdS8B4ZnG5/CkshoMB3DTQU4G6S9AyffZDjKtcfwyLsXYku6FfBjMAmUdiL4amnnqK99tqLTjnlFJo1axavA+mLUOqPPfYY1z0ASMD3BEr+/vvvp5/+9Kec0YBzrr/+elq9ejU9+uijXDTpqKOO4rTHxsZG/n358uX03e9+l0444QSaMGEC7bjjjiPu5ljz++AdUKY8lVNBcJnyaTXIh3ORzeTYDCBsJjdqE5vmWAAI0E8zOrajHafuTdtPXEBPLr5fghQj3aMBXprwj6BBe1V0Uwy0msTj61AWl6ggw9wI4g9GwILn7/Zwh1mKjFM8ReMsSItrMB3syi6HxlHcl+GrEz9jI/UZrINWB4hqLIolDAVWGvLpdfF1ixoNKgDqRdm/b4IJEIWzvBO0PDMtaRP3P6hjDVB0SXqDYyYsriEYp1rxwlQM4gWixqeO66eho9DVJWcyQEilQnKSWRG8+LFLkFpSN0dY+6iOCCYBIABW/+c+9zlmDr7xjW/wyKiDgNoGAA6///3vuSAS/r7zzjuZKUAFxWuvvZaZCGQzTJ06lb72ta9xMaUXXniBLrvsMrrlllsYVKC40iOPPCIZLRyDk+eyzajGeNZZZ6VmSWxi++dmM50MIGw2t2qTmuhYAAgQeKGhSB3F8bRgq4Powdf+JAABmVj50CpNqwtgty3JuPUCGGN3V61kUS7xDdznJfxznLJJs3xStIRviSYpH+feqEOB2nwsKDP0o/NYXGUyXkrarOx64jKD6kjJPnweyPerx5FAFGRa+Z1KBRMVhHN0LuIbTOwua0R9CSaDutamQ1YYqAnBkxESVSBQtYyy0UXhelO6ceGwhGDIECCAQTj88MPpU5/6FKGWAe4rQAKKId10000MHF588UUGCwABV111FbseLr30Uq6mCLZg7ty5/DfO4y9cocCMwZFHHsnFlTo7O+nyyy+n3/72t3TGGWdkAGGU1UAGEEZZ4FvI5cYKQKgwruYfMCudfbQNvo6b7IxhwwAgCjTLKEmZJMVM2RhSs79Sg3PqWoLikMC+HLn6ARUWZHKTI8yLsxdStKgQKOE8xLfu5m/nRogmXVrVtKoXXIh1xEoVa9qeDYy6Bw6n+XNn4sRTkl7mRCwrgK1VFKCScUoDJSqr0m4oNHhZKmASdDxFDBYrgna7kXTUHZCycmzKAjpymnURV+TIyMA9HxwcigIx/ZRQ1INolHvM82WGS4GES5WVvxHzGGef5H0GooH8EYNwvpfFAIBwxBFHsGXf3t7uKiDCZbBw4UJW8ogxgIWPY8EojBs3jj760Y8yaMBn2267LbMK3//+95mFOP744+mAAw6gq6++muMWZsyYQddccw29/vrrNHv27Awg1LG3ZIdkEtjYEsDeA3CfVmp5OMBzNNeypGku3TtnXUotHzSrbD5aKGUoJ+f7dwF6pmCjaHqnwFE4R9PfZGOO+gwgIMx28vjerM0dFEyI58G3wuPpbBbsNYQgNj9yTvPlLZsATAioZCi7BmQpIF1QX67GgioKpAZaoaJYbYVUOlzWBms9vWSy0N+4ar4QBzmSky9aLcQJ5ocXNqVMHJHPRrLM3/fZRw9XVGEyei9arz9HPl/lBhwA94EjgBQocIOoIA7AZ5UETPneKLkWT9HqFqT6GOwmILPDL14hAziSyAM7IQ5kt5NzFGgfDx1W1iMnJ03BZ43MdYJjx3dMps987ItkzZqg9PfZZx868MADWZnjfh1yyCEcfAhXAAIR8fOZZ55hpmDZsmX0ox/9iJ9dnANwgM+g/NHyGfEMOO7ee++lZ599lscDM7H77rtzoCP6NmQuhtHcLjfva9WrhBJri2zeS9/osx+zAAGVFH3pm2KxN+Gzt4p58tMUgwaweWmM/AkrIk1pdGawpCzGfN5+nIK3s/vKEwVPFEOYhvEUfpTOhzkD2Jhy4LNU8XDMgb5EAercdOyQTrdUxug0sBYyACvyCj94jtkEe99VMtRroqaBKxVtaYYxq1/XGChZUYYKyFiscRbEah+YgKDgnXydfwBK3e/xYA2yZBHSMRKLExmBmfADSrkeg66Mr2dWuyKWOGmSDE4kayT+WXyjiz6T+IHoLvpMSRwE5LgOhB0pRZGip5jrL7gHmAisiE2BWQq9nxPRiyFIc4SFgLgBKG7MG3EEqIaIOeMz/MRnCDw0FwQzJAmVFatVUxyNNMeNvqtmE1ivEsgAwnoV57AGG7MAQdIc4zUKLIDO9murWGiUexTwpUoM1G4h8lvDteCYCLUyxSCOKznGG76p6Mfz+cpII+dNAUIhxClzU3gRjnAGuJVNVjqdA/AYUES+AUzLugmjVC9odQkv0FoGqvVDy5+VAgCAXhbzAmtiao5bFHtL9tmPwYFIMQt4iipOCpsSKU6k/0mgpoAyBjUGeoIsiIq4i5hJbTmeGrQXD2VwrgUMzSmHqlXlmtH8IA5Wwgrs3NyV7YjdU3adeGvpl+Jalm7qTw+dn+PWT1SK2q4llwzRpYJFRWlDcNEwQyRTxK3H84kXnmW5nWWSGITRq4Pg70gZQBjW/pwdnOAiSxNKxiCs/8dlzAKEXfafwcCU889BN/MfmouOOv+NiNT3NInWHMBJA/1iWXGsPjZ3n/7X4D27VWbBSUqbWeVmwcbBA/cZMMq4IS8WH1cjVEsNSlkbFIk/2qh7ZTdUkcZC9M3EFzXLljMf7VnbXMNALXdW/GhS5JUItuP5FH99rk6EvM/gyCO7/eswVa8ZAmy1w7fuyQ1uFGR56OQoZ26SWHqhrNOP4xDmIwim8MAJPpHryv1qLBZigYgALApB+BmI6iRqCWzvGQibQfkVGzEvBot647EeizhgFe1lxvjlveVW5GNtmWPBjXAbGYoT/a7sh3vCYv4Fn3Hx8mv4WRH3EtGEjsl0/scudi6GJ554Yv3vLCkjZgBh1ES9xVwoYxA23q0cswBh5/1mlC1nnH33FgDHesRUhmfZ6c7v0/VOzwb6KemBjgLNxJLkjlG5PDUWJYgNLyh9jl8Q57lYfkFRBJwj9Li88Lf0x9H+Ad6zVDEPWLCuYiOAkY0BGrlBFLaCAFjSdizPg5VY3N8toEeC4CTdUeaFKoEFVfCYPyumlEB7Y2tMsVZUMQxka8V/omUGgXtBvIClZOJ4BBhakCGviZkcE2RcEeMzaTgUlV/2ASPm4Vdu5BLMClRCxghC4thGZ9nHFxUyJ+F2ELuPQeCmemM8d0mMOpH1xoI2wSBUuhhGawvKAMJoSXrLuU4GEDbevRyzAGGX/WZyKKIxCKwIfFrcWOnINRy7Sy74zU9HVAVhvmGxoIUGNkoeqoHpeFMmijKMEcC4rKw9/gL+Yx8n+NS1H52GqbhI97ieiM2dXSdOWVVmOrgvpPab8K/BGMKz/IXSNiZD+lK4oE2ND/CVeVzZITjUU5bc5TECaFowIfXbof2JvM+9RdsCY29F18KDjyYdCsEE2KA3BfzuqO9krZ519HCTioEAx3I42Ba5JhiJxF1KOBfApb93kMBgCLMkAAVTamhsYMBqLBX/5DEsriJahwBWfdCkLZYDelgPzh0aVGDH3SlzXEkxczFsvE03u/LwJJABhOHJa30ePWYBwvwDZyLs323CrJDZxx+PpPeFbRS7+drZgg4VkZbMZcUD6t4yHRR9YLOGZQoXhn0GWhigwXzEhjm4r4GvfOIeDwujd1PkqahJLpY4mjFJC2VkM6BKn1mcaHYk1r7EEnCQPaflSepef78yCLCUWaEJ0wGwgp/m6+Yxrd+B9QXgwL8GNpgHAYbU9YDgPw6q1JxBxgZQWpQTBsetTzMtLAPBC5Bm6dJCAAAgAElEQVQ00MXGvXpZOMQD7IbzughIkbiESIYOuLCLQ8AB6+9AgePdWF8Hr4ASH8/tqD3YYx4MH6p4DZ4w/mBf1GGPV8wARIIK2S3AaYoCHPhZsLbWnPoqoClyleicfSICa/VAn6XAsuvHAJy6jca3I4vhYq5h8Nxzz3ERo9F6oTbCBRdckGUxjJbAt4DrZABh493EMQsQdtxrerlQhGUPJQomQVvlktDt/DK3gqaTsQ/aKSEvYJCVnLxEoUc3VBQVFKDGN6grwL/l0RdAxvcDH4VxsMIKmtPusRYMUlzWhAIWjZfA2lS3uJ8DfUiZ1LQEnrCUQzY/98DAECusssYLWLEIYzQ4ViMv67H1WlyEDOdb6eLH52wLqysA+WjqngELSReFoDx3gdeAUEpTa6DdUInyqB/AqakakKdgYHDAQwxEDtSAZhdWwFfqGneiNzpWFhvulBTmgdfowjH1MQkCEjnzIey4qxkfcj/i8RcxV4cFZXkPEQOoorqcwngLmVBFJcVKYita0ITOyfSZc75Il1xyCacmiitldF6nnnoqffnLX84AwuiIe4u4SgYQNt5tHLMAAb0YsGVazQD/IYT1NciBiGJpcoAdIuotEM0L4hvoF/NR2jmo0gS1Dh+8qzYIBax0ujIC2JPNsjZ0ISlsEeWPc1jdqt4DUHDshdbrjz5HhkIcnDA+MCtc0hNiwYfy2EWaOCkKGCCDmRV9RitL+rK9HT3BQTGfuAtEAkF95SXdK+1VpkGlw+0d9Dlga5g1qxX9iSz/UDn6GQiCYCQ4k++FpqL6wZRsvHt1I3AKx194r1gQqmWl+J/7C0r4Lltmi/vIFhMtO6gRETFPvASvh4OTixczA8AijE66X8kv4z2uYzJ97cKruN+CyGL0XtOmTaOdd945AwijJ/LN/koZQNh4t3DsAoT9Z5bLHg0c21qtAx4HeJlFLPSvy9NXWl42Zi9oULMicEs5kI3bH0eNeSK3RuVN5yp/ms4nikE2ftvDbSYFFCNSpQTrXKLTo6IFYNv9bT+ukKV+gf8SP3VkYov+8vlrZUE4i0JYCj8jgccKlKQFLtp1AAP8OfHfzBiYfzyvtL+eUSYaQAfCmKKWmgX2AitRKlUJtognD/BpPlNgsRyyJtHE4u734yLkLP8VAgaplRDNA+4OXxwVsuJLhbmtPvOCOJQoeJUzZwBamEaRmXAWSELIhc2Tnwm4d/g+ylg4By+4GC65+DuupsFobj8dHR3cECorlDSaUt+8r5UBhI13/8YuQEAlRaN7md6WmyDR6PI7HkwHD9whlq4Y7c6SwaZWLUOIIPCvghZWNoGHkPNi6WlsZUcUvsQzIBI+UiKc4w763p4dLvGsdQzU4nR+aAtNABPg0fuiE700QdbXuLanrNjqjtYKIFIuQQZ+JoV8HtU00LmLEAVMeG4YcQ3EFbu4VSKmgn3uHhsBlwbcICbKsD8E1sE1FjxdDvbDjxWoUOyDUVaDuJjg3okULwoNSRZA/AsaKmYOduVDdE0BZmG3i+8yyDfEql1K9kr8Isxq+MNpcCgDUrjEGkQeAiDlhoNtYbAHOeTgYinwrDgOpFzi56WhMU9dbZPom1/6Hv32tnvpAa6cOHob0NsP3Z/OPP2kDCCMnsizK2USGLEE1jdASGKpRzy5KicuLs5Z91LLUHRQXNIDwRXPY0XL6s/S+s21DSCg+zY22igbQJQgxmEXgNL5MfbcAvlCZWPGt2odwSqRcoDiiLIKhM33+zWwQhhCBHxcSVuwJTMeCgL8/gvszvA0Xbw8tKq7wMgVF4swIhxEl0cXLDmIMy1UhgjwY2WOFMfBEjMvON4CHFn5Dw4x4EEmgbkQrPQyBzLq3Fx3RQ2mZBcEXD+IgfAt6KAeAlwXfslpY0k4EFPTOaEwOctErwUrneMDbFz8DO5XqEyNJXLpkwhIDJW9tXDWB1riNHzQFbFEJkOWq7e+2LwU8DmZ67gVnguEQnhzwbpw35HFcNlXv0+X/Mu19F/3PUENTW0b4juaOOYZ73s7ff0fz6oJEAYGBkQUNdw3ozbx7EKZBIYpgS2B+agFEIYjEtnDqjO+wxmv2rFvNs6he2afTqV8U8Vh7bnVdOK8q2mrGb0h8e2OzS04aFaZLS8YWxpBLv5qL51MYxCwUQ8NCG3MN12VCAfFcRxDXhh5rB2WvfNpi4bh2AA/eE9dG5zuWJLjmQhWhQwhSoChDRrVErDI/FhUZIwhUDeArcPTMtCLUeCiggBtIRHRJlIvwONOTGcpAIhcDCKKaBxQ2DJjocgthY9PtJ4GxtYomyGphvYC0NF6DPoWwJopXyveFEvz1EJIcUYB98oLNHTlHfQGawqrBEaa1pYmW35vg5Bx4GUkNc3SIliCj4LUzaDapik9uw+2cqQ8Woltvk4Qq8FFuQLXkGSI+M+/ZptES5J74LvAKEfjO6fQty/5N7rkqh/Qnx59kYrtk0f0vYT8utpbqaujlRa9uZwGBgdrjvPBYw6ir3zqAxlAqCmp7IDNXQIZQIjfwc0KIOyCbo5qHjpUA2Vp5YjNF211DFSpQ9lzvrr64l1qoTHxUSC+KBPGEAIU4gpHwIk5Jlygn6OVzYrX+ADVZBI4GRXpYauwKU/9PVIrgZWL0u2xyHxEwut5vlvBR3RcitlVHZSxCo2FWDkCWP1h3IUcGSl6AB2uROnAIhoxlaMyxabAghLDrK8NYXJxocpYB+uAaI8e5hLrzyBanEpBcaBws/F7UThQG4QehEBE7nV8pDBoE8xGLEWSSOIH/POMJfKGSowV9BkEZW/8q/s1KHjZMV7CwG5Q6VNLLV/+tX9dJ4CA+7Tv/Hn03iP3pbXdvXTFD2+gNd29Nff0DCDUFFF2wBYigQwgbMYAYbdDkMUQ9VQQKj9exjYqoiQ1BYRelgqI9grdCJZxEB1gFfosN98Tmil0ZhnimgfKiZvtmDL1Ky16MYGSYeDR1YIQqka0g4VwlSMVUEgqYHwcPxjSGIB4SpyhIpmkpT76VDd/SSp8+Baj4MdUxOknzhyx1EiTgbI3TvYuhiKaN4OMCtdIfA5+bIY/lv84y7MQzY+LGSFGgV0dMe4/9i2IihlFb8eCHvltINGAatMAVTsrvD7eDxtXQa4hE8E1FNy05dngmg/eg9TVPpkuh4thHRiEzrYW+sb/Op0uvupntGptNw2Yi6nG5p4BhC1E+2XLqCmBDCBsxgCBCyWxsRnfqP0OhcwSJNb6F/q6ljuFGQTfT57QUlk6C5oGLGl3PM37NwDBrIYcA0UO33pTU0GzF6QeAyum4JGNGhbKJ6zOfVrdD9J0U1B3RjCWAwt6EakWGUXr2xoQKOf88T4joG4QmZPYunZOXiv8RaAqKFTE4EhcDTm9X6ywtciSU/LsY0cHw0jozj0hd1uuGab9M+MRoQo+xJoyOY3NzoNAKvE4Ab4CyyU8LnjG8vE5svJvkNLOcLEgzZJ7ROhpUlRLKAIL7uRYEGQ3oACTxlFIXIyX9aLzkGBFYbEGegZpXOdkuuqffzBigAD5LthhW/rgMYfQP//g17Rs1ZooBiUDCDUVR3bA2JBABhA2Y4Cw68GzWHtj27SCO5xFxqZbfEM3a46PVQXp+94tJTDKAAisQwlbiL2SIuFFwytRrMWOROkIMOCaAA15CYbUlLwkoCLricMFtnvDOViBIp0ZR8Rzyp46PjAHbmAUvTBuI1INAQQGhhikNLdEYMUQUbFJWg1jqN6eQfbtS50IYS8ihSfXsk6NWKeBIVPaDNI4cFTO5+MDoGOVIMPGWUw68BmSCZIv5Ahz8xkbvz9DmIFibgYwTK6To0NbwUYHgMLBhT4q1PLXgQzDYEcofLgmZP26Rod87IL2bESDOdBn4Edl6btHOEuCK2dKj48JnZPo8q+PPAZhyoQuuuxzHyL8/K97HqUf33g7rV7TQ2t7+xicTRzXQctWrq5gxTDrjEEYG8oxW2Wcgawmj9EK3BvJPRmzQYo77TO9DGUCa7w0aEorKiHs9mZVxtiIi00FVnj9fYNMNee9XHUORhwSi842f2tu5AfzWbqEKS2LZWAVoIw93oN7wcABBkRAmsuqYIoaJYuFaWALk4PjSmx5Qr9oNePEZwLz8bMXHfvs++CdBvPp+8gpw4oYGRSlMmcpaBUjl1JnXRMtDU8yPqIL8Fo1tdDUH6xoiQ0Q5kbVugvEE/wkil7W7rlEAlAkKZERg4Pr4T4zC4GUwIIALYu74EOZRJAqkVwqulTiWgyqV6VXA8eVWDdOZWas+6dXQyH80lv6Ic7gJAoNQrVA10YGVLoeBX/9YAfYjVDZNEzun8jJAEV0ugIJSz3VpwDj436M65hE377k/xsxg9BYaKALzjyOnnzuFbrrwSfpPYfvQ3fe9zg98dwr1NbSTN/67Bn0Lz/9LT31/KsVz18GEEayTWfnbI4SyBiE+F3brIIUkcXACoJbDmiTG81SMLcDB8RxPwTZhP3ARBeMr5HrnJmoGzaoYqGCha7neAKvWh+2bx5T6+2bGKV/gVj/zW2NDBL6uwcEHGglQLPKLd8S6YJQhhxTAK2hCgPKzmhq6X0gNH3soXXtHGOeEMmlZ5Pcs1S5e6H8U83NH7P8zJWinAyAkR90JxUiowg6ZkTQ0wGR+doiWVoeiwsAAAy/cP+IvLhz0MDILmyVDge0nwQDKv7Y2iZLUCTG5t4SVvhKq2EOcbC9xCXwEmH5F/LcxhtjtXUW+SfAXh+yC3CIXt6BIbgh9Pp8f/xaCBgPRbW0eWYZ/vlcjppbG3nc3rX90t3Rq+Qpz0dQhErnJ9dU2fRKpkBLR1FAYIl43hZ3Iqmd8qziPwM46KWBzyC7yRO2oksvumbEAKHQ0EBX/tNH6N9vupN23m5renP5KnrwiedoyYpVNH3KeDr20L0ZOH7n32+S58h7ZQBhc1R12ZxHIoEMIGzGAGFXpDkGJWxFaYeLgnKK1+bHEfAV24sVPlc0DEr06oZvef4ceAciwCnqSAPDOrXmTayz2NoruR4J5uZgv7/FAaimtpx/s4glNiByQ7A6LEXUtYwv2RguyE09C2xR66YeBWPyCv2iklKkyZUvFmdNfx9y18UCB9uCV38vwJIIGtdyHRjV2obbBB9CoeTKJcoDJCmYKUEB54mamqFYRdqStlfWLAmxoA0wCHhRaiKnQYUs1wjr4Nw+zfjgck8qy8YmKXMthZHEJ4Q14G8wNMZI9KztZyanpbORGhtlrt1r+gWAaaArbhAAHubcvWZQYxJy1KjBgo7JQL+IloI6uqJnAcxBLKND7xfeKzY3uroWA/0C4gxs4Z4XW2ROPWsH+DjM27lq2M1Upgmog7AOWQyNhQL9/IrP0uXX/oZOeffBdOWPbqQLz3k/LXpzKfX1D9Bv/3QfffT4I+lzl/2Ievr6M4AwEu2SnbPZSyADCJsXQEDKPbvuYWDtcdi2QhugsM3AoNDYvo/eYgD0vRhlrFS5KBekIeJnZCnBUisUCk6pMfUPo5gzBdSyNXeCWuRiBUo5XKFiRKlJtTwE6EkxIvlMiztZDIEqalzXjucpqqI1RRIp/hw1NheYum5sLIiSGSqxgrecCFbIUL7cqEprO2h6AItNMz6kEyPmHTW4cvEZ+nz09Q2xlQsrvaW1kceTjoUCqNgdYe2VFQn0rBlgeTHDwLEhYCsiAMYtsSEL63jJQMGLUtB7ZLUZzNsAdogVKrMSVngiovC5sBCXVFSFrvdAQJ6ANgY+3O3SIj8FAGFNluIIix0XgbUtrE+ZZWDskUwP7hJ1NrHfBG/B5aWdNrlwhVwjx+WSI0gKhgrsEV5cMbIItqVB7iEKZxXzIlfvO4rrg1FAs6Yr18HF0N7aTL+5+kIGAB857gi68Mqf0s7bzaIvf/IDdNoF32bG5vPnHE//dPlPqaevLwMIm72qyxYwEglkAGHzAQiFfJGOectH6Ik37qMVfUsot+fh25bh94XSXLuyXzd31AqQjb0ZVmuDKKaeNX2UR+Q5rNmWgqN1pRcALEds/FE1RowBRQiKvK9ngAb6BlnnsAWpSgYWM8AC5mBBh5abz5aojsjtmE3BcMtg7golsRPaRhmfG0WOMZDhINpEXCNQXGg+xdUe2ccvSgfUuJQ4trHyVGyClS8ZBtYqerBfMiegjPk/BTUMEko6BrtR8jwmX09z/yEvKHN+f0gUM489KFNsamtkVqG3Z0CVpQASY0wgOMixpa2RnzbIvKdbquyZC8QKQAkoEtlhfVwp0YJQlS5CkCJeRbACzACUmfLH79ykCzEkeg6Og2yamjkIgM8TN0RUW0BCAeSzIW3whWtbXIB1ybT7yccBKOJWohxyC5iWMvV1A6QKZoXMcBGpJ1EQQIXYCXNN6XEW0OmzDe6ZsKwHjlfxSliXicZ3TR5RDALW2d7STHNnbUWnv+dQzmC47B8/RL/+4z20+05zGQyBQbjzvsdoh9kz6Pv/75ZYeXCsPXMxjETVZOdsjhLIAMLmARBgfG0/cQHtNeNI0Ru5AuXgYoAxyDX42RktihgWJyt9riYo6Xaw6Jhi5qJJHj2fz7HCYEqY6xaIcpWaApH/Au9zuWG4FrSqIlP5aEakPnhWHGi1jOA1rsYoPmNUcBR2QVv6akobxwMUpIGURKkjNU6D5rSok1mcoMIxpz5kE5RBUzdQsbmg5wll7+r75/PU1IpgTKHoe9cM8HGNTQUFMqKZcX1Y22wVl2CxAuiI0rYUQayb4xm03TLOhB+eEQECOmFxu7g8CayzCpK4NkAFsihwLfj08ZIyxgKQrIwwrsttu4cQMCngBpUJxfIWt04YJMnNkFROADMYlZtxqQ+Eyxhr620ca6yHfOm9AElz57CLSdwRGK8f9D+Vqb2ribNPMNe+XnHBWLaCACVhAaB8wergnjH7oBUiAez4cw7KjLfvhiysbwZXgdRU1xiDo/Jl9wsXnypRV9tk+pcRpDluO30ynfn+t9Orry+l62/9b1q5uoe+ft4H6NmXXqPf3HYvre3pp0njOujUdx9M199yFz3z0msV+3q9AGGwjqqMm6PSyOacSWBzkkCtLIZ6QZDtcRsyY8Ofy5vFOfTXOR+qq9QyXAtvmbQXvWXyHrR11zx6bvnjlNtl/1lo5qhKR7hiBghFWNHa5GYArgGheyUoMcpXtC6KUi65TMWiWKRshYJRsNQ8Tq0TCxgMBDbqnrWwFrnFo4CEfI4VtkXu4++Bfvgkoh4/HLDYMyD9BZQBwDw5diFHHFAnFQXR30CyM8zSxxqsCZW1mGZamvsqCMPglC3eR8VFBP6hdPIQKgFK/AJ82awsWWnnlVEg6l4N618yQZpboeQkO0DgShQjgDesX4W4GKS6JAAMK0R3juftcbUOxJUhLa91fG2uxFY6u0msYmGOSloDoFgsSCnrcpnWrOqTVEcADise5JU0NgZC5gL5iSzNFeVSI7VFtARbSnMvviUKOPAcFJjhkRRPFQPLkxkkzoSQbAprqGSBsEChOM7cGQw+4eZAwKx2spSlybMorJS0qDZgZu6eKL0RQZbspGAw3NU6ia68dPhZDGAIWpuL1Ns/QP0Dsq7587ahfXfdga775W00WCrRUQcsoDeXraIHn3y+ItUWx481gFDvBrohN05+WtTlVo9y2tBzqWcO2TGbhgTqAQibyrPlz2Nx03Z039z6AAIkPa1jNh2/48eppbGdVvQuodxOe88oc4pgUWhms+yZYlAaHht+f18Uoc7Bikp/m7JAURxrOVwsRg2QsLELiyBKEH5hKGpuZNQoWQ1Q+r29sOrLhBbNzW1F5zrg4DsoUbACTDerP1ozKuCDNmod67DgSlQtYPqarXENVmSaGW+JynaNmaCgCgKG+H12QUQZFwwcXFpgg2RKoA0zYjZUF7e0I5pexu9dCwtZcijZBcJtqCWgUDIgBPAwmAEw0mh/puQ5BVHmB33PJYzhZ/fSF3njUhYHaAt/trQJIIHLZs0yKfXrmjT5AKso4MasaIxtXQ75mg0Nmq6pxY4UrFgnSoAYcxdwXQcvaEXcDCh5LZUvgVMs3kPaNktwJUAaMx2cESN0iz3UGn4g98kLnmXmRAGhH1cicZQ5dkfw+geFIeI7r0W8ANGkEZm8YQBi4vipdNlX1q2Soj0zuDZqP1glxabGAvUpeEja4jKAkLzxb2ilvKls4puG2stmUa8ExgpAmN4xh06e/xkq5pto7cAayu20zwx2zHZ0NbuMgW7Q6UoZm0KLRXkpFSwWtHHjovBQbx/0eXN7kVPu0BtBMgKsyZP6kbW3g9Hv1gWSFTQoYrOqi0Lzi+KG/1muJ5kCyOMXhc0Ufp9G9kNBWXxACb71AV5ba0eRz8HaBhDBr758WNlOyQDEqPuDAYdGxwOIwOXQ3NTADYRWLu2RNUEG3GQKlmnUaKrQJAGHOGagT0AAfPhwQQBU9PX0uxRIa05loAzzMrYDv0dpn0TIaGClqKAO0hhEDAgHDeYQU8guIDA1BbhPBiJWxAIEWXla6WHNsOBYiRxRW0eTuE2GJCYhyrwQdgOMQwQQkMkgrIQFQsitkroUYIOMdXD3EEwDXAIAYF7aJ4JEISPce66KyAA0Ci2UIk5yn1rbJP0S9wYgjY8dUuZEf7cvvhmMfC0rEqlvTuicMqJCSQCTCFAUN9oQxxz0DAxQf/8gtTQ1MtgcHBri+a3p7skYhGFY7hlAqFdlZceNpgTGAkCATpjcOoPmTd6Ddpy8Fz32xt3E3RxdkFtB/New9gpFoebXrup3yoctT0JhHVGEFvhnRqQBAQ46g6tB4wqgKGDZ9vcMqoUvfmoLDIT/mHPpoRC0gQ+izy12gK0/9l+LJY+/Ycman1wyD6zNMkdMiF6CJa6xElLcSYMVOYVP0x/NWtesCVPO4neXeAqMBYvXFCwUPitzUOWqxHwl2dKqQET98Qxu4KIxll5rTgibIY+5uF1Eg0GZMWXOClAAlrgONMWSEYwoYlzewJc1SIL+szgCjj3QG4Q4iaF+iSnhmw52QOl5C5rk5tSwhrFuMEhO9UuQH2eCWJCgZiBIwKawNJwZwUEqkpbJrMgQ4g5EkQvAkEX78RAMBjigEgGbwuYg7gMsBY6WbA3MTZgtPBx8PzXeBC4xgEWMD0XNyxsqcy0JgxkSmClpm4gl6WydSJd+4bvDroNwzKF70bmnvINaW4oMUPAIvfDy6/Tzm/9CHzv5aJo2aTwtWrycnnruVfq3/3cLvbF8ZUUJ5oxBSN7eM4Awmmovu1a9EhgLAAF7Y2uxk6a2zqS9Zh5Jd7/8O8rtevA27FdgtzXXJfAi0znfXKhbo/qhZMx37YIRtXIhB/iZL137IkjsQk7KI2uhJFd9cLDEaXLiu0awoboI8Ib6sWEZYtNHlgMUpG32XJmwHLX5lRoAwi9wZUiN0gcFjswLvBDn4ChG1nfaOEqbGyP+AIoSippPscA27d/N/notfgTgZOl90p9BOG0E0IFP4LmqX58L/Kim5WBGdRvA8sfvrAA5uFFk5ALpkAVhsR8YnodRl4DiocZmVZZekyuALbOcJcbAd1NIRUKAGFboQyWO8+BgSMs+YIWsQaIAEJwNIjUuwMYwc4QsEWSyIKOhT843IKThi9TUYusGMLM7pwcigwK9EVTRI8uFz+NqjBqcyPEZCqC8Fs+OHcIzgHRZ3DOwSH4tIl4zwxDnMoGbzFxiWPfEril01TeG34vh1HcdTJ878zjqbG9h5qi7p5cWvvgaXfN/f0+XX/BhGj+ugxBcuOiNZfS3xxbSl77zf2npytWxvSgDCBlAqFc5ZcdtfAmMDYBgcs5RIV+gwdIg5fZ+22xOiIPfFv5gRI5zcGDfEFPXoFGh4Cya3+gGDgAEGFDLHJYu0/YauMb0OtcOiHcQBKiAL16yCSIfPM7D++yr1wBBvMesA4xPZSVgKVqGgNDwknlg7YYtKh/XYYqbQOcPivKzOgZsyiN7Ql0fmnnBShAMCqzcgsjAAh4xAbbK2WKXTAvGMdCBXLtAyhaDCeBiSb1S1Q9joaiPvKRGAWSClEmLgWBAoAACBZLMbcP3BMq6qYGDRvGS8AlRtgP9UNa6Fg4G1TgNVyhAkwodDSCqm4Gdpq4KkNECVwBIWslC2CJR2IqvHGOjcaUurdEaSHHMgPn6tbEUh2I05Ki5RWTAKYnK2khRKA03YKAk87dMDZa/MgR8oAfYAAgAChEUKxUyy9Tvt5NWxMKZMxr8iToUg2AXkELZXKBJE7eif/7i94bNIJzyzoPoxKMPpB1mT6e2tha675G/M5Nw59+eoPPPOJaaio3ckwHzve6Xf6SrfvLbEVdS3FKyGOr1/WcMwsZXhtkMKiUwtgBCtP7cjntP51LLRknDwrKqfxx/wE2R5ARTwsirtzbJtuFLbr8UN+LsB0fni1KAGrBqdsxIwGLtg59W2QJtkyztpiWoEQFzRkNzmWKLtGdFARo8R32oUKhUvgTv5TgP3+IKOG4wl2ffPPz/Mm+Jyuf0Oiss5AxcbXfNxwgrwNHwqkSh4KG0WKlaKUcGDyIkSTMU1sQyO0TrRgoOwAWBnDgKFjkzF5C1liS2dADOkIBcUB5YMzIkaFHiPYQR8eeBGhPau4LrEQgYQfoK9zzQ+VrAIK4pAX2imCMRRL5/uDosgFXSWEVPxzZyVcZQ/JZiykmzClQ4S0F7anB8iWM75Dr4P1Ib7WUAQhgF65QZzQnPk7E9eNYEoAF0CUBVLCYjG2DVuhN4XuwAxCCMJIvhA+88iD5wzKE0c+oE6uxopWdeXETLV66hf7v+D3T1RWdTa0sT3XjbvXTUQbvRF6/6D06FdJkfevWMQUhWQxlAyNTzpiiBMQsQ5h8wk81GuACM/MUGDcvS+i6gS6Gjo3sHpR4ALDcPPIiFkGPLmA1WWNRs7Yt/mgPttFIhF9lhxSamLSsMTRnEw1FoQqS9sAlgJqw1MmcMqKJtamlkGhxz6enud3DsR3IAAAw5SURBVD0HzFLl+AitOMgBeWz9iyuAUwTL4i9nKx6VGwEeGnLsv0bAnPSekCh86wBp/SEECEikPuYv/nVNeeSsAomxsO6IbIVbMCd+V8UpWQyisHD9Zo1dgGUsZajj9D3PUTMQXOEobtikAA4pltz8KMqQMAveNl7OHGFlLUWJGHDkctSiaZlW58C+pCJPUbQAPgAJmJsxDKzgXcEoLqbh9LMRGc5tgoBKxEFoFUZ2O9jDogEZOBbWvcVEoHyzKVfDY5CBpEoCBWkDL56Ijqe1HKQstFTedD4QBZc4fHz7ZLrifw+/m+OJRx9Ap7/nMAYF9z32DJ30P4Dh78+/yjEIX/jYSVLAK5+nR556nro62uhLV/+MnnkxXgshAwgZQNgUFWE2p/TnsrOzkysDJ72EYY/cp7XkuCGB8LqkOYbzzu2878yypRuKv1fbPHPKoCh9Lu3LvnlRmkJLQwlaKpnQ1rCSoSuKLY2alicKnRWzpuwJGJBSyry/e/UHML7VD7AqhNY6Wnz7ogw5Nc7VPNACR1qaAdcyxcCUvvrXRannqRHVAKFAOCBTxMH1GhiFSACdRNOXuR2ypBiWqLcbLhgNO+D0fbFsLaVP9ayrNGhVIXl8DsAUqt2lHnLgolZI0GJMPC+NRWDZDCKiX67L6YxOEWtAJ5W45oQpa9euGeBMgQIsdrOakXHRhMqWGnhoCpzvqQIVXNfOdWml2iHTAhQhR7t/Lq4jhwZIUiBJdLWr4C1ASsFg1EJcQJQ+ca7UMuTW1l4UxqZMtHZlX5QC6TIdgWjFlWPxDnzPvBbROFdabSPbwW+X6fwtNK5jCl0xgl4Mne2t1NbSRMtXreEiVzOnTOCaCH0DA1xhcU13L3W1t9BrS1dQV3sbrVnbM+JeDJmLodZWO7zPN5VNfHizzo7e2BIYswzCzvvNKEtUuGIDjkiQ/TxPUjlP2ANxIUSlj3nXj6otOgUtihguAaa/NYKdGQrpzsyWKCtXrdNvYQq23ZvFCCsMzYO4Oh43kMIcrG+ARfT7HROlyRQreYANBSpQ8Eylw3pnpGPBbTnKa6qdlEYWhQ0LH1UWWZlrJgF7QthfIYDHVfbjlskNPA6O5R4ATKFLPIKVlca4VhOA6Xy1ZDkw0YxhLgUtWQYc0OkCLeWaIiePJegfdKABIIGPBzNiLRI128CVOfYALgf3KeAQN5Eoa67VoFkGVrOAZaJ+JhtCSj6guFRZAlnhLuGYCeVVtPw1j8lltOUr7rMpBjikDoKLKXTBkuyagAvBulBycahoHMMdUlJb3jcQLxknUT0ElGpWvkrdINKs6YpLhs8grI/NKmMQkqW4IS0reT42DStvfTxD2RijJ4ExCxDm7z+zzJappqNhE5WOirJhQ5GwJc0xAuipILXy2WJ2CkbKJeMMKIumpka22lDmVyoXSh8BCSpX/z+XSrZcd1HyUHLWVprLKuvLFLVY6eKykLQ/KYZkcXtsaLPPXor9QNFD8SPVzeICJKpfc/d1r2BmQHL/NItBsxs4XEFBArMMMiGMCzcIW6daTto2Nqyb3StocoQmQUjNQyXBbonSt3gPW5v52/G3c6dQWZgJdU1wx0hFUTiGFSN87ipbrBUZBRwYyTUiBi2AX9wjCvikG6fCMA2mNCXLc+MAQdHkuGdgTZjBccyNyMgHIPas4Bxp0iTPEpQ/V2s0lsVAECodagyCwjVxcSC1UUHEQL/Ul+DnTwMaMb4UmhIQ0L0azIJIUfpcyPPFsRleRocBB4BFy56RAk9lmjR+Kl0+AgZhfWxLYw0grA+ZZWNkEthYEqgHIGysuVW77pvFucOqpBiOxYWSzGKEQrOiQ7BkJcUOFq3ZhVrmF9XwtG8BH8+FhaRhk/QDaOC0RAtUdErNs5yhQKNKf1IHQXW0a6TkyvtaQSOl9bmMAaxeteo5DVKpbWmDLOH+UFbOD+0aCEkpZH6f+z6o05yZgLyrssepjtpBEMdIRoYoePH/iyL0UwpdVUktDGXzt4wBKKUGtNJUZWn1AEQja0kF7qopRXbwQjCjBAnKMWb1g40wUAY0xz4wbaFtSlHSSlXrqo/MGCEHaLgRhwYLWo0BnQ+nP7onxgIKXdkMlgH3lNAXAxOlAmIgQuspxB4+qbIsmaI8TtT1k9eKaTOwQk0DdcVwtoqMwr1AlJbgmhtaehsygVtFZBrF1UQhjhpgmSMa3zGZLvvq+qmkONzNIQMIw5VYdnwmgY0ngVoAwRjWemY43HiFesZMO2Zx0xy6d3b9pZYrAALaPXO1P3QqRHMkWPFaAdC6NMqGrOlxUJCN4m9GtT5Eyq+Bn5hrICgVre2XOWVSLUsEm+HFmQzoncA+Y2ECxI8MK14r6IFG594KZqVH6ZLcmtkUplYcZHeIU4RC5Us0vSiK5paioxa5eZECHoAcYxaY5VBqHUGZ5kvHOntgrTIzgX4GIkI7j9fEBZXkAwl8lEWxEtYCQvgMVLhUUizRavati27m3g5oN81QTGeNucEi13UxW2GKzyU6yly4zoI2YzJa3dJSWU9yUSLts0E5amlv5IJEfI4dwH+Zn0krOer1JK1TWy8HcRT2QFkvC/k7co9ED5y4Z6yug6Qz4vkQ8GlZMTwnTfjAenG/LOuhbXyzFpCCi2cw6u/AwMiQg2RyCBCSdEZxheE+avdLVIzsLNK4tsl0yUXDL5SU9mUczvsZQBiOtDbesfW6JDa0a2TjSSC7Mu9ouRylBSlK8LtvgtSWmb+X1z565EesM0DY/bBtmRPH/lpS/zf7szmGQHz1oG15+dot0Ky1YlOjWNw4hjsBCtfAPRzU/YACOKCUAT6KxUZqalNFOlCmHivli0BAuB7U9AUAMb8zK2rd+7mvg9NIUQ491zwAY6GBbRYUiH4MqLTHLoRSifIcgWpBkwZLACCiYlBot2x62NIycUkUdLKJMICKPCAyJqhv7kwZ+S2a25XWLoFy12IOqoctKDAK4JO2zC0djZyWiUn0aE8HlikqCSow4ah8fVk5YqyxrUMaYWEGKOSELAV5uC0WQpoVmeWN+4uUUDsGwaUCRIg7Ljp/vhfT4JpkaXVDdGnExHAve9do2WMEqqpbCmMDfMJlgLELzVJLAsgEXRjtfnKwo65J0jDtCwemSH7nUtWKbADQzFWBdfBa1SVjWRA4x6p1csVJLTrFIKRUpo6WiRykeOm/XEv3PfMGtXRNGfk3cZhnnnjUvnThOe+n/v5+euSRR8QNx/PP04IFC2jRokV01llnccGl7LXxJJABhI0n+03pymMWIOx2yDbCXpfKQvNqlz30Y5CWzgAKJVfa2CL8cfM4hQw1B4ymBu3NGYuSe++ocb7TkusvZZwbxDqGT1wD73B9KBIEIkLpITiR3RRcARElc0VBC40uFjoCHxvYVy+TEd+yPFbi6xcfgZ8uyMqSK/jJcdxFwVoAD0lhJIuvsIBIdmeokgQD0IJeAFDElmLH15Q5QhFi7GIzmjeJsgbogMsGf0HBSWVFDZlT5WdMghjxAspcep9WaBRFrmmhmh1hShLr5aJB2o+K52sa13oQqE/fmJKCtl9meaGgkzIRpkDtC9pv6ZBeSqMcE2UrcGvwCBux68F0vLlFWJH3qBXP90VkwNkIFgTCk4nQOHty9G+8y1UdVcFL9Uy5i2CyhLaRWAr3MlcEqm5yMasonmbSuMl0yReuod//+UEqto2jttaWUduTtt9mKh24x04ZQBg1iY/sQhlAGJnctrSzxixA2GnfmVyOAFR2UQPvLJURtDRX/DPliGh9peGxGVtaJBQAlCZb8KzorYgPKGXJDxUaRq4DJcdNlkBXqzuDA+JUwyCDQHoxoA20Vh/UboYSvCg0eXNbI9P7DCB6B/m6lS+/BoH49wVASLEno+5du2JzV6iiB9AxMCGdFyVlk9kVV9RJKxE64AKqRahz7k8Rhda7/gacoVEURYaPMX+uQshxAAAQUQVKP7ZBCkZJBkHZGiW5/gSiI7FGKzvMOluZFRSWAiMjGMSj+63FtPn6vcBA0PWQM4cWlMq0VoMDJQsFYxnQifCIMVC2fruvtk7nU/IUOYCT1Z7gmA+dC5S9AwgcnKoy8xpjiXtKYhpEOPFS0wY08TmYEXtN7JpKl178HerqGidZGsNjCddpD2xqaqKpU6ZkAGGdpLjhT84AwoaX8eZwhbEKEP5/g1ntRJ5xp1QAAAAASUVORK5CYII=;" vertex="1" parent="1">
                    <mxGeometry x="30" y="250" width="520" height="306" as="geometry"/>
                </mxCell>
                <mxCell id="3" value="" style="whiteSpace=wrap;html=1;fillColor=none;strokeColor=#FF0000;strokeWidth=4;" vertex="1" parent="1">
                    <mxGeometry x="210" y="520" width="60" height="40" as="geometry"/>
                </mxCell>
                <mxCell id="4" value="" style="whiteSpace=wrap;html=1;fillColor=none;strokeColor=#FF0000;strokeWidth=4;" vertex="1" parent="1">
                    <mxGeometry x="260" y="250" width="100" height="40" as="geometry"/>
                </mxCell>
            </root>
        </mxGraphModel>
    </diagram>
</mxfile>